<mxfile host="Electron" modified="2023-11-15T14:44:07.097Z" agent="Mozilla/5.0 (Windows NT 10.0; Win64; x64) AppleWebKit/537.36 (KHTML, like Gecko) draw.io/22.0.3 Chrome/114.0.5735.289 Electron/25.8.4 Safari/537.36" etag="7ZtnkGwWfGMl57YbSLvr" version="22.0.3" type="device">
  <diagram name="Pagina-1" id="JRgSthRXodC9G0-vfQaJ">
    <mxGraphModel dx="2876" dy="2375" grid="1" gridSize="10" guides="1" tooltips="1" connect="1" arrows="1" fold="1" page="1" pageScale="1" pageWidth="827" pageHeight="1169" math="0" shadow="0">
      <root>
        <mxCell id="0" />
        <mxCell id="1" parent="0" />
        <mxCell id="iAH6zQvwI0jVcYzAp-XG-2" value="" style="shape=image;verticalLabelPosition=bottom;labelBackgroundColor=default;verticalAlign=top;aspect=fixed;imageAspect=0;image=data:image/png,iVBORw0KGgoAAAANSUhEUgAAAfIAAAH6CAYAAAD8ws69AAAgAElEQVR4nO3df4xbd4H3+89J0qZJIaRp06bbQn7gk7SzQ5tsy25q30sojy7CDuQJLM/ApVrS5u5jg+jKRtqIp1KuSu6NVKHeuz3WRmrHzz5th1WBjliYPEvs3a60JSvGFN2iDOkwpXNc8oOWBtIkJSWZNHHm3D/869jjXzNjj31m3i/JYuac7/d7vp6G+cz3h88xHMdxBAAAPGlRpzsAAABmjiAHAMDDCHIAADyMIAcAwMMIcgAAPIwgBwDAwwhyAAA8jCAHAMDDCHIAADyMIAcAwMMIcgAAPIwgBwDAwwhyAAA8jCAHAMDDCHIAADyMIAcAwMMIcgAAPIwgBwDAwwhyAAA8jCAHAMDDCHIAADyMIAcAwMMIcgAAPIwgBwDAwwhyAAA8jCAHAMDDCHIAADyMIAcAwMMIcgAAPIwgBwDAwwhyAAA8jCAHAMDDCHIAADyMIAcAwMMIcgAAPIwgBwDAwwhyAAA8bEmnOwBg/jKskU53AShyYps73YW2YEQOAICHMSIH0HZObFWnu4AFzLDOdroLbcWIHAAADyPIAQDwMIIcAAAPI8gBAPAwghwAAA8jyAEA8DA+fgYAVSw/cE4TWWdWbRQ+dnfs/KTWr2DchPYgyAHAZfmBc5I06xCXSp9f5nP0aCf+RAQAwMMYkQOASytG4sBcIsgBoIq/3np73fP/8NIbDcsVygDtxNQ6AAAeRpADwCxcyF6dVf1M/HMyjLX51+cUz7hPPq1A8dxaGYGnlal1znhEKVfVVGStjMiL5e1HXqxyzfJ6DfuErkOQA8AsXL9k8YzrpiJrZQ5+WrZzQo5zQk5yk2JmIVhfVMTcp95k/pxzQsm+Ut3MIVt9tutc+DsK5YO6KPGgdunv8mWeVTjxoAxjrevYYVn+8nr1+4RuZDiOw84OAG1hWCOSvPXxq3Y88rLq+888rYD5I/XZP1DUVzh4XPHANo3tPaF+s9r5OlKPyAhJSecxBZUL5NDoo7KHd6tQPRVZq1DiS8UyUm70bQ5+OleuUZ+CU67qCaWPAW7ucE/agxE5AHSCbSutnytmuqfHtymWlkbHj0u+3dobzp93T6m7lE2Bh74ztUDvern/BjB77pH8pkzXMd/GTc33CV2JXesAUEWjWYRmbvbSeHRfPjquFOw/Iac/P91t7JPCz8rpv1/Si4oYDyrhf1S284NcWOdH5LNXv0/oPozIAWAW3r40ObOKpim/vqOhJhafg/0n5NiPyp/4+9zGs9QLSuhLSrqmzTPjr82sHzPsE7oHQQ4AneDbrb1hKRFybyQ7rngkP42eeVqR+PFSedtWuvB1ZeBmntau2M/b3yd0JabWAcBlkWFMq/xN1818PBTsP6Gk1ipklNa3/dZhRfNfj8a2yYgVztwjq7gJbbcGrB/JDK1VQpL8j8pOfklmC6bWG/UJ3Ydd6wDaxou71gtasXvdi+97PmLXOgAA6FpMrQNAFYym4RWMyAEA8DCCHAAADyPIAQDwMIIcAAAPI8gBAPAwghwAAA8jyAEA8DA+Rw6g7drxjG8AOQQ5gLabr7fGhBecnPd/SDK1DgCAhxHkAAB4GEEOAICHEeQAAHgYQQ4AgIcR5AAAeBhBDgCAhxHkAAB4GEEOAICHEeQA0CKZeECGYcgwIkpVHouk6tYFZopbtALouOUHjkqSJrKTunFZ7tfS25He4nnDGsn9r2FIkiajd5fVX/XUqCTp3KWsli3JjU8uPnxXezvdlIwODaZzXyaGlOoPKtjZDmEeYkQOAG3j0/Y+f+7L8E5CHG1BkAPoqOUHjmoiO6mJ7KQk6cxEVmcmssVRuJvjOHIcp+ycYY3o3KWszl3KSlKxrWr1O8EXHc71u58YR3sQ5AA6qhDgUv2npDmxzcVXM2XqPnEtE1fAMPLr2blX2RJ2KlJ2zjAMBeKZKc2kIq4ygbjsKpcqlgnEVdbCdPtQWb+RRvWrvMfC9cveV9X6GcUDRmnt391Wvlxpv0CNvs/2/aGIIAewoGTiARlmTOka51MRQ0YoMeV4OmaWbVhLRQyVFUvHFIrVanV6fcjEA1P7kI7JbDLsGtZPRaq+x7rSMZnVNuwlQuVtpWPaFQjIdP8sKurO9v2hHEEOoOPcI+hao+n1z7xafM1cSo8XAsZvyc5P1Tu2pR5JysS1v5Av4WRxKt+28uvcif2KZ2qVs1UoNts+7MqfDyfz55ykwpKUjunxRpvfm6ifGR8tdF7JwvUdR4XZ/2B/6ZjjOHKS4fz7H9LUyxfayF9DUjotWXbFz2R0PBfSs31/mIIgB9BxhjUy5VXp2EN3So6Te7nq1Grntv/+y6kXSg0pl79+WQNR+QrHfVFFg5Lssfwo2S9rT2lN27e9T7k8SmvMrlXOtbGtnqb7ICVChannkAp/N4yONxizNlHft7HwiYCEQs1M6xdHz6OacvniJj5TPYW3H96rqE+SfNrYW1F+tu8PUxDkALpGvXVtwxrR8fOXdfz85Sl1qo3if3vhSlv6OC8E+8tG0FIuVAPxTPm0e2HGIBmu2gy6A0EOYOEwe4oj69gu13psJq54quK8a443c2iwOALvMd0NpjV4qNCKa8q8JX1wTz2XXsNRX5VGq7XfqH5Q/RVLAunBQ0oVpt39luzh3IxBamia6+kt6R+aRZAD6Dj3iPrgjg06uGND03Xc0+l1d6pLki+qvcWF3JjMwtSxGdNY5flEqDi1XNy4VZgyDu4phV/MnDI93Ko+lKaep7Gzu4n6ZTvKDVPFJfu+7QoW5sJdfds/2tTif3Nm+/4wBUEOoKMqw3fHhhXasWFF2fGGHyebhmB//aniWufDSfdnwX2KDldsbgsnS5viWtCHZttqVX2/ZedGw8F+lXUtnNTw3sqF7tmZ7ftDOcNx8jtHAKDFCpvRWhXCVW8S42q78nyrrgsvOynDOitp/v57YEQOAJ6SUqTyZi2FFw9mWZAIcgCe1i23Yp07hU1qVV7cBnZBIsgBeNp8nS4FmkWQAwDgYTyPHIBnrFtxrSSV3RSm1tR6oSww3xHkADzj2O6eTncB6DpMrQMA4GEEOQAAHkaQAwDgYQQ5AAAeRpADAOBhBDkAAB7Gx88AtN3Cu40qMHcIcgBtx21U0Tmlp5/NV0ytAwDgYQQ5AAAeRpADAOBhBDkAAB5GkAMA4GEEOQAAHkaQAwDgYQQ5AAAeRpADAOBhBDkAAB5GkANAl0lFDBmBuDKd7gg8gXutA+i45QeOSpImspO6cVnu19Lbkd7i+cJDVwzDkCRNRu8uq7/qqVFJ0rlLWS1bkhufXHz4rvZ2GugSjMgBoAUy8UDLRtHBfkfOcFS+FrSF+Y8gB9BRyw8c1UR2UhPZSUnSmYmszkxkqz761HEcOY5Tds6wRnTuUlbnLmUlqdgWj07FQkGQA+ioQoBL9R936sQ2F1/NlKlVLhUxZERSuRG0YeRekZQklR8zIkq5K2biChTPuc9nFA8YMmNpKR2TaZSvb5e3GVA8424yP4pPRcraLPSx8bUBghzAQpQIaZcG8iP8pMKJkAzDcB2zZfkTCrnCNHNoTH22U5wVSIYL532KDjuyLb/kt2Q7pWnxVMSQOdiXO+Y4cpK9ipkVIZyOyRzamW+3X8Eq3a19bYAgB9AF3CPoWqPp9c+8WnzNmt/SQLSwAh3UzrAkhbW3eMyn7X1+aXS8OLL2RfsVdS1aB3eGpcRQ7ZFxJq79Cb+sAddad3CPLH9CQ2WVwkr2V4vvkmlfGwsKu9YBdFwz69nHHrqzYfmfnbpY/HqRYeijtyyr3ljvxrKNZGaPX/L3yHQd823sraylTDyQm0IvCtfusD2mtNJKm4ZiFaf84xkpmO9BxXVrmda1saAwIgfQNeqtfxvWSPG1ZJFRtczW740XX3/+3dda2LOUIkblNHkzQRpW0ilNiRdew9Hp7Eef6bWxUBDkANBIakgJhZV0fSQsMz5av47ZI78qp9Hn6NpYUAhyAB3nXhc/uGODDu7YULf8yAN3FL/ORquP4t/9WgtvCFMZypm4dpVNc+en4tNjsosHotoblhIh9+a2jOKRaX7WvIlrY2FjjRxAR1VOp+/YsGLK8XpT7ouN+udbwhfVgDUoM2QoIeV2pyfDMkOuMsE9svymQkYid344qmC/o6SM3LE8v2Ur2uprY0EzHMdxOt0JAPNTYVNa24MWqOmkDOuspPn775CpdQAAPIwgBwDAwwhyAAA8jCAHAMDDCHIAADyMIAcAwMMIcgAAPIwgBwDAwwhyAAA8jCAHAMDDuNc6gK508cqk/vHl30mS/uPX7+g377xXPPfBlUv1sQ0rJUl/de8tWn4NYxIsXPzrBwDAwxiRA+gqL//mXUnSvhdO6K3z71Ut89rvL+q131+UJP1o7Iwe/eRaSdK9H3z/3HQS6CIEOYCu8fJv3tVX/yn3RO/KBzPefP01WpKfQ/ztu1eKx986/16xzpN/ac4ozDPxgMzBPtnDUflm2HegU5haB9BxF69M6uKVSe174YQcx5kS4pKUOS/9z7++S//zr++acq5QZ98LJ4ptAQsFQQ4A05SJB2QE4sp0uiOAmFoH0AUKu9NrrYk3663z7xXbitx366z7BXgBI3IAHXf49Xd0+PV3WtLWf/z6Hf3Hr+u3lYoYMoz8KxCXXVkgE1fAcJUxIkrlTigeMGTG0lI6JjNfP1O3TnMy8YCrbkDxTNnJ8rbdswENrpuKGDIiqfL2I6kq15za37p9QtcgyAEsKKmIoVAirGR+Xd0ZkPbH0mVlMofG1Gc7xbX3ZDihUCQlyafosCPb8kt+S7bjyMlvkKtdp7k+mYN9ufYcR06yVzGzEKwpRcyYepOutvua6atLIqRdGsiXSSqcCMkwDNcxW5a/vF79PqGbEOQAOu6NP7ynN/4wu2n1gt+8817ZzWPKpTSUkMLJfgULh3xRDVj+slK+aL+iru3rwZ1hKTFUN8RmUkeSlIlrf8Iva8C1Yz64R5Y/oaGUpMy4RuVXj+lqO1oq29R1/ZYGioWC2hmWpLD2Fo/5tL3PL42OF2cX6vYJXYUgB9C1rluySNctWaTzV6/RL6J/OvsGU0NKKKydwcZFy6aVQ4mmmp9JHdljSiutmOmeHjcVS0uj4xnJF9XecP58jQ12Da/bu7HsY3Vmj1/y98j1t4F8G3ub7xO6CkEOoOM+uHKpPrhyqSRp6WJDSxcbOn/1Gv3kb7boJ3+zReN/e5fujv9SocRRhRJHm25rZlKKGJXTyuE21HFzTfW7XsP5EXOwPz9t3ptfly9Ogc/2ujPvE7oHQQ5g4TB75NeoKgeV9phrjTw/ak+6bg6TGR+t3+5M6pT1qbkp62C/I8e25E/sz208m811W9QndB5BDqDjPrZhpT62YaX+4kPv18HdH9HB3R/R+N/epf8y8Ev9l4Ff6t4nfq4Vi6/o9xdyr2baqsq3XX3+tGK7XFPUqYjKZqMrQywT166KzXC+jb1Seqy0272JOjX5otoblhIh90ayjOKR0m74iHu7uD2mYsuzue5s+oSuwufIAXTcX917iyTpa/90Xg//MBePmbcnpt3OrSuWFtuqzqfosC0FTJlGLHconJRtjcocLBSJasAalBkylJByu9OTYZkhVzPBPbL8pkJGInd+uIk6dQT7HSVl5NrL81u2ovmvR2OmCt2V/LLs4fwGt9lddzZ9QvcwnGr3QgSAFjCsEUmSE9vcVPl691qvex3DkDTze61jPjspwzorqfl/h17D1DoAtFVuQ5pR7dXk58yBephaB9A17v3g+/XkX+Y+FFXvMaZut65Y2uWPMQ2q33HU3+luYN4iyAF0lUIYP//lnuJ90w+//k7ZDWM+uHJpcUPbX917i5Zfw+QiFi7+9QMA4GGMyAF0peXXLCo+wYwnmQG1MSIHAMDDCHIAADyMIAcAwMMIcgAAPIwgBwDAwwhyAAA8jCAHAMDDCHIAADyMIAcAwMO4sxuAjis87lQqf9TkyOncM8m3PPdaWfkjD2zS5tXLptRdbBhatiT3SNM/Xpmct4+t7GaZeEDmYJ/s4ah8klIRQ6FRq/h9Nc2UQW0EOYCWGnr9D/rXE+/qyU/c3lR5wxrRrp5VkqSBsbNl5woBfu6rH9HKpYvLgr0Q0u6wzk46unBlUpK08slXZvdGAI8gyAG0xEtvXdAjw29p5dLFeizAvdGRE+x35Li+rxyxVyuD6SHIAczK8fOX9fXDb+rUxaweC9yqj9/+vmnVP7a7R+tWXCtp6oi8cmq8UK4WR6WRONPqWCjY7AZgRk5duKKv/vsbuv/7Ge3qWaWffsGcdohLjcPZ7YYnX9ENT76iR7euKTtuWCMyrBHdmvilnth2m57YdlvNNlIRQ4F4Rpl4QIZh5F6BuDLFEhnFA4YiqfJ6mXhAhutgKmLIiKTK28mfLztmRFTRVMX5gOKZinOBuDKpyJT65fWMsv40pdhm+ftu/prlfS3+HFzt2VMuWehn7udqxtJSOibTdf1SGcwEQQ5gWt5576q++dIp3fe8rbtvuk7Hdvdo54c/0OluTUs6ZmqXBuQ4jhwnqXA6JnMmQZIIlbeTCMkwDNcxW5Y/oVDFHwDmYJ9sx8mVSfYqZlaEfTomc2hnvo1+BQv1Yr1KFuo5tqzRUNMBmIkHZIRGZdmu+r1NXLNOX1MRQ6FEuNSnAWl/LF2jBz5Fhx3Zll/yW7k22dzWEgQ5gKZZR07rvudzY65Xv3yHvnLXTXNy3XfeuyrDGlF0y2pFt6zWNytG5E5ss5zYZr39lV59/fCb+vrhNxU7/GbtBsNJDUeLK7TaY/ml0XFlateozm9pwNXOzrAkhbW3eMyn7X2utjNx7U/4ZQ24Aiy4R5Y/oaGyPA4r2R8sfZuJa39CCidzAVtoOzpgyZ/YP2WUPFVKj8fSCieHVeyafIr2u4O02jXr9TWloco++aIasPyNOoMWY40cQEPfe+2cHhl+Szs//AG9+Jcf1prrr5mT67p3qf/wM+ubGvkX1sYNa0RWjSl2f49Z9r1vY6+UHpMtTW+E2LuxrLzZ45f8PXK37tvoGvbaY0orrbRpKFbZp/GMFPQVOljWRq5eWHuDFZV8G9WrtMYadTw1pITCSlbWL+tAtWvW6auaaBNzgiAHUNOP3/ijvn74Td2x6jq9+HnftNazW6Hw8TP358YL3nnvqqTcunm1z553r7CSjntk3c3q9JUl7a7B1DqAKUZOTyg49Gvte+mUnvnkh/Td4No5D/FOGx0vn6+2x2qt/U6D2SO/KqfRZ1EvM65R+VUxwdCa6zaqY/bIr1FV/Jha83PCtBDkAIqOn7+sh144qYdeOKno5pv04ud9U0bCrRY7/GZx17lU2oHuHllvee614vHCa+XSxVq5dLF29awqO77lude05bnXdOSBTTPsUW5dOx17vDToTEUUSszqbeabjmpvWEqE3JvbMopH4vXX52vV2xVTOrzXte7dwus2quPbrj5/WrFdrjaa+Dm5lzHQGkytA9A7713VvpdO6V9OvKtv3Huznvnkh+bs2ta222quZTfzWfBnP/mh4ua31PHz+moLNuD5ogOyBk2FjHwqhZOyrVGZY7NuWsF+R0kZpbYl+S1b0Sbq2T0BmYZRVs9pmOL160elmmFev68+RYdtKWDKNPKr6IWf02C9juyR5c//bP2527JidgzHcbihDrBAXcpOyjpyWv2vnFF0y2p95SM36rolrZuoK4yyuTkLOuekDCt3o6H5+u+QqXVggXp27Kzu/Pav9IfLkzrywCbFtqxuaYhjLqUUcd/oZTY3jYHnMLUOLDBDr/9Bjwy/pa1rluunXzDn7KNkaKeg+h1H/Z3uBjqCIAcWCPdDTX746XW6Y9V1ne4SgBYgyIF5brYPNQHQ3QhyYJ46deGK9v3sd/qX4+f1xLbbPHc/dADNIciBeead967KOnJaA2Nn9Y17b9aTn7i9010C0EYEOTCPFD5K9oWNK/Xql+9gFzqwABDkwDzQqYeaAOg8ghzwsE4/1ARA5xHkgAeNnJ7QI8Nv6VJ2Us988kNtvx86gO5FkAMecvz8Ze176ZRGTk/oscCt+tS6FZ3uEoAOI8gBD+jkQ00AdDeCHOhilQ81OfKljexEB1CGIAe61LNjZ7XvpVP64qYbdOSBTVq5dHGnuwSgC/GnPdBlhl7/g+789q90+I0/6qdfMPVY4FZCvIulIoaMQLzmM729KBXhqWlewogc6BIL+aEmyw8clSRNZCd147Lcr6W3I73F84XnmhuGIUmajN5dVn/VU6OSpHOXslqWX3q4+PBd7e000CXaFOQn29Ms0BRvbQRb6A81WX7gqCayk8Xvz0xkJeXC24ltLivrOM6Uc4WQLyi0Va1+OwT7HTmu7zPxgMzBPtnDUfnqHANapS1Bblhn29Es0BQn5o0g56EmAFqBNXJgjr3z3lV986VTuu95W3ffdJ2O7e5Z0CHuHo3XG0E7sc3FVzNlapbLxBUwDBmFV+X6dipSOuc6n4kHcl8Xz0eUkns9OaN4wJAZS0vpmEzDkBGIKDLlWOl6mXig/FrTXJduVL9Wn6f8DArHm75WQPH5tCnA49q6Ru7EVrWzeaCMF2aCeKhJde7QrTVlvv6ZV1twpZQiZky9SUfDwfyReLx4NhMPyIxJlu0o6pOkjOKRQ6Xq6ZjMoaQcp9/VYoFP0WFH26dMo/drT5Wp9VTEUCgRVtIZVq4rGcUDpoxIUk5/sPE7abZ+lT5nDo2pz3Y07HO1FdlZ87qpiKHQqCXbGc71PxWRYUa00elX456i3djsBswBHmpSX2VoV3PsoTsblv/ZqYvFrxcZhj56S8WtazPjGpVffWbpUDAazX+V0uOxtMLJQohLkk/R/tz53AA0rGQTIdtQJq79CSmcdAehT9EBS4PmfsX3BF19mG39qX32RfsVdX0f3BmWQkNK9QenBnMmrv0Jvyzbtb4f3CPLb2oo1a8gSd5xDAeANvrxG3/Ulude08Ffn9eLn/fpiW23EeKd5ItqbzitmFltSn1ICYW1s14w+Xtk1jndNHtM6WrX8m1Ur9Ias1tYv0afy6bKQ4kG18r/zIpT66ZiaWl0nPn1bsCIHGgDHmoyM05sc83Rtvv4kkVG1TJbvzc+pb1KwX5HTn9uutg0YlK4uans+SOliBFSwl8xVR6qVyesJNPoXYsROdBCx89f1kMvnNRDL5xUdPNNevHzPkK8Ce7NaQd3bNDBHRvqlh954I7i19lo9U1t736t/ufIg/2OHNuSP7E/t3HL7JFfCQ3NxX1Qal0rP/Xf02jYP5v6+ZmHpPvjceOj078WugZBDrTAO+9d1dcPv6ng0K+17fb36cgDm3gyWTfKxBVxb7e2x5QufO2Lam9YSoTcO7gzikemd9c238ZeKT0mu96xWtfaFVM6vLf++vhs61cGcyauXbF07fIt+rmgfZhaB2aBh5rMXuX0944NK6Ycr/eRs8VG/fOVRmOmjFjhO78se7gYfMF+R3ZPQKZRmrr3W7aiUvOhld8IFjISkt/K7VSvcqzWtZyGKV6/rw3r+6IasAZlhgwlcpVkJ8My60ytB/sdJWXk+u+6VrR2FcwhwyncKqmVjebXslrx8bPlB85pIju7Lhb6cez8pNav4JfsfFX4+Nlc3M1LKn+oyTfuvZn7oVdR+l0wN/9NgKlOzvnvhrnWtSPy5QfOSdKsQ1xy/4Lnc+2YvaHX/6BHht/S1jXL9dMvmOxCRxvkN6RVO7XgNuehka4N8lYE+HyWiqxVaPRR2cO7uXfzHFnIDzXBXAuq33HU37gg0L1BDnSLhf5QEwDdreuD/K+33l73/D+89EbDcoUynZCJf07m4KdbPnIO9p9Qt8xZtOs9dhoPNQHgBV0f5M26kL2q65ew2Qiz9857V2UdOa2BsbP6xr0368lP1P9jEgA6iS3ckpR5WgFjrYzCK/B02UdNMvHPlc4Za2VEXmyi/nHFA2tlxn4upffJrGi3vM3PlT1JKBVZq0D8eHmZij6lIuX9KHxfVid/vvxaj0x5ytHM+zKd91jl5zZHXrVf1//x7X/Xn1kvyPfEi/rzp36ir//oqN557+qUstaR07rv+dynfV/98h36yl03zXV3AWBa5k2Qz3w0/qIi5j71Jk/IcXKvZF/pbCqyVmZsk5JO4fxhWaMPukKpVv11ig6fkG3dI/kfle2ckJOfek5F1uamogttJjcpZpYHbDq2Tbv0d/k2n1U4vU9moyBMPFheJ/GgDGOt69hhWf7vKFTxB8DM+9LgPdb9ubXfxYsX9X9/N6X/9Z+O6f/LvKFVb/5Cd578D92Q+Yl+/LOfqyfxsg6+dlpS7qEm658e04nzl/XiX35Y39y6hs+DA/CErp9ab3Z9e8br4JljGtU9FU9D2p0/93T+CUOPue4xvE7RgUc1aP694nvuV1R16le93tPan7hHlu1aTw5GZPm3aSj1WOlJQuFnNRxdl//mfu2x7lFi8Jgyur/2OrT/UQ246uwMS4nEl7S3eGydtvfdo1ihnXb1pZmf2xwspu97/t/0P353vf7Tm/+mlZffKTu37t1junjmF4pd2anoT1brvj95n178vE/rVlzb/o4BQAt1fZA3+ux3M58Rr/ucat9u7Q3vU8hcq5i/4uNctq20vqS9U54wtF69+nnuCUPBOvWrsW2l9XOlzbWKVZzyjx+XgutyX/esL7/kxk1S2pYt1W6/d33ZObPnHslvlj35yLdxU/v70szPrc1B/sqrrylx+gMKvvEjvf/Ku1XLLL86oY9nfqAXPvKgnvjYRj4PDsCTmDtUfge4c0LJ3vw67zSnf6df/0uuKefSqzTqnUvd1JfWeSx9UuvePVYzxAuuvfqetl09rn0/+90c9QwAWmveBPnblyZn3Uaw/4Qc+1H5E3+ffxqSKb++U+UJQ7np9MonDE2pX02tNjuhXX2Z5s+tHUbOXdXNE82F86Lf/FIvvXWhzT0CgPbo2qn1RUb15w3XctN1Myqp6x8AACAASURBVPybJPO0Ioc+of7CCNS2lZbUJ5Wm3UOPaKdTWO89rviufUqHn9Wwr0F9VZmGrtVm5N+1vX+OP4fdor40/R7dP7c2O7lope65eKqpsisv/E4jpyfa3KOF7mSnOwDMW10b5FejN0hqsL7tUq9co3X20dg219OQ7pFl/8D1NKQTsns+J9NYWyzvtw7LcU0916tf2DwWMr6T29k9vFvB/hNKam3umKvNTjxJqCV9qfEeG/3c2umD12b1ztIbtPxi44BeuaGHTW5t1uz/jwFMX9c//awVvwB4WMrC4H7C0cb4Yd3wu1e1+cyRhvU+8PE+/WalT98Nrm1YFtNT+F0AdAOeftYhhDBm4oWH7tNfPH2NPnL2qBY7U2/8UrBmzRr9q/FBWZu58Us7zNdfnEA3mTeb3QC3dSuu1cN/tkYvb9yhq0b1mwWtWbNGb370f9f9H3y/tt56/Rz3EABao+tH5MBM/Z8f26Cr1y7XPy67UYE/jso59gstvzqh1R/aoEXr79a/Ltqg+294vx4L3NrprgLAjBHkmNe+uXWNvrhxpR4ZvkkvrfxznbpwRSuXLtbW5dfL+otbGIkD8DyCHPPeHauu0w8/s75xQQDwINbIAQDwMIIcAAAPI8gBAPAwghwAAA9r62Y3bssIAEB7tTXIuasT5s5J/nAEsCAxtQ4AgIcR5AAAeBhBDgCAhxHkAAB4GEEOAICHEeQAAHgYQQ4AgIcR5AAAeBhBDgCAhxHkLZCJB2QYhgwjolTlsUiqbl0AAGajrbdobWT5gaOSpInspG5cluvK25He4nnDGsn9r2FIkiajd5fVX/XUqCTp3KWsli3J/U1y8eG72tvppmR0aDCd+zIxpFR/UMHOdggAME8xIm8Ln7b3+XNfhncS4gCAtulYkC8/cFQT2UlNZCclSWcmsjozkS2Owt0cx5HjOGXnDGtE5y5lde5SVpKKbVWr3wm+6HCu3/3EOACgfToW5IUAl+o/Jc2JbS6+milT94lrmbgChpFfz869ypawU5Gyc4ZhKBDPTGkmFXGVCcRlV7lUsUwgrrIWptuHyvqNNKpf5T0Wrl/2vqrWzygeMEpr/+628uVK+wVq9H227w8AUGbBTK1n4gEZZkzpGudTEUNGKDHleDpmlm1YS0UMlRVLxxSK1Wp1en3IxANT+5COyWwy7BrWT0Wqvse60jGZ1TbsJULlbaVj2hUIyHT/LCrqzvb9AQCm6miQu0fQtUbT6595tfiauZQeLwSM35Kdn6p3bEs9kpSJa38hX8LJ4lS+beXXuRP7Fc/UKmerUGy2fdiVPx9O5s85SYUlKR3T4402vzdRPzM+Wui8koXrO44Ks//B/tIxx3HkJMP59z+kqZcvtJG/hqR0WrLsip/J6HgupGf7/gAAVXU0yA1rZMqr0rGH7pQcJ/dy1anVzm3//ZdTL5QaUi5//bIGovIVjvuiigYl2WP5UbJf1p7SmrZve59yeZTWmF2rnGtjWz1N90FKhApTzyEV/m4YHW8wZm2ivm9j4RMBCYWamdYvjp5HNeXyxU18pnoKbz+8V1GfJPm0sbei/GzfHwCgqq6YWq+3rm1YIzp+/rKOn788pU61UfxvL1xpSx/nhWB/2QhayoVqIJ4pn3YvzBgkw1WbAQB0j64I8rYze4oj69gu13psJq54quK8a443c2iwOALvMd0NpjV4qNCKa8q8JX1wTz2XXsNRX5VGq7XfqH5Q/RVLAunBQ0oVpt39luzh3IxBamia6+kt6R8AYDq6Zo384I4NOrhjQ9N13NPpdXeqS5Ivqr3FhdyYzMLUsRnTWOX5RKg4tVzcuFWYMg7uKYVfzJwyPdyqPpSmnqexs7uJ+mU7yg1TxSX7vu0KFubCXX3bP9rU4n9zZvv+AABVdSzIK8N3x4YV2rFhRdnxhh8nm4Zgf/2p4lrnw0n3Z8F9ig5XbG4LJ0ub4lrQh2bbalV9v2XnRsPBfpV1LZzU8N7Khe7Zme37AwBMZThOfhdZKxvNb0ZrVQhXvUmMq+3K8626LrzkpAzrrCT++wNYWBbGGvm8kFKk8mYthRcPZgGABcuzQd4tt2KdO4VNalVe3AYWABYszwY506cAAHg4yAEAQIefR96sdSuulaSym8LUmlovlAUAYCHwRJAf293T6S4AANCVmFoHAMDDCHIAADyMIAcAwMMIcgAAPIwgBwDAwwhyAAA8jCAHAMDDCHIAADyMIO+QTDzQtieXpSL5p6IF4sq0vHUAQDfp6J3dlh84KkmayE7qxmW5rrwd6S2eL9yG1TAMSdJk9O6y+queGpUknbuU1bIlub9JLj58V3s73RIZHRpM575MDCnVHxTPLwMAzAQj8lbJxBUwDBlGRI3H2D5t7/PnvgzvJMQBADPWsSBffuCoJrKTmshOSpLOTGR1ZiJb9WEoheduu88Z1ojOXcrq3KWsJBXb6tRzyjOHBpWeRnlfdJhniQMAZq1jQV4IcKn+s8Wd2Obiq5ky1ctlFA8YpTXpVCT3tWsdubhmXWVtubjm7H4Vy+TaNmOFGE8oVDyfUiRfPhCP577O16u5jl0c2ZdeZcvo7r4X2268El7/PQAAvGrhTa0nQjJCidL36Zh2BQKuIM4dMxttQmumTFnxmBINymTiARlmrObIPhUxyvtebNuc2aa5ab4HAED36WiQu0fQtUbT6595tfhqjbCSjiPHSSqcP5JOS5btyHFsWfmla42OF0erwX6nOL3vOI6cZL5mYkgp+RQddmQXK+bbH47K576s35Jd7XhRSo8X/pgolHUcObalHknKxLW/kOHhZLEvxesm9qvewLz+ewAAeFVHd603s5597KE7tf7psbp13Mf+5Ppr9OZ//dPaDRY3l5nq8UtKSwrvVdQnST5t7M0fc0tFqo6EpVGNZ6Rg9WQu4+/bXiPAC9cYyo/Y/bIGXGHvi+b6lhrLd8sva09pXd23vU/+WFpppTVmSzUv0oL3AADoPl0xtV5v/duwRnT8/GUdP395Sp1qo/jfXrjS2s65A7AwUi6MZr1iPrwHAEBVXRHk3SwznvusuvyW7Py0eGqo3mp3boQ7bWaPcpPkacV2uTahZeKKpyrOP16aDC/tlverx2zVewAAeEXXrJEf3LFBB3dsaLqOYY0UX/VG9LPl25i/QU06JjO/23v/qL92OaUVM2ewI9wX1d7ion3pWoYZ01jl+USouPO8uEmvuDww8/cAAPCejgV5Zfju2LBCOzasKDve6GNncyLYr7JZ6HBSw3t7G5eb0aXqT3nXOh9ONvg8erPvAQDgOYbjOE7LG81vPmtVCFe9SYyr7crzHQ9/dMBJGdZZSfz3B7CwsEYOAICHeTbIO3UrVgAAuolng5zpUwAAPBzkAACgw3d2a9a6FddKUtlNYWpNrRfKAgCwEHgiyI/t7ul0FwAA6EpMrQMA4GEEOQAAHkaQAwDgYQQ5AAAeRpADAOBhBDkAAB7W1o+fcRtVAADaq61Bzm1UMXdKTz8DgIWEqXUAADyMIAcAwMMIcgAAPIwgBwDAwwhyAAA8jCAHAMDDCHIAADyMIAcAwMPaekMYoBu8ar+u/+enJ3TkbFbnnWu0atk1Cty+Qo/+b3+qlUsXd7p7ADArHQ1y9y1c3XeBGzk9IUna8txrZeWPPLBJm1cvm1J3sWFo2RJDkvTHK5PcUQ6SpIsXL+r/PXhY8RPX6E8u/lY3T/xOt2Uv6vLipfrxm7fo+WMTevKTG/SfN63udFcBYMY6FuSGNaJdPaskSQNj5bfWLAT4ua9+RCuXLi4L9kJIu8M6O+nowpVJSdLKJ19pe9/hDfue/zf9j99dr//05r9p5eV3ys6te/eYLp75hf726k5N6G59cdMNHeolAMwOa+TTkIkHZATiynS6I2jowed+osTpD+iTb/zLlBAvWH51Qv/L+A/03358XKcuXJnjHgJAa3RsRH5sd4/WrbhW0tQReeXUeKFcLY5KI3Gm1SFJ7164qHXvvqn3X3m3brlrr74n/5Vj2vez1XryE7fPUe8AoHU6NiJvFM5uNzz5im548hU9unVN2XHDGpFhjejWxC/1xLbb9MS226rWT0UMGZFU9eOuEXYmHpBhGKVXsU5G8YAhM5aW0jGZRrP10Cmvnp/UzRO/a6rsot/8Ui+9daHNPQKA9lgQU+vBnWEpMaTyeE1pKCGF90blUy7UzVivko4jx3HkOLas0VA+lH2KDjuyLb/kt2Q7jpzhZuqhU04uWqmbL55qquzKC78r7sMAAK/p6iB/572rMqwRRbesVnTLan2zYkTuxDbLiW3W21/p1dcPv6mvH35TscNvTm0ouEeWP6H9cdfqdmpICb+lPUFJmbj2J6Rwsl/BYgGfogOW/In9itdaFJ9pPbTdB6/N6p2lzW1gW7mhZ1ozRADQTboyyEdOT2jk9IRuePIV/fAz62Vtu01WjWnzgkKox4+crnLWp+19fqUHDxWnw1NDCfn7tssnSfaY0gprZ7Cy2kb1Kq0xu8ZFZ1oPbffRm6/T75fd0lTZ36/yaeut17e5RwDQHl0Z5Fuee01bnntNRx7YpJ0f/kDZuXfeu1ocqbsVwr8W3/Y++dODOpRRfiQd1t6orx3dRxf4vz51l47ffJeuGvVv+HL9jTfrOxfW6MxEVsfPX56j3gFA63RlkLeFL6q94bQGD2WUOTSodHhnaTrc7JFfCQ1VLmtnxjUqv3rMGm3OtB7abt2Ka/Xwn63Ryxt31AzzNWvW6Lz/Af3N5tXa/aerdP/3M3rohZMEOgBPMRzHcVreaH60XO+jYLHDb1adBj/ywKYpd3RzK7T54Asnp3xsrVC/cPe3KVIRGfulsEbVMzAs94A8FTEUSoSVdArr3RnFA6ZivUk5/cFS/ZBcZZqshzlwUoaV+/fg/nf3zZdO6R+P/EaBP47KOfYLLb86odUf2qBF6+/WC4s26P4Pvl+PBW4tln927Ky+9fLv9am179c37r1Za66/Zs7fCQBMR8eCvBUKI6fU8fP66l03NVEjH7KyZOd3nZedjQdyHzHL81u2hsum3/P108rtXs+30bge2q96kEvSr85e0iPDb+mlUxd16sIVrVy6WFtvvV6P/sUtVdfGL2Un9dQrZxQ/clpf3HSDvnHvzdyTHUDX8nSQAyW1g3ymLmUnZR05rf5XzmhXzyrFtqwm0AF0nYWzRg5M03VLFum/ffQWHXlgkyTpvudtWUdO61J2ssM9A4ASghxoYOXSxfrm1jV68S8/rBPnL+vOb/9KTx19u9PdAgBJBDnQtDXXX6Mntt2mn37B1C/evqT1T4/p2SobLgFgLnX0eeSAF625/ho9+Ynbdfz8Ze176ZS+9fLv9Vjg1in3PICm3O8B6Abzbf8WI3JghtatuFbPfPJD+uGn12lg7Ky2PPea/uX4+U53C8ACw4gcmKU7Vl2nH35mvUZOT+iR4bf0rZd/r0e3rtHHb39fp7vWNZzYqk53ASh+smW+YUQOtMjm1cuU2rlBj25do30vnVJw6Nc8VQ1A2xHkQIt9/Pb36cXP+xTdfJMeeuGkPvvPx/Srs5c63S0A8xRBDrTJp9at0JEHNmlXzyp99kfHuY87gLYgyIE22/nhD+jVL9+hbbe/T/d/P6Ov/vsbOnXhSqe7BWCeIMiBOfJgzyod292ju2+6Tvc9b+vrh98k0AHMGkEOzLGv3HWTXv3yHVq74lrd/0+v65svndI7713tdLcAeFSbP352sr3NAx513ZJFim1ZrQd7Vsk6clpbnntNkY/cqNiW1bpuCX9fz5XlB85pIju750YVPlp37Pyk1q/gvx3mXluDfL5+Zg9olcJ93GNbVutbL/9ed377V4puWa2vfORGAr2Nlh84J0mzDnFJrqfu8Vl5dAa/KYAusHLpYj0WuFU//YKpE+cva8t3xrmPO6YlE/+cjMDTynS6I5hzbRmRz7f72AJzpfBglmj+Pu77XjqlxwK36oubbuh01+aVVozEgW7BLVqBLlS4j/vx85fLbvvKg1la66+33l73/D+89EbDcoUyM5GJf07m4KdlD++Wb8attE+39w85TK0DXWzdimv13eBaPfPJD2lg7Kzue97Wj9/4Y6e7BaCLEOSAB2xevUw//Mx6PfGxP9G+l07p/u9n9NJbFzrdrQXjQnYWHw/MPK2AsVZG4RV4WhkdVzywVmbs51J6n8yK45FURRPxz8mIvFh2LBUpb9Oudun450pljM8pnimvH4gfLy9TXGOv1b/G7WLuEeSAh2y99Xq9+HmfHt26Rl//j9/qs/98jAezzIHrlyyeYc0XFTH3qTd5Qo6TeyX7JGmdosMnZFv3SP5HZTsn5Exj+joVWatQ4ktK5tt0BqT9sZ9PKWMOfjrXtnNCTnKTYuYjcv+NkI5t0y79Xb5vzyqc3icz8mLd/jXTLuYWa+SAB3389vfpp18wNfT6H/TQCyd1x6rr9FjgVq1bcW2nu+Ypza5vz3gdPHNMo7pHfWbpUDC6e2ZtFb2ooYQUTj6mYOGQb7cGrB/JHCxc92ntT9wjy3b9cRCMyPJv01DqMQULFcPPaji6Lv/N/dpj3aPE4DFldH/1PyqabRdzihE54GE7P/wBHXlgk/7zhhW6//sZHszSbXy7tTf8c8XMta37aFjqBSX0Je2sF5q2rbTy1y1OgW9TLC2Njh8vFvP3rC/v7sZNUtquOk0/nXYxtxiRA/PAFzfdoC9uukHPjp1VcOjX+tTa9+sb996sNddf0+mudbVGN3Fp5mYvjW58Few/Iac/PyVt7JPCz8rpv3/6nZ22LynpuEbtXd8uZooROTCPPNizSke+tFFrV1yr+5639cjwW9zHvQXevjQ56zaC/Sfk2I/Kn/j7hpvDKke39phr/ds05ddrGq9oY2qZ72io1QvX7WoXs0KQA/NM4T7ur375Dn3g2kXa8txrPJilUzJPKxI/XvretpV2nZ46lb1O2/vuUTrWX9o8lnpEoYS70ifU5/+5YrtcU/VTyuzW3rCUCLk3oR1XPDK96f0p/WtRu2gtghyYp65bskj/7aO36MgDmyRJ9z1vyzpyWpeysx9det0iw9Aiw2i6/E3XzfxX5WhsW2k9OfSaLPsHihZ2igUjsvzfUcj18S5f9O9Kx4y1MoY+mds9XrRO0eHDspT/WFjVMrkZgGTY1Y6xTYM9n5jejV2q9K8l7aKlDMdxuFchsACcunBF33r59xp6/Q/6xr036yt33dT2axrWiKTufaBIKx7s1K3vDVOV9jzMr9uIMyIHFojCfdx/+gVTv3j7ktY/PcaDWYB5gF3rwAKz5vpr9OQnbtfx/INZvvXy7/VY4NYFeR93RtOYDxiRAwtU4cEsP/z0Og2MndWW517Tvxw/3+luAZgmghxY4O5YdZ1++Jn1euaTH1J85G3d//0MD2YBPIQgByAp92CW1M4NenTrGu176ZSCQ7/mPu6ABxDkAMp8/Pb36cXP+xTdfJMeeuGkPvvPx/Srs5c63S0ANRDkAKr61LoVOvLAJu3qWaXP/ug493EHuhRBDqCunR/+gF798h3advv7dP/3M/rqv7+hUxeudLpbAPIIcgBNebBnlY7t7tHdN12n+5639fXDbxLoQBfgzm4Apu1SdlJPvXJG/a+c0Rc2rlRsy2qtXLp4SrnCnd2ATnNiq+btnd24IQyAaSs8mOXBnlWyjpzWludeU+QjNyq2ZbWuWzJ1om++/eKEF53sdAfahql1ADO2culifXPrGh15YJP+cHlSd377VzyYBZhjBDmAWVu5dLEeC9yqn37B1Inzl/XZHx3vdJeABYOpdQAtU3gwC4C5w4gcAAAPI8gBAPAwghwAAA8jyAEA8DCCHAAADyPIAQDwMIIcADooEw/IMAwZkVTL205FjFzbgbgyLW8d3YLPkQPouOUHjkqSJrKTunFZ7tfS25He4vnCPdsNw5AkTUbvLqu/6qlRSdK5S1kty98i9uLDd7W30y2R0aHBdO7LxJBS/UEFO9sheBAjcgBopUxcAcOQYUTUeIzt0/Y+f+7L8E5CHDNCkAPoqOUHjmoiO6mJ/P3Zz0xkdWYiW/XJaY7jyHGcsnOGNaJzl7I6dykrScW2OvXktcyhQaWnUd4XHc69r35iHDNDkAPoqAnXA1bqPSXNiW0uvpopU71cRvGAUVqTTkVyX7vWkYtr1lXWlotrzu5XsUyubTNWiPGEQsXzKUXy5QPxeO7rfL2a69jFkX3pVbaM7u57se3GK+H13wO8iCAHsDAlQjJCidL36Zh2BQKuIM4dMxttQmumTFnxmBINymTiARlmrObIPhUxyvtebNuc2aa5ab4HdBeCHEDHuUfQtUbT6595tfhqjbCSjiPHSSqcP5JOS5btyHFsWfmla42OF0erwX6nOL3vOI6cZL5mYkgp+RQddmQXK+bbH47K576s35Jd7XhRSo8X/pgolHUcObalHknKxLW/kOHhZLEvxesm9qvewLz+e4AXsWsdQMc1s5597KE7tf7psbp13Mf+5Ppr9OZ//dPaDRY3l5nq8UtKSwrvVdQnST5t7M0fc0tFqo6EpVGNZ6Rg9WQu4+/bXiPAC9cYyo/Y/bIGXGHvi+b6lhrLd8sva09pXd23vU/+WFpppTVmSzUv0oL3gO7CiBxA16i3/m1YIzp+/rKOn788pU61UfxvL1xpbefcAVgYKRdGs14xH94DpiDIAaAJmfHcZ9Xlt2Tnp8VTQ/VWu3Mj3Gkze5SbJE8rtsu1CS0TVzxVcf7x0mR4abe8Xz1mq94DvIAgB9Bx7hH1wR0bdHDHhqbrGNZI8VVvRD9bvo35G9SkYzLzu733j/prl1NaMXMGO8J9Ue0tLtqXrmWYMY1Vnk+EijvPi5v0issDM38P8BaCHEBHVYbvjg0rtGPDirLjjT52NieC/SqbhQ4nNby3t3G5GV2q/pR3rfPhZIPPozf7HuAphuM4Tqc7AWB+Kmw+a1UIV71JjKvtyvMdD390kZMyrLOS5t+/C0bkAAB4GEEOwNM6dStWoFsQ5AA8bb5NkwLTRZADAOBh3NkNgGesW3GtJJXdFKbW1HqhLDDfEeQAPOPY7p5OdwHoOkytAwDgYQQ5AAAeRpADAOBhBDkAAB5GkAMA4GEEOQAAHsbHzwDMgZOd7gAwbxHkANqu8NQpoFOc2KpOd6FtCHIAbcf90NF583dWiDVyAAA8jCAHAMDDCHIAADyMIAcAwMMIcgAAPIwgBwDAwwhyAAA8jCAHAMDDCHIAADyMIAcAwMO4RSuAjlt+4KgkaSI7qRuX5X4tvR3pLZ43rJHc/xqGJGkyendZ/VVPjUqSzl3KatmS3Pjk4sN3tbfTQJdgRA4AgIcR5AA6avmBo5rITmoiOylJOjOR1ZmJbHEU7uY4jhzHKTtnWCM6dymrc5eyklRsq1p9YD4iyAF0VCHApfpPSXNim4uvZsrUKpeKGArEM8rEAzIMI/cKxJWpKFd23jBkRFJT2jEiqfJy+TLldSNK1W07oHjlxYFpIMgBLDjpmKldGsiP8JMKp2MyXUGdihgyY71K5mcAHMeWNRqaEuZKhMrbSYRkGIbrmC3Ln1Cosu3BPtmFtpO9iplTwx5oFkEOoOPcI+hao+n1z7xafM1aOKnhqC//TVB7LL80Op4blWfi2p+Qwsl+BYsVfIoOWPIn9pePnv2WBlzt7AxLUlh7i8d82t5X2bZf1kBUhRIK7pHlT2iIJMcMsWsdQMc1s5597KE7G5b/2amLxa8XGYY+esuyquX8PWbZ976NvVJ6TLYknz2mtMLaG6yo5NuoXqU1ZkvFFO7dWApkSWaPX/L3yCyrVtp9L3tMaaWVNg3FKvs0npGCPgHTRZAD6BpObHPNkHYfX7LIqFpm6/fGp7TXfcJKOu7RPjA7TK0DgJvZI7+qTHVnxjUqvyoG861pG5gFghxAx7nXxQ/u2KCDOzbULT/ywB3Fr7PR6qPud782wxvC+KLaG5YSIfcGtIziu2JKh/cqOpvZ71ptR6bumgeaxdQ6gI6qnP7esWHFlOP1psgXG62fQg/2O7J7AjKN0hS+37LlzCrFS20nZShkJMrajs66ZSxUhuM4Tqc7AWB+Kqxrd+daNRaWkzKss5Lm379HptYBAPAwghwAAA8jyAEA8DCCHAAADyPIAQDwMIIcAAAPI8gBAPAwghwAAA8jyAEA8DCCHAAADyPIAQDwMIIcAAAPI8gBAPAwghwAAA/jeeQAOm75gaOSpInspG5clvu19Hakt3i+8DhUI/988Mno3WX1Vz01Kkk6dymrZUty45OLD9/V3k4DXYIROQAAHkaQA+io5QeOaiI7qYnspCTpzERWZyayxVG4m+M4chyn7JxhjejcpazOXcpKUrGtavWB+YggB9BRhQCXJCe2uWY5J7a5+GqmTL1ySkVkGEbpFYgrkz+ViQfKz0VSVaqX103FA2VtpCKGAvFMeVuu8wWNrpWK5I6VlcuXKa8bUWUvy88HFK+8OOYNghzAgpKJB2SERmXZTn6Eb8vKL8enIobMWK+SjuvcaKgsYFMRQ6FEuFRmQNofS0+5TjpmapcG8u0kFU7HZFa00+hakqREqLydREiGYbiO2bL8CYUq2x7sk11oO9mrmDk17DFPOADQJnriiKMnjjQs0+i4njjirHt6rPiqPNfMdXKSTlhywskqp2zL8Vc7Z1uOX37HsmvXty2/I7/l2IWrhOWoolBZmaaulW/H1W7xmMJOsqxaZdulNvIlHMtf430vGCem8e/EW9i1DqDjmlnPPvbQnQ3L/+zUxeLXiwxDH71lWXmB1JASCisZrFLZHlNaYe2tPOfbqF6lNWZLsuvUr+DvMSua6ZXSY7Il+Zq5li9/rHdj8UtJMnv8kr9HZlm10g7/3PtIK20ailX2aTwjBX3C/EKQA+gaTmxzzZB2H1+yyKhaZuv3xqe0tzCFlXT61cTfG5gHWCMHsHCYPfIroaFqi8W1zmXGNSq/esxClbmjjQAABjlJREFUmVGNV2wcs8emrpHPqB/ua81UvfeIeYkgB9Bx7l3mB3ds0MEdG+qWH3ngjuLX2Wj1Ufe7X6tyQxhfVHvDUiLk3viVUTwSV6bWuV0xpcN7FfVJ8m1Xnz+t2C7XDvRURKFEU2+zcT/c15qpeu9xFs2iezG1DqCjKqe/d2xYMeV4vSnyxcb0ptCD/Y7snoBMozQ977dsRSX5apxzisnqU3TYlgKmTCO/Ah1OyrZGZQ423YW6/XBmleKltpMyFDJKf2EU3iPmH8NxHKfTnQAwPxXWtef7WnUmHsh93Gs4KraSdauTMqyzkubfv0em1gFgVjI6NJiWv287IY6OIMgBoGkZxQPlN1bJxHcplvarbzsxjs5gjRwAmubT9r7RsnVtPuqFTiPIAWAafNFhOewaQxdhah0AAA8jyAEA8DCCHAAADyPIAQDwMIIcAAAPI8gBAPAwghwAAA8jyAEA8DCCHAAADyPIAQDwMIIcADwoEw/ICMSVyX+fihhl39eTihgyIqnGBeEJ3GsdQMctP3BUkjSRndSNy3K/lt6O9BbPF55rbuQfVjIZvbus/qqnRiVJ5y5ltWxJbnxy8eG72ttpoEsQ5AAwDwT7HTmd7gQ6gql1AB21/MBRTWQnNZGdlCSdmcjqzES2OAp3cxxHjuOUnTOsEZ27lNW5S1lJKrZVrT4wHxHkADqqEOCS5MQ21yznxDYXX82UqVdOqYgMwyi9XGvLmXig/FzFWnJxbbrYRkSp3AkFarTZTLuNpCLlbdvVzs903buy74X3lDupeMBQZdOZeKDsejV/Lqp87wHFy38wda6NZhDkABaUTDwgIzQqy3byI3xbVn45PhUxZMZ6lXRc50ZDUwMyHZM5tDNfpl9BpRQxY+pNOsVZg2RfqXjT7daQihgKJcKl+gPS/li6RT8RKXNoTH22q+/hhEIz+aNgys8l/94H+2QX+p7sVcx0hXyrrr2AEeQAOs49gq41ml7/zKvF18yl9HgsrXByWFFf4ZhP0f6ofJm49iekcDIXQMVzA5b8if3lo0iFlewvlVJmXKPyq8csHQpGo/JJ0rTard7nocr6vqgGLP/03nodvmi/6+chBXeGpcTQDEbGlT+XuPYn/LIG8j8LSQrukeVPaCjV6msvXGx2A9BxzaxnH3vozoblf3bqYvHrRYahj96yrLxAakgJhZUMaip7TGmFtbfynG+jepXWmC0V08jfI7OsTFR7wzGFTEMxvyV72BVc02m3mnp9bqFMPCCzbJQfnn4jlT8Xe0xppZU2DcUqi45npKCvdddewBiRA+ga9da1DWuk+FqyyKhaZuv3xouvP//ua+3qZlXB/vzUcG9M5gzWwDsnpYhROf3dyiB1LQm4XsNR3xxce2EgyAEsHGaP/CpN6zZ1rsq0eT3BfkeO7Zo2n227Zo/8GtV4xRS8PdaiNfLCiN81i5AZH51SbLSiA01dv97PexrXRn0EOYCOc6+LH9yxQQd3bKhbfuSBO4pfZ6PVR/Hvfq3KDWF8Ue0NS4lQxa7sSFyZWud2xZQO7y1bx50iE1fEvdhtj6kYc7NpV5J829XnTyu2y7ULPhVRKNGgXrMqwzYT166yaW6ftvf5lY49Xup/s9ev9/Nu6tpoBmvkADqqcjp9x4YVU47Xm3JfbNQ/XynY78juCcg0StPzfstWVJKvxjmnYdpKozFTRnEh2C/LLm2oq3XNZtqVfIoO21LAlFm4QDgp2xqVOdhE9YbNRzVgDcoMGUrkOiY7GZYZchcZkDVoKmQkyq8/1rj5YL+jpIxSXZV+3s1cG40ZjuNwMyAAbVHYlDadoAXa46QM66yk+ffvkal1AOio3IYvo9prRhvmWt0euh1T6wDQUUH1O476u7Y9dDtG5AAAeBhBDgCAhxHkAAB4GEEOAICHEeQAAHgYQQ4AgIcR5AAAeBhBDgCAhxHkAAB4GEEOAICHcYtWAG1XeHgKgNZjRA4AgIfxGFMAADyMETkAAB5GkAMA4GEEOQAAHkaQAwDgYQQ5AAAeRpADAOBhBDkAAB5GkAMA4GEEOQAAHkaQAwDgYQQ5AAAeRpADAOBhBDkAAB5GkAMA4GEEOQAAHkaQAwDgYQQ5AAAeRpADAOBhBDkAAB72/wNlFY5Sni8m1gAAAABJRU5ErkJggg==;" vertex="1" parent="1">
          <mxGeometry x="550" y="200" width="498" height="506" as="geometry" />
        </mxCell>
        <mxCell id="iAH6zQvwI0jVcYzAp-XG-3" value="" style="shape=image;verticalLabelPosition=bottom;labelBackgroundColor=default;verticalAlign=top;aspect=fixed;imageAspect=0;image=data:image/png,iVBORw0KGgoAAAANSUhEUgAAA/UAAAGnCAYAAAD2YncsAAAgAElEQVR4nOzdf3QT150//Lcass/yJME0bJYGswSIBcHQbI2L6VdqnjQJ5ofwl017wGFZwNqnqRyHJNYJpaADLPBNOCal9CsnBcdKcioDzZc6nEC7RoaYpOGweIOp493UmAUZG1igS9PwmKRddjdk9fwxGv0YzUgz0oylkd6vc3wOSHeuPhrdO3fuzL13LENDQyGEeTwe/Pl3/heISJvfvf13aGhoyHYYRKbk8XhYfyjvsZwTGY/1jAqNWOa/lO1AiIiIiIiIiCg97NQTERERERERmRQ79UREREREREQmxU49ERERERERkUmxU09ERERERERkUiOyHQAREZFaN2+F0PqbIXRe+gOufPo5AKB41O2wTbgT1V8djZEjLFmOkIiIiGh4sVNPRESm8E+/vYkfHv8drv3h87jX+z/5T/R/8p84EvwUP3joz/G1e0dmKUIiIiKi4cdOPRER5bx/+u1NfP/wVYRCochrf37H7RjxJeDqZ0In/9ofPsf3D1/Fj+aPY8eeTGf0TwcBAEN/OwkA8Jvr/4WHfnEl8v7xvyrGV+/+k0i62ywW/OltwB9vhSLbEBFRYdLUqd/adwW3/juEkSNuww8euBcAsKX3svCmxYJN04sjaV8681v8xxdfYMSXLFhfWiyXHVHB+MruC/iPL0K4+09vw8BfTwAQPYGzWCz4/5wTI2knvnkJQ//5Bf70Ngv+beVEmdyICsvNWyH88Pjv4jr0AND/KXDu+w/i6/+7O/JaKCSkfeM7EzgUn0xj9E8H8dcld+L/9P8h8tpDv7iCi39zH4r+5EuRDv7Q306KdOBv/XcI/34rhAk/u5itsIlMh+djlK9Ud+rFDj0A3Lz1Bbb0XsamGeOjCUKhyGuRjj6ERichLVEO2tJ3BfjvUPJEX7Jgk8aLVGIDAgDX/+MLjP7pYNxdlVAoFHlNbFgA4D++CCWkJcpVo1suqKo/QzUTNefd+puhhCH3yVz7w+do/c0Qasq+rPmziJIxqpx/tOQvMOHOEXGd+thj/4Q7E0/XQgAm/Owi2wjKO0bVM56PUa7So8yrXv1e7NDLdc43zRif9HV26MkMNpUWA19KcmcvjQ49gEgDItcYxN51kXudDQiZxVDNxJT1J50OPQCcuPiH1IkkOi9p34YoFaPKuVynPdZ9P7uIdTEXqUb/dBBT9/0rGmaP0fxZRLnOqHrG8zHKVXqUeU2PtBM759JOeuO5f0PjuX/TkhVRTlLs2KfZoReJjYG0UXhw/2U8uP+y3CZEpqPYKGXQoQeic+a1EFfGJ9KbUeVczo3/+m+M/ukgniodhXVfGx2N4W8nYWDZBHhOfoJ1Jz/R9TOJcoFR9YznY5SrMi3zmjr1W3ovR/5i1U/5ChCe6xj7npj2x//yWy0fM0wG8EH9PdhSuRrBuNffRVv9PdhSL32dCkVCxz7DDj0g3FUR/2J9tHg8PlqcOJLl1x//J3798X/iw9//V0afmx864J47GqPnutGR7VAopYRGyYCOzp+O+BI+/eJ2/HP9dF3zFQygae5ojB7N8kbKhqOc/+b6f+G+n13Ezx4bi20Kd+SH/nYSXu37VNfPpXygdBxLtz3NTjtsRD0z//kYz4nS0wH36NEYPbcJA9kOJYlMyrymTj0gP/x+S+9lDH3+ReT/IffXEHJ/LfL/z259kbBNzrqa7QAoF0Q69jp06EVyQ7fEhmWE5MrcnLarmNN2FY/+/ZWEbQpOLh99SVakUdKpo1M86nYAwP91mwWffnE7/uHZMpz7/oP4y8bTcPg+SroNkVH0LudSD/3iCo7/VTEWTvi/I6+Jd+5Fv7meKx0NMoV029MstsNG1DNTn4/xnCjvpVvmNa1+L3bol973Z9h38feyaULur8Hi/aeEf5vGuMdQ1fgxqrIdB2WdXp15INqA/J85X8FfH02cqvIPfyXUrU+ckzDGHz1hu7Jiom4x6KqjCe7tHmDNELyVBn/W5Ep43xmC1+CPIX3p2cmxTbgTY+74E2yZNwl/duftWNJyGoPX/wOjbgN+90flbbJuOOsJZYVe5XzdyU8id9xH/3QQx/9KaH9iH2kHCG3JX5fcGdexF9MSpZSsPU12vMpyO6xne2L687F0f0M171POSKfMq+7Ux96hn3rXnybMr5cOySciQewV4QV/MVJxPhcA3GaRfz3XDPQfgL8LcGY7ECoI1V8djbVHfotnDgTR//ubKdOPvfN2VH91dMp0RmM9IbW2zR6TMMReqS1oeugeeMq+jI7L/47vPjBqOMKjAlAIx6t8PB+Lleo3LITfuJBpulOvhsX7T5Gh96a7S09ERDln5AgL/t+ZX8b3D6eeH2WxWPCDh/6cz6invDbhzhHs0BMRUYTmOfVqaOvMDyD49mq8UX8PtlSKfw684X0X16VJr76LD7wOvFEZTftG/Wp80JVkgoncNt7mxLwj3kVb5T3YUq+URnu8KdNppSVfpX0mPTe+Kv+92t6W2bdXm4X86ptxHQMIxuYf93uE84yN8+0k39+o/ZVvBpowN7LYxwA63HOF/48WFk5p6oju/44md/S90XMxt6lDfjrWQDjtXDGtkN7dJEnd4cbo0aMx09MFAPAviaZ3S1dsGehAk3tuXH5z3TKfL34fd4cQs7hNZDGTJIubqI2bTO9r947Ej+aPw9g7lefKj73zdvxo/jh87d6RqTMMl89o/RiNue4UC+joXU+MLL9q619M2rh9MdeNhDC0xGvEcUrr9ypk0uOqZB+75fZxuNzOVSh/HW5h27i3s/07p2w/4vNLKOMdepQc+XoRF6/GOFWXb83HMZn2VNXxyhyLjGWF2uOnkFiHspLGb5jGuZshdUVL3mrqjJ5taB60LbrfqQcQt0hecu+irX4puvsAlM5C+cJp4dfP4NpgP4DHokm7VuON9btxGcD40pUonySk6z60G5fX78bpupP47ncmx2d/tRlv1GzAZQCI2ebaoQ14ZfAcyjV/Mw3xxnz2+IUrMRYABnej+9BSvDL4Ip5trMXdmj9fY76StOXhWLsP7cbYyzuAcWLCAXzw0mwc6YOwnxYKr14b3I3uptnovrQPm9wx3y3iHDrrN6AbK1G+cBrGhvM+sn43fr/1JKZ2zsabh2ZFPvvaod243LQUr8jlZ9T+ymtn8fJcD/xwwuksRSn64Pf74Vnix9m3PsTCQzOxxF+BCqcTTgB9fj+6PEsw8+xbGIqbTDWApqdmwtMFoMIJp1N4ta/PD79nJvyx6e+fCqfTCfT54e8CKiqcKC0V3pp6f2yWTZg70wMhSydKAWEb/xLM7GvAh+/UQVJbAQAd7plY4lf7/TXETXnha/eOxBvfmYDW3wzhxMU/RB51Vzzqdtgm3Inqr45Wd4c+pnyiwgmnUEDR5/dgZt9ZhaGJetcTA8uvlvonSSuEIRxLSs97EZMwzXj1Ok5p/F4U1o+muUvgQQWcTidK0Yc+fxf8niU6HyOz/zsrth8dbsxd4hfyi6nvfr8fXUv8ONDwId6pS7fkdMA9dwn8QuZwOsMVHX3o6+sHkLh/FePU+r3TOo7JUNuuUyLVx09A17IilfI3VPkbG1lXMshbfj/o2IbmSduiW6d+9O23RVbAl96pH337bTJbDOCDcAe5fOtJVFUk2V1Xm8Md+pVY1rID1nHRt6rc76Ktcim6m2ajbfzHqKoQ33kXbTUbcBmzMK8lgG/EbAP3AD6oD3diVdMQb+SzpfHugO1tB15p2oADb1cmXoRISVu+wVb571/lHsB16Z36SS9i2drauH0LrBL206EAgu7HYJWG07cb3QvjO+hVttXYsn43utfPRjdWYlnHjuh2bofwWyXkZ9T+ynNdfvid8Qct70I3Ri/xw79kJvxw4q0hb7SZ8C6Ee/QS+P2H0OGtjG8+Shvw1qt1qIzbxc+hae5MeGLTT66D1wsMNPXB39WF0jVemcVWOuCe6UEXnHjrQ29Mnl481zQXMz0ePNU0L/Hg3bcd27uk26SgNm7KGyNHWFBT9mXUlH05zRzE8lmBhg/fQVwx9A4IZadLYVNd64mG/NL6furqX8fL8vvC6x3AgPQWRTrx6nacSvO4Uuj8HhxwvoUPvZXRk9Lnwieweh4js/07K7UfA03hjkTie15vhxCDZybcJeksHDaApnAnzfnWh/CqabgU2zmt3zuD45iU2uMVJVB//NSzrMhI+Ruq+I2NrCuZ5J1sP+jShuZP26Lb8Pv6qfdi04zxsn/1U+9N3KBrp9CpXrgvRQdZ7JwC5Vt3SDqdAPAYqrauBAB0d74befX62zvQDWB83U/iO/QAgMn4RuM+bXfqNcQrfrZcvHd/ZzXKAVw+1qF5WLm2fAfwySAATMMYme9/97j4/3/DLe3QC69PeXgWgN04K9s4rMQy6R33Ckdkv5Zv3SG5EPAYpi5EQn5G7a/858Rb0qNf5cLI1XnnW17JwawSC50A4MehuOFWk1HnlR4UhdfnfbtCJn1yA03b4Rc/X5Ln5Lo1cALoOnAkcUhTVxdKZbZRpm/cVBjE8lnR8CoS2+jJqHvnLYU7XHqXN2PKr7b6N4D+PgAoRYlMHJMnx/8/vXj1OU6lfVwpeE6sie3QA8DkOqxxAvoeI7P8Oyu0H0KnSz4/oBLet4QI/ensiI6XhY6z8y11nbQkcWr93ukfx0g/Go6fOpYVoxhZVzLKW3E/6NOG5lPbYsjwezWCnbsBzMK8arlh3bHEzulKTK1QSFLhQDl2x90B/uTSKQCzMP0bSrVhEv6sFIDKu/Va4j137FSSeMXPPYdPAA1DyrXmOxljJgHo240366fI3IWX/4xgVwc+6TyH3w+ewTWcwuVk+6d0CsYkvCjGMQt/Nj5xkzETZgE4lcH3ooiKqUgcGXe/sB+7KmSHzd0vvKmQ4QA6Oo6g/9BZnO3rQx+60KX2Sn9MHkcOdAFwYqHs5VExvrM4D8nItIoGPJfW3QE94qZCcf5sF4AKfHueUtsgllGlHPQub3rmp7X+TUZJKYAuP5bMnSpzx0OHeHU5TmVwXCl0svs/VVug1+cM4+8s236InS6l/BC+8OCXH8GWQschP4AKNGhpuBTi1Pq9Mz+OUebUHz/1KytGMbKuZJh3yv2QSRuaX21Lljr1ye4iSw3i931Q6ECKpB10LfmrkUa82I03K3fr8eFp52t1n8S8wdk40rcBb9ZswPjSlZj+N6vwjYSRBgMIep/Bm4fEzvYsjC8Fxk5aibGTzqD70Clp1iqo3fdG7a9CJ3flWMkAOtxPYYlfPApWoKICKC11orS0D36/lrOC8+FRGH4sGe3XsB2A0hKNB0w946bCkOzOSupt9S1vRpRf7fWv0vshGvpmwtPlwZKZHlRUOPHtNc+hLuHs1Ih41f4OGRxXCp3m46ohQRj/O8t+z3B+Chc2BOl2ftM8liSLU/X3zuQ4RnpSd/zUs6wYxci6kmHeivtBjzYpv9qWrN2pz3+xC+nJSXaRQq98J+MbjR9jytV30fnSDnT3CYsKHildiWWN0aHx198Od+gX7sOz7sfi7oZff9uB7rTi1Mqo/UWpDDSFD4rSeZcABprmwp9WrrGLwMhJdnBXx5i4ieTpXd6MLb9a6t9k1L0zhHkDHXj5qe3wdwmLFnkqnHjrneiQ6dyob8YfVygXFOrvXKjf28zUHT9Jf/q2SflR97LcqT+DT64ixbBwNcOvle7mq8lfCy3xTsNUt3ROeSbSz/fucY+hqvExVEXuyO/Gm15HeIG76PD3ZZIOPSBOYzCSUfuL1IkOPXpLOu8S4hA/LcSrraVY6DWyQdM7biosfegfgIa5inqXN6PKb/r1b/LkSnjfqYQ3cvfDjyXuheGFz7Jd34bruELZpffvrGborJq7iMloPZbISfd76/HZpIfkx09RLv9eRtYVI/LWq03Kr7ZFt4XytBEXYDuF0x+kWnogPDdccbE2AF0B4W7ypJJwp1TcJkn+VztwWvXq9zrHmxY98p0Mq1tYeA6HAggCSD69QZx2YCSj9hepk+xAKg4Z0yI8x8zwRer0jpsKg1g+u3DgiMKxfOAIDiQci/Qub0aVXz3q32RUeoXFgeA/BCGbbNe34TquEAB0nT0v82oHDvmN/mS9f2cV+XUcEu7oaR7qLC7GleRYoiEvbd873eMYGU/u+KlnWTGKsXVF/7z1apPyq23JUqc+ZlXzpmfwQZe0kA/gA29zZLVza/WLGA+ge/1qBKWPYsO7aFufuIiduM3lpmfwgXSbq+Ij1LIRL3C9azU+SONgqy3fAVxPiDNGpBMv3in/Bc5J8rz+9jMaH/uXHqP2F6khXqU8AGlbM9D0lOIjcSYLR0H09SeWscrnGlABwL/EjQ6ZIjjQ4UZTxgfP9OImEstnl+cpNCUcysVH20jpXU+MK7/a6t8ABuQSiSInTNmvb8NzXClw4mr1/u0JdaPDvWRYpljo/Tsnz68D7iV+aF7ALCyyMrbnKTQlZD6AJneT6hWztX7v9I5jySVr10mO2uOnvmUlmVS/YfrnbpnVFf3z1q9Nyqe2JYvD74VH0V1bvxtH1s/GkdKVKJ8EAGdw7dApXC59EVPEpONq8e26X+CVpt14s2Y3xpeuxNhwWnERt/KtkmfRR7Y5hSM19+C0ZJvxC1/EvMENGjqtesQLXDu0O/J4Ps005nvuZ7NxZP0sjF84DWMREytmofxvaiOjGr7xNytxZP1uHKlx4HQ47bXB3bjctxLz6oAjTQYPwTdqf5EKk1G3xgnPEj88M+figLMUpQD6+vzo6nKioQHwyB0d758aOaGYe7YUpejD1IXvoK4SwOQ6vNpwADM9fiyZ6UdFhROl4alKfX5/5LEmWYmbKFI+u+CZORoHIuVTWFinwtmAhj6P5KRA73piYPnVWP+ObJ8Jz5IKVIRjAPrQ5+9CFyrgXFMXvmuSA/VtWI4rha4SzzVUwO/pSvyd0YAGpwcev8Eh6P07K+YXXUjL+dY7Mo+FU0N4FFffEj88S2bCU+GEM5x3n78LXRUNmJdxnArfO63jWArJ2nWSpe74CehaVpJJ9Rumde6mQ13RPW8d26Q8aluyO6e+Yge+2+LAB607cPrQbnSHO9jjS1di2drauPndd38ngE3feBdt4oJvMWn/n7Vyz68Xtnl2fDM6f7Yhuk3pLJRvPYmqCuCD+g2Gxit89i8S4p33N6vwDaXH86WgPt/JmPLwSpzGblw+dCo8KmEWxi98EcuqJY+3q9iBZ7cCB9ZH045f+CKWra3FmA8cOJJeqAZ9L9JdpRcfvgU8tcSPLn8XugBUOBvw1qt1uP/IXHjktplch3feOou5kW0q0LAw9u138GFJE17efkBYOCZ8bK2ocKJhzXP6nCSkEzcRYsunJ1o+KyrgfOtDeCuBprkypUfvemJg+VVf/yZj3redOIBoDECFEMdzkscz5UB9G5bjSoGbXPcOPoQbT3nif+cPvXU47x6eo6rev/PkuncwNK8DbnEhs5j81rya4XPAK71458OFaHp5Ow74/fDH5P3Wq3Wahilr/d5pHceSB5C0XScpDcdPQNeyohxSit9QxbmbUXVF97x1bJPypW2xDA0NhcT/eDwe/Pl3/lc24yEypd+9/XdoaGjIdhhEpuTxeFh/KO+xnBMZj/WMCo1Y5vlIu6wawPWuQXySKtn4x3RcwZ+IiMxjAAMd5yG3dFmc+ytzdFVlIrNgXSNSh3UlF7FTn1WD6Fy/NOVz4MfXnYT1O6wVRESF5zxeXpJ6kbKKhg9Rmd7EYCICwLpGpBbrSi5ipz6rHkNVx8eoynYYRESUoyrhHRqCOZbpITIz1jUidVhXclHWHmlHRERERERERJlhp56IiIiIiIjIpNipJyIiIiIiIjIpduqJiIiIiIiITIqdeiIiIiIiIiKTYqeeiIiIiIiIyKTYqSciIiIiIiIyKUtdXV0o20EQERERERERkTYNDQ2wbOr4ONKp/93bf4empqZsxkRkSkNDQ+j57RfZDoPIlMruvY31h/IeyzmR8VjPqNCU3XsbioqKOPyeiIiIiIiIyKxGKL3x7NuXhzMOIlN65Tvjsx0CEREREREVMN6pJyIiIiIiIjIpduqJiIiIiIiITIqdeiIiIiIiIiKTYqeeiIiIiIiIyKTYqSciIiIiIiIyKXbqiYiIiIiIiEyKnXoiMpmj2DFtDB5Z9iquZDOGZWPwyLLncTJrMRARERERJXlOvVLy8tljMH/cCIwNv3Lts5v4567raPtUYZNRI/FkxSg8eJf4UbfwUdcneP3KLX3yj9122hjUPPA5Wg5cR7dSMk3xGJy++G68XDFSIdCbyb8HmdrJTWOwrhVA9c/xqy1zsh0OaXUp2wFQfhvEyU112NN6CqfDr0wvq8G3tv0YiycobHLpKHas+xHaek6FX5iFKl8TVj80SZ/8Y7fdXYd1DaXYdubHmK3xm6UfM3Dl+KvY17QebT3hF8pqsKruWSxWSK+Nmu+VyX4jIrWuHH8eDU0tOG1IXSfKTxo69SPx5Jy78eBdAD67iY8+A3DX7XjwrpGY+1gxvtJ1Ba9Lb5uNGoX1j92FsQCuXb2JawDGjhuJByvGYv3V69h68mZm+QPAKKEzH70Q8LnyV9AUzzCkD7v22U1c+0z66i38VvmbkJldehV7WsP/bg3g5JY5mZ0Yyzn+KnY0rQfqPsHqh/TOnDBhDla/+QlWZzsOykNHsWPZE0LHtawGVVYAwT609bTg9LwWXPTJ1OlLr+KZeetxGsD06hpMAjDY2oI219cxWP1z/CTuwmEa+QPApUGcfCO2Q1ua2dfUFDNwZfd8LG84BWAWpleXYhL6MNjagp2uFrzv+TV+sjLNk33V3yvN/UZEmpzcNB/rWoW6XlVdCsTUddYzImXqO/WjbsfYu27hnXevxd81D3dkH6y4G+Vxd5ZH4snH7sJYSLcZgao5YzF33ChUjboZfV1z/kD57GLUjAOAW/joXz7DtQfuwoOKX0BjPIanB8aNuh0AcO3MdfkLFpSXrrx/UDiRLZuF0z0t2LP7WcxO94RU6TMGD6KtB6jSNVciMtylfgz2zMKqI4fj7v6uDneC21zP45txd5KPYse89TgNyTZbnsX+ZV/HztYfYf9350Rf15x/zMgizEKVZysmNaxHW0ZfUmPMOIp9DacA1GDbkR9jtvj6d49ix7wn0NbwCk6u1D5qQNP3SmO/EZFGx58XOvRlW7H3zadQLL4u1nXWMyJFGubUf47D0g43AHz6KQ5fBYDbce+omNeLR+JBANf+5RPJNrfQduYmgBGYOy126LnG/MOuXb2Obe9ew+tnktyhTyceo9PHvP9vCXfpKX8N4h8PCyenK7Y9jukATh8+ksW54USUW0qwQtJxBABMeAorqgGgD/8aO/3jeABtAKZ7miTbTMLiuhoAp7DzjaPp5x82vfrn2HvkMFavLEnva8XSGnMk/bPRDj0ATJiDpZ5ZAFrwD8fTC0X990pvvxGRWoPY39QCYBZWbYvp0APC6DhfDYAW7Nk9mJ3wiHKc+k79pzfRnXRe+wh85a7o/8rHjwRwC/8sN5f8yk18BAB33Y5xaeYPAN0nr2DryZu4mnK+vfZ4jE4PAPeO0rikAZnf8VewswdAtQOzJ8zDt8oA9BzEPyqdDF56Fc9MG4NHNh2FMOfzeeH/08bgkWnzsWP30fgLAsefxyPTxoSHqQJtLjHtGOw4rpDnpvlCGunCc5eOYv+m+TGfNwbPLHse+4/LNajxi9ddOf48nlkW3e4Rxe3S+awU0slLbptNR3EFg9i/bAwemSZdEC/JYn2Xwr9T7PefNh87eCJCakyYE99xTXAKFy9G/3fyqHAS/K1vyYz2ecghjNYJ9kfLqcb8AWD2lk/wky1zUKzTvHHNMRtE0/dKY78RkRbncbEHQNnj+B9yde2+KcKNkPPnM/+ocJsf20YLbT6ReenYq4y94zwC994FAJ/jt7Id7s/xb58BD941AvcCuKo5f620xmN0eipU4snsqu8K80UX19Vgp6sFO984isVJF8zrx/5lT2AnZqGquiY8n/QU2hqeQNv5mMX27puCquoaINiCth5hEadJ1vBb98nEs+nr4eGnEsefxzOulvA0gfD8UfShrbUFp1PMYb28ez7WNZzC9Or47RTnvmbwWbrEHTO3FzHbDLY+geXBGo1TGAaxf93XhQs3ZTWoqg6/GmxBW8PX438rorTMiqnLg/jXIACU4i9kO5z3474yAD3ncBmIv/OlKn8jpBFz3Ml8fP29fP7UMMSsRi7EQJTHJpRgEoDTwX5cwRyVxzMZMut5INiCttYnsDwoGfZPZCKZd+pHjcL8cQA+u4kPIx3a24W76p8pLfZ2C78NL4R37ygAye60y+avldZ4jE4f+94IzH2sGHPD/7v22U3885lP0aa0uj6Z2FH8Qyvir0I/5EAVWtCWasG81vV4v/rn2LslpiH7brhhit12wlNYvQW4srsPbT2nMKnux8qLygR/hD09kjmqgNDguVpwWjp/FcDqLUexY9oTaGv4OnZMklmwpmc91vXUYNuRw/HbibE21GH/t2KGsGbyWVJp5aUwtxcAtgwK83t7oI11K7Zte0pyV0+cK2zQwoiU/8QFNuPuYol3tqZgvOxGk/AXVgA9wtDwpHeaZfM3QhoxT3gKHs9BLG94As/c/3N4Vs5BsbhafavcMP5hNGz7jSjfiRf0DuIfLz2VWKcv9WMQ0HiRUkps86XnCT/G0t3zsbxhPRp2z0t/4U2iLMrwOfUjUFUhrPb+0ZlPDbgDbXT+2TQC9+ImProa/bsGYOxdIzG3YizWT+PQ/HxzZfePhHmh8+fFNEZz8M1qIPWc0Bqs2CK5Mh2Zy5nmfNKeU5jk+3HCif7JN4Qr2FUy7wHivDag7ehR6ZsAZmGV9CJBOFaPZxaAU3j//egw9Mw+K/O4I7+JbKdgEha/+XONd+onYfEWaYdeeP1/zM9s7i8VskHsXxcu33VG3EUyOq4M4Z0AACAASURBVP/MFa88jL2eWTjd8ASWTxuDR6Z9PTwi6OdZPAHP/f1GZB5iO3kKO9dJp7ZF61omxDZf7jyheOX3UQWuc0TmlUGnPryq+13AtX+5ZsDq7Ubnn2230HbyOl6P+dt64Aq2dX0mdO4fGIMqmYUByazEBfIS55HO/u5WTAfQ1iQzP1ukcFdr/P2z0g+pbCuWJtz9FofG1uCbSnfGxTmvrQHJPHMkvVtV/K3HJfPhMvwsHeIWh+7Kzu0FELlzoNkgTh5/Ffs3PY8dy+bjmWXRdQ6ItImOGJnu+bUBj3MyOn99RB5pVyZMQaqqrkFVGXC69Qk8syn1RT/9mWO/EZlJ8comrCoD0LMey6eNwTObnseOTfPxyLSvYyeEOq88yieV6ELF8ucJ8VN/iMwmvdvBkeex38JHXZ/gdb2Hihudfw67euVT/PRfRmLdAyPwl8Uj0PZp4Xz3vHbpCN7vAVD9fZnVk+fhW2XrcVppyBkAWEv0vwskm2eqobFAtOHT+HkJ8+H0/Kx08ko1tzcdgzi5qS78jF0AmIXpZcAkaw0mWfvQ1sqOPWkQmfs5C1W+Jqx+SOc70kbkf/x5POJqSXxd+ogqDSIdeukUpMiQ2SfwzP0x62UYEEMco38XooI1CYvf/DX+YlMd9rSewunW8Bo51T+HZwuwb1oLkNaFdiBynoAWrJsmc3wgMjnNnfpx08Zi3QMjgM8+Q0vXp8lXrFdcGE55YTlN+WulNR6j0yu4euUmrj1wF8aOuh0AO/X5QBwajtYn8IjcwnQAxKHpi/N1Lpc4H86ICxQ54srucIc+ofMhdEwye7Y3FZLonWm5NRokFOeYKl+40pS/Fvc9i20+h8wb98fHpzrm6N21bdIpSAgPmW14Am2Hj+DKynCHXW0MaTBsvxFR2CTM3nIYs7dIXr70qk7nELNQVV2a5P10RwIQZZemTr3Y4b529Tp+evJmkjnu4mrvSgvhyS8spz5/rbTGY3R6KizhBfIATC9TGi5/Cqd7gNMNr+Dkyh9ncSE1Natlq7krLuPiOcl8OD0/K5O8VCwipkryzocw1J8oNbHjKNydSrbKs1julcqwfJlXn38aJkzC7AnJLkxqjVm8u5Yqv5i6nzKG9Bi634goqSvvHxTWr5iT7hNkxGNFKb65JZvnWUTGUD+nftQo/O0DI4Cr14VnwydNfAsfXrkFQBhCnqB4JB4EcO3Kv0fz0ZS/VlrjMTp9cuOKR2IsgGuffq7my1GuOx4Q7tBW/xw/efOwwt8n2JbJone6Ca88nSwO8fvIXS3vOYh/vCS/mfA4v9gGOcPPyjhucZv4xfviiNMmVEl2AUK8+0iUwqVX0RAeav6TlB3H6MJSsmU4XObjFufUlL8R0ogZgHjxLVGqTr9Osr7fiApZqvnwaqg4TyAyMdWd+vJpwhz3d87cVJX+6plP8RGAsQ+MQnncgm8j8WTFSAA3cfhMdGi51vy10hqP0ekxahSenDYS4yRxjisOX9yQpieTGsT+JmlnVt7sOeHV2ZMtmKdS8SRhaNngoEJnNVkc4sJ9rudxMuEk+ih2uFoAzMKq78p9H7lVa4Erx5/HulYkLM6X2WdlHre4zemGOuyXbnNJfPSNWrGP44l/58ruOu2PxqOCJEzVUVfmgZgVmxtekZR7sczXYEXMlB6t+RtBW8ziE0JOYecbRxNWxD656YnwRVOHoXfecmG/ERWmQZzcJCxKWeXL7A578vME4VxlPzv8ZFIqh9+Lc8KBv5x2N76ilOzTmwicEe+y38TrXTfxcsVI1DxWjPniI9vGCXehP+q6ju6M8tdKSzzDkR4Y+8DdWPfALVy7+nnkcXZj7wKAW7LpyYTEO72yK81LiM+sT7Zgnlr3TYl0Vp85X4pJ6MN9cw5jsZor3JFnQrdg3bwWTC+rwSQrAEQXeqvyHZaPr6wGVViP5dMOYnp1KSYBQLAFbT0AMAurtkkWqcrks/SIO7LNKeycNwbvS7aZXr0Vq4LrVXbIJ2FxXQ12ulqwc958vB/+/oPBFpzuqcEqD7CTK+BTUtERHe+/8TwuKiW734GlK8W7xcLjGttc4XJfXSOUu/ACU/EnwenkbwQtMQOzt/wcVcEn0Nb6BJa3Ipy+D4Otp4SLbmXClBfj5Mp+I8pzl17FM+sOAtbw+UNM+63LUyYUzxPijz9EZqRxobwRGDtuBMYqvX3XLQRi77RfuY5tXaPgmHYXHgx3bvHZTbR0XVdYAE9j/lppjcfI9J/+Ow5fHYn542K/8y1cu/opfnrmJq7quUAgZY04ByxxKKmcOVjqmYW2Bh0WzJvwFH7iO4dnXC043XpKuMOk4Zy3eOVh/OpbR7Fj3Y/Q1tOC0+FO7fSyGqzYJvcceNEULH3z1/jmpjrsaW0JLww3C9OrH8eK78ovKpX+Z+mTV/HKw9g76VXsa1of3aZsFqp8wgnE/mXr1Qfw0I+x1wc0RPY7ML1aWFBr/PvzsVN9TlTQTkXKj6yyKVi6MqZCP/Rj7PVNEcpw+MQUZTXYplh/NOZvBE0xz8HqN3+Nb+5+BXsOt0RWxEbZLFTN//4wdqRzYL8R5TXhKTmRYwLE9vtZ3dbJiLb5BxPOE1bVPavu5gdRDrJs6vg4JP7nd2//HZqamgAAz77NpzQSpfLKd4TZ00NDQ+j57RdZjiabjmLHtCfQptcjo3JGvn6v3FJ2720FXn+oELCcExmP9YwKTdm9t6GoqEjDQnlERIVG9UJ9RERERETZwU49ERWwo9i/Sbr4VtilV/GMhoX6iIiIiIiyQeOceiKi/HKx9QnsbIWwyJ+4YE5QnGc3C1W+pswWLSQiIiIiMhA79URUwOZgqW8rEF4wp01c5b4s+eJ+RERERES5gp16ItLBHKw+8wlWZzuMNBQ/9BRWP/SUKWMnIiIiIlLs1IurehMRERERERFRbuJCeUREREREREQmNeJ3b/9d3AtDQ0NZCoXI3MruvS3bIRCZFusPFQKWcyLjsZ5Roblx4wYsQ0NDIfEFj8eDXbt2ZTMmIlO6ceMGioqKsh0GkSmx/lAhYDknMh7rGRUascxz+D0RERERERGRSbFTT0RERERERGRS7NQTERERERERmRQ79UREREREREQmxU49ERERERERkUmxU09ERERERERkUuzUExEREREREZkUO/VEREREREREJsVOPVHOa0et3QKLvRbt2Q5FF+2otVhgsTeiX/p6Xn1PIiIiIiLjaezU96O91g67xQJL+M9ur0Vjf7JN2lFrt0fSWyx21LYrbZBG/rHbNtphsaToEGiKZxjSh7dplHxvi70WqTYjk+rvR3tjLez2mN/bYoHFboe9thGN0h++UMpBoXxPopTyoK1VldVwxawYgMY8jYiBiKT62yXnSPbaxHMjIoo3NDQUEv/q6upCygIhlw0hACHYXCGXyxVy2WzC/4GQKyCzSdAbsoXft7mEbaL/l26QRv6hUCgUDIYCLlskX8AVUkqqLZ5hSB8KhUKBmDTi93a5QjabLeQNKn0RyjVDQ0Oq0gW90TIN2EI2W/QPaspwXgiEXEAINm+IRZxCIfX1pzDkQVurxnDEnJTWPDOPgeWcKLWAyxY5RxLOiaPHHdYzokRimVffqQ96QzbIdDQjDbO0gQ+fuCdsEwx5bTKva84/FAq4op0jl9cb/jylEw2N8RieXvLd2LsxtdSNSDBaXm1Jfu9gIOR1edmpp4LCk7AYpm9r1TA+5pS05qlDDCznRCkEXOHzJMn5QTCg+rjDekaFJo1OfUCxIyI0+JLGLlwxbXK3m8VKG3vJTWv+4ddtrkAoGAyFoicJChVeazxGp0/yvch8UjUikTv0rgA7suzUkwRPwmKYva1VYxhiTklrnjrEwHJOlEySm2ChUPLjRgzWMyo0YplXP6e+ZAEWlCRL0Im+YPR/7Qd9AGyoXiiz0YLH4QKA3nPRabQa8weABc0hnGhegJKk26UXj9Hp0d+IF30AXBtQryJ+MrH+RtS4OwGbF8HmBdD+cystLCfmn7gmg11p/ll/o5Cuth3i/FBLbN7S9xtrY/K1o7axXSEGuXUC7KjVNNk0yfdU+o6xCcXY7Y3ol859jdsfid/LrvS9kn025/eREUze1qoxHDGnpDVPI2IgohhB9HUCsFVD7tAAaylsADozrWhqzieITGiEflnZUGoV/92Pc70AMANTZBtBK0qFmokgoLKTE5u/VlrjMTo90H+oFZ0AXI8vSPdLkUlEfusN9Wl06FNor4Xd4UMnAJvNBdcMAOiFz+dDp8OHVm8QJxSuGrXXWuHwKWV8Do12B9ywweVyYQZ60evrhM/tgK8vgFBzbLntR2ONFe5OADYXXC7h1d5eH3xuq0x6jfobYbe6he/ocgkn/OHvOCPYLHMA6cN2uxs+uOByzcCMcFq3w4e+QBCPH7TC4bNF8ur1+dDpdsAqF2cG+5fIGLnc1qphlpi15mn0fiMqcCVTMANAZ+859COdGyRI43yCyETUL5SnQJxPFjeUNvXwWtVD5mTzl80xyZBArfEYnT7+/0GvK2bxIYRsLi/n2JuM8nCvFMPJVFEoX0nXZBDrg2RhmUh9soVsctvFLV4VUP486XeULbPid1eYA5xQX+RfVz5WBMPDgRNjl051iQzpTTonWW4Orcb9S2nhcEkVTNHWqpGNmDXQmqeG9CznRMmkOF9SuX5Fsnqm+nyCyES0D7+X1Y/GGrdxdyENzz9boncq+rZbYHX7AJcLLpcLLhvQ6XPDYbVzKFBeUborlb727eG6EWiWGRa6AM0B4Rq076DMg6c6OzFDdjuRCxukUwVK6rHBBQA+xGdZgvrmepm8SrCw2iaTXotkd/VKFIYDuxCQ3nEXh/QivL/i38TjMt8ro/1LpCu2tYmMiFlrnmbcb0S5Sjxn6IS7RjoNL1rX0pfO+QSReWTQqe9Ho10YcmvzBpHJ6Nrs5J8LfPD5XAgEQzjR3Izm5mY0nwgh6A0f1Lazs5D3xHngkr/alD+92Di5oDiDQ+zI+g4mPk/a5sWaZHXKVgq5kaTWUlvSmNrbG9FYW4taux12uwVWd2ZNMFCCKTMAwAeHvRGqprHLxh4e0qswRDbxe2W4f4l0w7Y2kRExa83TjPuNKLeV1LdAOAV2w2qxwF5bi9paOywWK9wQbnwpnZ+oyF37+QSRiaTXqe9vhN1ihbvTBlfAgDmlRuefQ+TuApbUb2BnoYDMsNlgE/9UbyUuKJOscRM7snIfOiX5XaVU78cRF9yzwuFww+3rRS+AGTNccLnUfyMlC5qDkUbeYc10kTq1IyYy3L9EejBjW9tem3CR0qK0AGY61MSsNQat+6GAzlGIhlcJ6k8EEXAJ50OdPh98vk7YXAEETzyODG/V63w+QZRbNC+U199oF+6+2bwItMgNuY2huNCN8hAYTflrpTUew9KHrxZ2Ki2sIwwH9vl6ca4f+u4DGmbib+3DwfZmLJDezSmpR/OJ+sh/I+XfRPoba+DwdQKuQMLq/v2NdiiuxadaCepPhLCwvx3ba16Er1NYpM5tcyFwQjqUnig/mLatta5BIPC43Bvx8RkZs9oYtOSZZnoi0qoEC5pPYEGz5OX+RgiHBi03HRLz5vkE5StNd+rFxky4YpasMRPvYAmd0kTyd8HU56+V1niMTp9qGDPlkwWPGzH3On6FaHlq7jZnqh+HWjshzmOXVtlgn34XKEpKFqD5xAmEQsJVfHT64Eg9TyFNubJ/qRCZt60FUFKCBQsWyPyJHzIMMaeMIY0800hPRPrR86lRw3s+QTQ81HfqxWdtuwLC82qTJo4udtF6SKbVbj8IHwBb9cJoPpry10prPEanB0qE27fy6dGOgz7AiMXVKAsWrBGGe/kcsOu2+mF0bpjitYJwucvsqnYqyTq24h03vZVgQbPRU1RyZf9SwTF1W6tGjsSsNc+s7zeiQha9gaDvk6CH43yCaJiofaSd6kfMRLeIPvYmqPB6Rvkn+Twd4jE+vfKjO4Jem/BIsfR3Bg2zlI8qkj4qTvanDYYCLpvMY9IyeaSdpHyJ2yg9hy3F+2LZjL6duhyr/j6yrwdDQdnnO8qkTfpoKaXH6yl9r1B6+5fSwkd9RZm/rc3FmGUi0JinHjGwnBOlIxiuf+oeIZvsEcOqzyeITEQs8yrn1EfvuLVur0WfUrLSx7GmXryCLTzyyefwwWH1weZyYQaAXp8v+piojPLXSks8w5G+BPUtXrRa3XBbLWi1uTBjBtDb60NnJwCbFy1cfCd/lNTjRHAKamsc8PkcsPoAwAZbZBZGp/C7Q3i9VGWeLd5WWN3hMhcuQ0AvfD4hM1fgBIwtRiWo3+CC2+GD22pHq2uGUO57fejsdMHrBdwZrhFw6EUr3A4bbOG8gV70+jrRCZuxj5HKif1LhSUf2lo1sh2z1jxzZb8R5bn+RthrWoEZ0fZebG/1eMpE1s4niIaDujv14l2uFH8yV7mCAW/IFbutTe6uV/r5R6m7e6AunuFLHwoGQi6bLeZ72kIub4BXC01Gyx0YoYzYInfuxd/dZnOFvIGgzG+f4ipyQhlCyKZU7nS/Uy+G4Ir7PjaXNxQIKqXXcqc+FAp6XSGbTbKvwvnLxq7Xnfrol1O/fyktvIMpyp+2VtW3HbaYM81TnxhYzolSUGxv1dfuZPVM9fkEkYmIZd4yNDQUEjv4Ho8Hu3btSn0lgIji3LhxA0VFRdkOg8iUWH+oELCcExmP9YwKjVjm03tOPRERERERERFlHTv1RERERERERCbFTj0RERERERGRSbFTT0RERERERGRS7NQTERERERERmRQ79UREREREREQmxU49ERERERERkUmN8Hg8cS/cuHEjS6EQmRvrDlH6WH+oELCcExmP9YwKzY0bNzCioaEh8oLH48HHf7RkMSQic7rnjhDrDlGaWH+oELCcExmP9YwKzT13hFBUVMTh90RERERERERmxU49ERERERERkUmxU09ERERERERkUuzUExEREREREZkUO/VEREREREREJsVOPREREREREZFJsVNPREREREREZFLs1BMRERERERGZFDv1RIXiwi5UFxfBurYj25FIdGBjcRGsi3bhYjZjWFQE66J6HMtaDERERERE2mns1A/g2NpKoWMQ/qteVA//hSSbXOjAxkWVkfTW4kpsfG9Ap/yNjmcY0oe38Uu+h3VRPY4l+x5kasfWhn/nnOtgF6gL2Q6AKFYetLWaDODYa5WwFqu9qKY1vV55Gr0fiPId6xmRUUaoT9qBjYsWY183gHInlk4DcKYP+7r96LH7cX7PDbzwqGSTC7tQbfegB0DZciemAji71499K8pwdvl+tL5UmUH+RsczDOkB4L16VK/wC9uI3wPA2TN9GATwsOLvQaZ1YRd27g3/e28bjr1Uyd852yZW4oVf3sAL2Y6DKB/aWrUuDOBYUy127u1CDwCgVN/0usZg4H4gynesZ0SGU9+pvxDE2e4KrD/RAefE6MsvhE8m9q2ox5wrjTGdkw5stHvQA8k2L9XDv6gMW/f+EP66yujrWvM3Oh7D00M4EVvhRw+ceP1EIx6OfY/y1sWOA+GLOBXo6fZj52v1ePh7k7MdFhHlAtO3teocW1uEJ/cCQAWWbm7A1M0e7NMxve4xGLQfiPId6xnR8NAw/N6KVZJKBgCY+DRWLQeAPgxeiHn9vTbsA1C2uVmyzWQ43U4AXdjaFDv0WGP+RsdjdHoAx5rEEzF26AvHAH71910AnFj18rdRBqDn7w9ncS45EeUWk7e1GpQt34+jJzrwwveshqTXN0/j9gNRvmM9IzKe+k79xMoUHc8unI+ZvnfsiB9ABRyVMncgH63CUgA4E4x2ZjTmb3Q8RqePDMFe/oPEgxflr/casbUbwPIqPDxxPhzlALoP4FcXFNLHLW4nzDOzyi4qN4Bjr9WjelFR3Jza6rUdChcMwulVpUVk3Qd1eUN2nYjqRfXwp1pfQq+85LZZ24GLGIB/UZHMfL4ki/VdkN+3G19L47sQpWLytlath1+6gdaXKnFf0rzTT697ngbtB6J8l5P1TOs5DZEJaJhTn0oF7o+cUwxg8AwAlGLSRLm09+P+cgDdZ3EBwH2a8zc6HqPTR4dgL50nM8+e8pZ4Ar6+TvjdnW4ntq7wY2tTB5xyay7Ebru2LDyETSp2DloFli4X56r14eyZIABpvkEcW7sYT+6twNLlTkxFH87u7ULP3sWYg/0IqlgrAmf82Ld3MeacacDRXz4dX4dl14now769fvSs8COwuQetaqcbpJNXTLyI2ebs3sWYc8YpdHJUG4D/uTLhQky5E0uXC6+ePePHvs1l2Ncvs7+IDJXLbW0h434gMp4O9UzrOQ2RSWTeqRfvOJd/G49MFF88j/PdAMqnYqLsRpMxaRqAbmEYTdKrcrL5Gx2P0emBC/1dEA9OF1+rx5rN/vDiIUDZ8gasqnuaQ/LzTgeOSsvmo1VYCj/2pVow78wPsbNbbu2FAfjDHfqle3rwwqMqWru9Huxcvh9Hr1RGG666cCOnuFaE9LMb8eRrlZiz2YM1r82PdqyTrBPxwksd2Fi8GPs2l2Hj/SoWu0krL4X5xQDw0oAwx7g79S6KM60Br78srY/ifGUudEjDxBRtbQHifiAynm71TOM5DZGJZPic+gH4nxOudi11G3FlS2v+Rsejl+jdlfNNRZiz2Q8sd2LpcieWlgM9ez140l7Jx3fkmYuv/VCY+/o/58eUzUrMWQ4Afhx9L8nG3V2Yukdm7YXIcP796jr0AAAnVr1UGV8/IvPV4oe2iTEvlfns+773AyxF/JoAwjoR8umBSrywxwkA2Hck9aP80skrso8T5hcDwGQ4f7lf4536yXC+JHeBbTIe+Z8VSPm7EemCbW1u4n4gMp5+9UzrOQ2RmWTQqY/e9Srb3GPAIya05m90PEbwY99eJ14/cQOtLzXihZca8cIvb+Do5grILaxHZiYukJc49/XhugaUAdjnlZnPLSpvwJMyZVo6nF8Vhbt6E0sqFGJ2Yo5sfYof2hu9WKWUHtE5vnvbUjxfOr28xBEwsvOLY2PWbADH3tsF/9p6bFxUiepFRZizuSudjIg0Ylubm7gfiIynZz3Tek5DZC7pdeov7EJ1cRm2dldg6R4N82ONyt/oeAyU7Gph6o4PmcaFwwh0Q35hRDUL5k2zylydTjWfVktecsJDe+HHk8Wxi8SJf9Kh7KmGAgPqO9Xp5JXm/khKXJywDE+u8GDr3j6cBTB1mhNLl0svghDpzIxt7Xv1MscKhUUojWJ0DCY+5yAyDd3rmdZzGiJz0Tyn/uJrlcIdqnK5eaYSiovzKJ98a8rf6HgMSy/Oc1Ra8EMYkr1vr4p5kGQK4lBy7F0Mq+xidwDQhUDHAJw5d4IYu/ienGQdb3O7+FotntzbBSzfj6OSKQsXX6vM+DnZREpM29ZOrsfre6pk3rh/+IanGxiD1v1GRNoZW88K95yG8pumTr1YycqW78d26ZzcOOIQFqVOqfxdOPX5Gx2P0enlhjpT/govkAegrFzpd+9CTzfQs7kRx77XqHHhNaMu/ojluhRzXlITk5qVttXcgc80L732R3So3usyxxdhqD+R/szb1gKYOBkPT8zyhUmDYtC634hIO+PqmdZzGiJzUT/8/sIurNks3LFqTVnJxEWkhDuPCd5rS1wwTFP+RsdjdHrgvvtLldNHOoF6DiOmrAn//li+H62/7FD4u4HX1SyYFydFuctYeESJ6phUpBf3RcopAOnkJW6TZH+I0yBUSXYBQrwDSqQzU7e1eYz7gch4htYzrec0ROaiulMvDB9WvyBXZBXJzY04diH2nQ5sXOEH4MSqmGHGWvM3Oh6j0+PReqwvB3o21yasch9dwbueVxJNbwB+rx8AsHRe8rL68DwngBQL5klEy10t/O9JT+oH4F+b2RzSyCJ+K+ol5Vpw8b16+N9Tm16sC+rqbTp5idvI1StcEB9lo5Z4VT9xrYOLr9Vy7h0Zwuxtbb7ifiAyntH1TOs5DZGZqBx+H70rFWiqx3mlZCVVePJ74pU14ZFT+1b48aTdj7LlTkwFcHavP/qYqrTzNzqe4Ug/Gc6XGxCwe7DVXoRAuRNTpwFnz/jR0w2gvAHbc25uNWkm3hlWWL0+jvjM+u4D+NWFp2UeySZHKHdnV/ixdUUZtpY7sXQaAPTh7N4u9JQ34JFM4p/4NLZvPoA5m8PlOlxOgfiynTp9H/btFYarL93Toe67pZNXZJuuuHolblO2vAHrz3hUdsgnw+l2YusKP7baKxFYXirU6TN+9HQ7sX4zsJUr4JOu8qGtzUfcD0TGG4Z6pvWchshENC6U14WevV3Kd7rKp+LJ78VcXXu0EUf3TMXrXg/2hSsLyp14/WW5506nkb/R8RidfuLTaD1hxcbnfoh93eHOPCqwdPMPeGKQJy52HEAPpM+mV1KJJzdXYN9mjQvmPdqI1hNV8Df9EIG9fuwLd1jLyp14/eXMn5183/c6cPT+XXjdeyCmnAr5r3fXw/loYvpgZYekXAvpVynWfeXP1ppXNF5PdJtyYfXcFx4F/Is86gN4tBFH9wBrVvgjx5qy5cLCPRM7KrFVfU5EGpi8rc1b3A9ExjO2nmk9pyEyC8vQ0FBI/I/H48HzG7ZlMx4iU7rnjhA+/qMl22FQSh3YWLwY+8obcPSXmV/wIH2w/lAhYDknMh7rGRWae+4IoaioKM3n1BMRmZHqhfqIiIiIiMyBnXoiyiMd8K/tkF8c8MIuVGtYqI+IiIiIyAw0zqknIspt5/cuxta9ACKLBsYsQIkKLN3TrHIRQiIiIiKi3MdOPRHlkUo8uacBCC+AIy4aiPIKlC3/NlbVPa1poT4iIiIiolzHTj0R5ZX7Hn0aLzz6NF7IdiBERERERMOAc+qJiIiIiIiITIqdeiIiIiIiIiKTGuHxeOJeuOeOkEJSIkqGdYcofaw/VAhYzomMx3pGEPPwUgAAIABJREFUhebGjRuwDA0NRUq+x+PBrl27shkTkSnduHEDRUVF2Q6DyJRYf6gQsJwTGY/1jAqNWOY5/J6IiIiIiIjIpNipJyIiIiIiIjIpduqJiIiIiIiITIqdeiIiIiIiIiKTYqeeiIiIiIiIyKTYqSciIiIiIiIyKXbqiYiIiIiIiEyKnXoiIiIiIiIik2KnnqhQ9DfCbrHAUtue7Ugk2lFrscBib0R/NmOwW2Cx1yLX9g4RERERUTIaO/X9aK+1Cx2D8J/dXovGZGfi/e2otdsj6S0WO2rblTbQmr/R8Rifvr+9UehMiOnttWhMlj/lhfba8O+dcx3sAsUqRzklD9paTfrR3miHxZLsopoRMWjLsz9hHwvp2WQTqZWtuk5UAIaGhkLiX11dXUhZIOSyIQQgBJsr5HK5Qi6bTfg/EHIFZDYJekO28Ps2l7BN9P/SDbTmb3Q8xqcPesV4beH0tmh6b1D+Z6CcNDQ0pD5xTDkBXCG5omoI8XNlK0c2BUIuIASbN8RSX5g01Z+8lwdtrVrBYCgQ0+4pHw+NiCGN/RDXXrui28MWUtNks5xTwRrGus56RoVGLPPqO/VBb8gm13BFTiakFTTaAMZvEwx5bTKva83f6HiGLb0rFIjbDzGvh8gstDQi4sUcW7ihGrYLOOzUU47iSVgM07e16gRc0Q6xy+tN3u4ZEUMa+9nrDSQco4IBV7gDkvr4xXJOhWi46zrrGRWaNDr1gfjOZwyhwkoqYbihk+2wiI1gbOdCa/5Gx5PF9GKnL+f6XqRIfSMinmi7QgGxkRquziw79ZSjeBIWw+xtrUoBlzCKIBgMheIucsslNiIG3fJUfyGe5ZwK0XDXddYzKjRimVc/p75kARaUJEvQib5g9H/tB30AbKheKLPRgsfhAoDec9GprBrzNzoeo9NTgWrfDncnANfjWFCyENU2AJ2tOKQ49TV2cTthnplFdlG5frQ31sIeuz6DxQ57bbtCmQunV5UWQH87GmvtKvOOpk+YE5fO5NN08pLbprYd/ehHo90iM58vyWJ9/fL7tpYT/MgIJm9r1VrQHMKJ5gUoSZq3gTHonaetFFaNIRAVgqzXdTlaz2mITGCEflnZUBpp0fpxrhcAZmCKbOW0otQGoLMPQQBq6nl8/kbHY3R6ANZSCC8l7oFgXye0f18yA/EE3LtmAQCgfoMLbocP7u3tqG9ekHzbWiscPtl3UGt3wNcJwGaDyzUj/HovenvPAZDmew7ttQ44fDa4XC7MQC96fZ3o9DlgRQAhaRz9jbBb3egEYHO5MAMAen3w+Ryw9noRPFEfX4Lba2F3+IT0NheEcHrh8/nQ6fCh1RvEiXp1tT6tvGLiRcw2vT4HrL0uoZOjWj8aa6zChRibC67wxr29PvjcVvj6ZPYXkaFyua3NFiNiUJln/zkIP8EUlfuXiNKnQ13Xek5DZBbqF8pTIDuEOPVwWtXD27QOUdYlHqPTi6GKc6rFeXrBUMA7zPOsSRfqhnvJlZNUQ9HE8mwL2aTrLwgJwsP5EXIpjVmT5hVePCso+57KtR9CseU3KJOPXKxiXtKpJQr1J5O8ZI8t0X2lOC85oQ4HQ16XN8l+59oXeuBwSRVM0damK821ZIyYwqQ6z2AoGBDTqoub5ZzI+LqevJ5pPKchMgHtw+9l9aOxRrja5dpgxJUtrfkbHY++SupPIOi1odPtgNVigcVihcPdCZsroP5OJplGf+OL8AGwVS+MKZsL8LgLAHw4mOzpdp2dmBFoThyWFhnOH0Bz8jFrMVzY0Lwgvn6U1GODC5AObRNjdsl8dkn9BrgAdLYeik5D2R6uf3KxYgGaA8Ktbl/SL5t+XpF97G1BYhUqQf2JgMY79SWob66X+fwSLKy2IeXvRqQLtrXDE0OqPMPTdMLttdXRihneAIInmhPGQxGRXvSr61rPaYjMJINOfT8a7cKwVJs3CP1HoGrN3+h49NffaIfV3RkeMu0S/mxAp88BO59fnmf6cahVmFYhnfu6YI0XNgC+F2Xmc4tsXqyRKdPS4fyqKMz9tJbaFGJ24XHZ7OOH9kaHAiulR3SOr+9gkmfUpp+XOHVFdn5xbMya9aO9vRGNtbWotdtht1uEuktkOLa1wxODmjytKBXbapcLNnTC53bAymfVExlEz7qu9ZyGyFzS69T3N8JuscLdaYMroGF+rFH5Gx2PASIdelcAwRMn0NzcLPydCAl3730O2LkQV/7oPwShLdmQeAdZzYJ5svM1U82n1ZKXnCD6OgHAB4cldpG46J2q+H5tOH3SBaPUdqrTySvN/ZGUuDihFQ6HG25fL3oBzJjhgsuV1tUBIvXM2Na218ocKxQWoTQqZq0xqN4PJagX2+rmZpwIhRAMeGHr9MFhlS6+SUQZ0f34p/WchshcNC+UF7277EWgRW5YagzFxXmUT7415W90PIalj14tDEiHQSM8BMjtgK/1EPrrc38aAaUmDiWHzwGL7GJ3ANCJ1kP9qM+5i1Kxi+/Jyd9Vn/sba+DwhS++Sepqf6Mdij8lUYZM29Za1yAQeFzujYzbMiNi0LofpEoW1KPF2wqr24eD7c1YYIJRgkS5LtN6mVzhntNQftPUqRcrmc0VQItMZzRKHMLSi3P9kKmM8nfh1OdvdDxGpxevFqaKV8uKxZS72nEw3Puz2ZTu7naisxPodG9He73W+ZlK5S5TYjmcgceb1cSkptyquQOfaV567Y/kF9+CySsxUdrM29YCKCnBAlXPrtLGiBi07gfFj5syA0Aneo05EBMVFL3qZSKt5zRE5qJ++H1/I2rCw8VPpKxk4iJSwp3HBO0HExcM05S/0fEYnV4knIglStXpJ1MJ//5wBXDixAmFvxACahbMi5Oi3GWsBFNmaIlJRXpxX6ScApBOXuI2SfaHOA1ClWQXIMQ7oEQ6M3VbaxAjYtAxz/7wwWCGfvN+iAqToccbrec0RCaj9pF2qh+LE91C4bER8o+z0Jq/0fEYnV6IHyFIHy0WCsa9R+ag/AiV2EfOpcgk4BJ+99hHtoiPcVHcOOYRbgnPXRMex6Y2L/FxLnFvJ32sXCgUDLhCXtXplR43l8kj7SR5KT6aLxQKBaOPwVP3SDvxt0vMS9xXqn5XSomP+ooyf1ubjuSPuTIiBs37wat0DIw5TqXIg+WcyPi6nrSeaT2nITIBscyrHH4fvSvVur0WfUrJSh/HmnrxyprwyCmfwweH1Qeby4UZAHp9vuhjqtLO3+h4jE+/oDkAV68DPp8DVh/C6XvR6+sU5l7bhCG/ZHLinWGF1evjLHgcLvjg62zFof56mUeyyW6E5oALvQ4f3A4r3DYXhKli4bJk82JhJvGXROeLOqw+2GwuzAhPRYst26nT98LnE26RuwIn1H23dPKKbNMJt9WCVsk2NpcX3l63ysVwSlC/wQW3wwe31Y5W1wyhTvf60NnpgtcLuLmqDukqH9pavRkRQxp59vngcPuEp9WED4LCsQAAbPAGOZyXKDPDcLzRek5DZCbq7tRH7zYm/ZPeaQsJV7Fdsdva5K6Oac3f6HiGK30wFPC6Qra49LaQyyu9e0+5TunKsHhH16bysnNC+pR36sUNAyGvyxa+Ai382aRlL5079ZHsvSGXzRZXv2w2l8zogGg8cunlkyvcqU8rr9h4JfUqEAxFjx1q7tSLebni96vLGwoEk+8v0oZ3MEX509Zqk+zunRExpJGnzDEWNlvIljDaThnLOZHxdV1NPdN8TkOUw8QybxkaGgqJHXyPx4Ndu3ZJ+/1ElMKNGzdQVFSU7TAopXbUWhzw2bwInuCTJXIF6w8VApZzIuOxnlGhEct8es+pJyIyI9UL9RERERERmQM79USUR9rRWNsO2bXv+xthd/gA2OBNucABEREREZE5aHpOPRFRruvzOeD2AYgsGhi/oJUr0KJyEUIiIiIiotzHTj0R5ZEFWBPwAi+2wtfpg09cnN5mg81VjQ1r6rGAHXoiIiIiyiPs1BNRXilZUI/mBfXgQ2mIiIiIqBBwTj0RERERERGRSbFTT0RERERERGRSIzweT9wLN27cyFIoRObGukOUPtYfKgQs50TGYz2jQnPjxg2MaGhoiLzg8Xjw8R8tWQyJyJzuuSPEukOUJtYfKgQs50TGYz2jQnPPHSEUFRVx+D0RERERERGRWbFTT0RERERERGRS7NQTERERERERmRQ79UREREREREQmxU49ERERERERkUmxU09ERERERERkUuzUExEREREREZkUO/VEREREREREJsVOPZGpdWDjoiJYF9XjWLZDyTsd2FhcBOuiXbiYzRj4+xIRERFREho79QM4trYS1cVFsIb/qhfVw38hySYXOrBxUWUkvbW4EhvfG9Apf6PjMT79xffqUb0oGr91UT38yfInExqAP/Y3jv1bJJSPtDuNF3QMk3LPhWwHQNmRB22tGlrbV0lM4nF143vDHMOFDvgl+8O6qB7HLmQQBxHFYz0j0sQyNDQUEv/j8Xjw/IZtCkk7sHHRYuzrBlDuxNJpAM70YV93FwBg6Z4beOFRySYXdqHa7kEPgLLlTkwFcHavP/z//Wh9qTKD/I2Ox/j0x9ZW4sm9XQAqsHR5KYA+nN3bhR6l+Cln3XNHCB//0aLw7gD8i8qwtRtAeQXKIq93oac7/M/yBhz95dO4z+hA9fTeLmz0egB3vpbVDmwsXox9ZvxtTCZ5/Sk0edDWqqG1fZV6rx7WFf7hj+G9elSvCKcpd2LqNOHls2f64Hi5A86Jyh/Hck6kEusZkWr33BFCUVGRhk79hV2oth+A44SkMkUaRSdev9KIhyNvhE+IUYH1cduIHRzJ61rzNzoeo9OLJyTSDsOFDmy0L8a+hPgpl6nr1Mv8phc64H9uMbZ2A2Wbe9D6vcnDEK0+Lr5WiTmbu/L4AhQ79cOFJ2ExTN/WqqG1fZWKuVCKdDv1acQQ+51PNOJhxfjksZwTqcB6RqSJ2KnXMPzeilVyjezEp7FqOQD0YfBCzOvvtWEfgLLNzZJtJsPpdgLowtamjvTzNzoeQ9MPwO/1A6jA+pclnYWJlXhhjxOAHztf4zD8vDexEs6XG1AGoOfvD2dx7jYR5QaTt7VqaI453sXXarG1uwJLl1do/ODMYjjW5EEPKrA+jY4GEanDekaUHvWd+omVKSpXF87H9EGPHfEDqICjUubO46NVWAoAZ4LRTozG/I2Ox9j053G+G0D5t/GI3HeYPFXo5PWfT/YFKV9MnA9HOYDus/FTqGXmkyXOY021mNsAjr0mWbehuBLVazsS0yt9nnR+6Xv1sBYXYc5mYfjtvhXR9AlzW8N5pvxsLfFe2CXEuLYjmj52PuxrSfJX+x3VSCcvuW3WduBiZH6wdEG8FL+v5v1LOc/kba0ammOO04H/n737CW3j6PsA/hX01oNPPeUQ17FqYnwRBh9Wh9AQ0cdqG1IIxgeb6OCsSQKVeCANIjEIUpPHzUUq1MUbHxTigzGBhLSV++Dg4oN1MBhfjIMrxY99eE/PxT48530PuyutVrvSzkpra6XvBwyJPTv6rbSjmdmdP8uZHWDqB8wMir1uSzEcL+KXFQBTPzQc+ktELTivctbOtgBRh/ikfVmN4UqlbjzCfz4AwDA+77dLewVXTJ0Yd8Nazfn7HY/f6ZvoD2MIwN6HEk4Q47Dfrmfc5BlCv/Ery1zPSQDAAVZX8hg6yqGasBHzXFhj3QYtn8MPJQCm+aKW+WuTV6uvtzedR8E8NWBgCJNTCeBDHqu7tfPdasqozXxVfMhjdeU2bnywG9IuEC8AoIT8zduYxxgmpxIY0tekWM3cxmr5NUrW+bAi59iMl7xM7wdMxxyu3MaND8ZnLED4/aXu0Ml1rRutxbz1SJ+ethADXvwk8sItxXCy8UZb7+arJnP9icizcyln7WwLEHWQ1jv1xl21mqfONp2UGgP4/CqAXW3YXsOnALb5+x2P3+mNBsMb/HV8v/5u5HEJh4BgQ4wCSx8GiqvhymddHX5WO+z16cIRTo7dZHqEvN5Bnny1h6fXG1RQx4t6BVc/f+3pgj7vNBPB3BV93mr/fTxdAE5eaItlDaVyNvNZNzBnOycuh5kXMdzIpPHwxT9MFadAvIaVNApTr/F+wXTj657e0V35HVsLsdp5wSLn2IinvIz3w2ae7kLt/GB3RN9fCrxA1LVutBDzZhIzK8DkK20Ov/cRKeIxHJe1RW2vDAAnL5J4mNE6BQAQmXqGB/fuc6gwUYt8L2ftbAsQdZgW96k/Qv577UnRZMqPp0Ki+fsdT7sM4MtvxwDsYP5767Da6jlQt9OHjk/nAePJk/5756dIA7hc9zsbmzmtkzj1umkHWbuBoDeU6/I21ngAVv/tPMfV6uTFT1h1yPPy3R8wCcsaAgLxViXwYMEykqUyzzeP96apAO08Ry95Ge9H/fxdABhA4t1roSf1wu8vBRzrWmADc/risjPn3tiufid//LUPNzJ5YCqByakEJkeBvZU0ZqKx1rf4I+pp/pczP9o7RJ2ihU599elSJLPnwx0t0fz9jqe9Lt9dwuNRALtp3LjUh4lHScw9iiF8KYJ5aF9gzk8RKJjymKnZpz6CmUwee6MJbUGYSjr9KRHymLm56GlPVmO+6ON7zYawGZVoAjecyowxv3Tld8t8b+c8//ptp0GetUNbxeI1cSgf/YPWxbPaeY7e8jKePtjO3wVQeU9cEX9/KchY11ZG8iCB5QudVpLH6koCy9tnWFvI4elCDk/fneF9Rr9J32BxPyJyy69y5kd7h6hzeOvUHy9i4pK25cvkKx/mnojm73c8vhhA4t0elqe0fcv3VvJYXdlBZOo13r/7BhAaikuBMTqGyOiYNo9r6hkev9pD6V2u7unttYW9yk2fmajoAi7N5ouaNRuGCoh1OE151t3EqN7MqB1qLhKviWm6gqt42nKOXvLyeH7NYnD9/lJgBbGu1RfSrPtxXMyzOW21++qw+6Z8iMHQaHQMOwJE7eFPOfOjvUPUOYTn1Bt7U2P0GZZ/bjK3xXFOuHMjVyh/v+PxOz0GcG1hA9cWLMmPF7U59a47LRQMCSy/c7uf8wAS787w5fEGlr//Cau72gIu86MieVw082J3djgSpTV8f7tZYOvagSSWX31j84crtfG5jXkziRuZHbFRAe2OoTLH3mlRwBhuTAGrKy7WLiAiByxnRK0Q6tQblXpk6jWeW+ey1jCGfzoVPPu7Ze7z9zsev9M3OS+usku6y/0xPH0Xw1McYevRLGZW8ph59E39yu623FR8blbHFrt+q3kO48aCyA0Ivyrqdp5jK3m16/y8vr8UFMGtawH0D+Baf6Mn/iIxHyGfzQMA9jIRhDP2Oa5O9+lrVuijB9oag35addN6iKjd/C1nfrR3iDqH++H3x4t4mNkBpl5jrWkjoLoQXGHDZsiwvtp35Nt/VPMRyt/vePxO30iz+bLUmwZwbcHt0LMm16MlrTF/37ywXA2b1flbztNzvF608xy95GUc0+D8jv9EwfWQedH3lwIl0HWtG2Ixf/6tvlCW3Y8+TFabzpRA/Io/MQDA5SvDzumxgfcrQPum2BD1Jn/LmR/tHaLO4bpTX9liy+VCVpUVmDM5y0Jf+gq2SOCBaT6eaP5+x+N3entH2HoUEZs7SF3oCCeN5s+7uINcvR5nbebiHyH/qDq39Nq9Z4gAWJ1O2izKZ1y/9WVNq3yBw4/1sTbOEzjZTCJvqlRF4vXC6zm2Ky/jmL3MbP3KvcfG9nTuib6/FBxBr2vbG/MArt3VF8qy+Zn5VnuqN5TS/p9wvXOGhzr7ehKPR+3LcHV3iyTrbaJW+FzO2tkWIOo0LoffG/PLgMKvSXx0Sjb4DWbuGnfyta0hVqfzmInmEZlKYAjA4Uq+up2E5/z9jucc0h8vYuL7N8DVYQwBAA6wurIDIBir95O//spGMD89hshU9fo4XNnBHsZcbiGlXY+H03nMT0cwP5rA5FVTPqPP8KWRtP8+nmfe4EZGv3ZHExjS0xrX5OSrjfqt2AaGKh3VifIwhnCAK19tIHG9UZ61ZcJTvF54Pcd25VU5Zgfz0T4ULMdEpp7h8Ye0+wXuhN9fCoZuqGvdEK1f/SAawwASPz9DIZquKcOHH/LY2wUw+gzPA7FIL1En87mctbMtQNRhBBfK28Heyo7zE6XRIczcNd3dup7D+1dDWM6msapXlBhNYPlnu/0hPeTvdzy+pg9jCKimgzaE8MHPySZzAan7DeDLbxMoIG+6vscQmXqG5XvNF7SquJ7D2vY3yP/6EworeazqHcbIaALLP9feGLh8dwOl2AbmjEX5TGkfOF3v/fex9uoQE9NGnGN4/FVtnu+vLGI5+6Yuz8eppNb59xivF57OsY15Vd+PdPWYUW0V8afXgfzNtPD5CL2/FCABr2vdEI7ZB6Ix9N/H2nbYUu7HMJn5QfCmBhE58rmctbMtQNRJQqenp6rxn3Q6jX8++ddFxkMUSJ99quK//wtddBgUWBuYu3Qbq6PP8P5C9+G+GCw/1At4nRP5j+WMes1nn6ro6+vzuE89ERG1DxfnISIiIiKP2KknIvLdBvKPNuwX+ztexAQX5yEiIiIijwTn1BMRkRcfV25jfgVAZRFA0+I/GMPkqyUuzkNEREREwtipJyLyXQwzr54B+qJ2xiKAGB1DZOo7PBBZAJGIiIiIyISdeiKic3D5+n08vX4fTy86ECIiIiLqKpxTT0RERERERBRQ7NQTERERERERBdQn6XS65heffao6JCWiRlh2iLxj+aFewOucyH8sZ9Rrzs7OEDo9Pa1c+el0GouLixcZE1EgnZ2doa+v76LDIAoklh/qBbzOifzHcka9xrjmOfyeiIiIiIiIKKDYqSciIiIiIiIKKHbqiYiIiIiIiAKKnXoiIiIiIiKigGKnnoiIiIiIiCig2KknIiIiIiIiCih26omIiIiIiIgCip16IiIiIiIiooBip56ImljHbCiEUDSH8kWHQkRERERENQQ79WWsz0YRDYUQ0n+i0VnkGrX0y+uYjUYr6UOhKGbXnQ4Qy79cl7eW3jF74XjOIb353HNRhEKzWHeRmoKkjFw0VHOdmq+PaHQWufUyO8xEpOuCulaIaP3nR33pJk8PnwsRCSuvzyJqbjfp7SQiauD09FQ1fu7du6c6K6iyBBWACklWZVlWZUnS/g+ocsHmkFJWlfS/S7J2TPX/1gNE8y+oMqACUiXvyvGQ1Gyp1XjOIb2qqmqppBZkqZIOkFWHlNTBTk9PG/y1pGYr17akSuafyufe4Lr1opBVZcmhXIpnppU1Kau2Kzwis8blp9d0QV3rlmj950d96TpPD5+LBa9zouYKslT5fpFlWZVN5ZPljKiecc2779SXsqpkV4FXGhPWirDaEKg9xujgWH7vIf9stlDXySgVZL3StXZABOPxPb2qFuRqw0jOZvXj2akPInedeqfPtmSqxNrTES9lpbblxU49+Y2NMJPA17XuiNZ/ftSXQnkKv2/1eJ0TNeH0vVIquC7zLGfUazx06gtqwaHm1ipGS2WnF0zJ7ja+UWjNPQ7R/B05FHzRePxOr5+XJBfUUqlB3BQIrXXq9VTGddKGa4CdegoSNsJMgl7XuiRa//lRXwrl2Yb3jdc5USPOD8FUVW38XWfCcka9xrjm3c+pHxzH+GCjBEUclKr/W3+rAJAw8bXNQeO3IAPA/t/VecSC+TclDSNs+q9oPH6nB4DxJRXbS+MYbHje1CsGx5dQkAFAwVvrpM5yGes5yxyzUBSz1smc67MIhUIIp4oAACVeTT+77iE/G0Jz3URfp7yOnNs5q3ramvUJZte5NgEFW8DrWrdE6z8/6kuhPNv9vhGRRQkHRQDSBOy+zhAehgSg2GpBE2lnEAXIJ+3LSsJwpWYv4+99ABjBF7aVYBjDWslECYC7OtqcfwPlv6G99BemfEXj8Ts9kb3xWzKgKFDermNpfFz/bRm5O2GkigAkGbKs/XZ/X4GSCkM5KEBd0tOGhyHLMrCvQCkCkiRjZET7k7l8us7PopSLIp4qQpJlyCMAsA9FUZCKK1jLlrCdNF/dgq9TziEaTkFLLmudET3/kdJSbcGxpNVCUaAocYT3syhtJ1nOqEt1cl3by1y+b0TkzeAXGAFQ3P8bZYx7+94RaWcQBY37hfIcGPPJaobmNh+u63qYn23+tgnVUsFI6zDn0HU8fqe3TcHh9wHWjuH3GrtrqaRm5azN0E/nfBsPvxfNz7g29b85zim1mdMr8DrOZaSkD4+1xlMfi3HezYbnUWfhcEkXAlHXeiVa//lRX3rM0/X7xuucqLEmw+9drl/RqJy5b2cQBYf48HtbZeTuaHe85Cd+PBlrlr++f3YohFAojHB8DSPZAkrbS7B/zkgURINILiVthn4O4usJCbbD9X3JT0K2tFR/3GASL7MSgCLW/jCPXxN5nUZPHAdrhseWcz9CASAX6mMZTD6BDKC49geH4VMXYV3bmfz+XIh6idE2KCJ1J2epw6tlzTv37QyiIGph+H0Zuag2tFbKluAwWrcFbvIPY7gyfAbYVxQoqTiUNRmFlzadD6JAK2N9/Q/8/fYAB/v72EcRxZZqOMH8nOa5ARj8egJSqqjPdbMmcvM6g/hiBEBRQTw6jMJLu5sBWl5/rBUByLjl9J3AqS7UVVjXdia/Pxei3jOYfInsWhipYgrhUEqfXrcPRSlq0/gkBQq8rePhvp1BFEzentSXc4iGwkgVJcgF6zzaNnCd/yCSS0tY0n+2VRWlQhZSUUE8PAuhh5dEncBhTYj12ShCoTDi8RRSyj72AYyMyJBlycuLtDk/VOa61S4GKfY640slaA/8U4iH9YVr6hbg0xfSgYJ4yLz4XvUpYqq1W/lEnSOIda2+WGfdT9T65M1Hfsfg9+dC1LMGkdwuoSBL2qJ4igJFKUKSCyht30KLj+pdtjOIgkn4SX05F9VW1pZYEP3MAAAgAElEQVSyze9yOT4tcx4CI5S/jcHxJF5m1xBOKXi7voRx891z0Xj8Tk9kVTrQFnAxrbhUzt1BXCkCcgGlpXHLenFRKIIv0e78tAPrb0aIv84gktsqvi6v4/mdH6EUFRTjClKSjELdMF8JsjzSICCvd/KJOkNg69rwQxQKt2yOCJ/fyBkfY2j1fSOiZgYxvrSN8SXLr8u5NizOKdLOIAoWoU69UZlJcgEvlxqtPGkMgd3H32XYVHrGthW1DW/3+Tc2qI2vwX7lxUXj8Ts9kZ0ycj9at6eqDjcv2JSJ0oHobet251c50HID3fvrDA6OY2l7HEsoY332DuKKgvjsLX2lfKOsjeDWEitg6k7BrWsBDA5i/KInp/oUQ7veNyISV/5jTVu/wn7unZDG7QyiYHI//L6cw52U9tRtu2llVl3sonbhLN36WygApImvq/kI5d8kVO3RBEYqjyZE4/E7PVG99Vl96Lj8BNXRnI1uCBlP4US0kF9xDXaXN2DslW2ubNsR9yDGl7SF76C81Yf46nPihBcHJAqIQNe1XayN7xsRiWq2no5Xdu0MooByu6Wd621xqkc4bDtlv22MaP6FrM3WWqpa3WrHcVsud/H4n77ujLilXYC1tKVdqaDKkr5lXN22SM5bvBjbt8Fu67qC7LC1m5f8TFva2WzbVNJfq24bPqHXKakluwJtt2WXeVsb2+8AWc2yEAUKt/qqCn5d60Xnb2kn/rnU43VO5EVJL39O2/TWci5nAu0MogAxrnmXw++rT9bWns/iwCnZ8C08TBp3sMexVJChxBXEw4q+gqW2am4R+nZUreR/oCCeUgBJgjyiza3d31f0VbX1rbdqDhaJ5zzSU+9REI/uw7xEXNG0DLz9kM5BJJ/ISMUVpMJRrMkj2nW1r6BYlJHNAim7leHCw9oiM6k7iB6MYAT7GL61jeS4x/y0ACEjhXBoDZJ+HPYVKEaZe2ne0kn8df74MYxUXKrmjX3sK0UUIdVuFzVYncsbDyuQJBn6V0BNeSMKnm6oa7uRl8+FiISVc4jeWQNGqu0ARWtktGWXCdftDKIgcvek3njq1uTH9iletvoUElAh2d3195B/qaBmZUl/UmD8XVIludDwTpu7eM4vfRWf1AeZuyf19T+SJKlytqCWmlwjpYJcc61LclYtlKpPvW3vXtccI9U8vRbLz3wXu6QWZMl0DlLl2FbjLmVlVap5n5rlnVVlSbK8n7KadVfgqIPwCaahe+paMZ3+pN7752LG65yoiVLBtl4vNGskmTQqZ6LtDKIgMK750OnpqWp08NPpNBYXFwVuCRARAJydnaGvr++iwyAKJJYf6gW8zon8x3JGvca45r3tU09EREREREREF46deiIiIiIiIqKAYqeeiIiIiIiIKKDYqSciIiIiIiIKKHbqiYiIiIiIiAKKnXoiIiIiIiKigGKnnoiIiIiIiCigPkmn0zW/ODs7u6BQiIKNZYfIO5Yf6gW8zon8x3JGvebs7AyfPHv2rPKLdDqN//4vdIEhEQXTZ5+qLDtEHrH8UC/gdU7kP5Yz6jWffaqir6+Pw++JiIiIiIiIgoqdeiIiIiIiIqKAYqeeiIiIiIiIKKDYqSciIiIiIiIKKHbqiYiIiIiIiAKKnXoiIiIiIiKigGKnnoiIiIiIiCig2KknIiIiIiIiCih26ol63gbmLvUhfHMRJ9bf3+xD+GYSW17zbel4IiIiIiJqRrBTf4StRzFMXOpDWP+ZuJlE/rjBIccbmLsZq6QPX4phbvOoLfmf1OWtpd9qWzx+p/fwflJX2Hqkf+aPNi46FGfHF3w8jrD1IobwJd4UoF7TBXWtGyIxbyZrXr/2p4XvCNE6vsYR8je14+Y2vQZA1Evc1OtsGxN58Yn7pBuYu3kbq7sARhOYvArgwwFWd/PYi+bx8dUZnl63HHK8iIloGnsAIlMJDAE4XMljdTqCw6nXWFuItZD/Bpajt7GKsUre+JDH6m4eM9EDPN7eQKK/lXj8Tu/h/aTucLyIX1b0f6/8jq2FGK5daEAO+mN4+u4MT8/7+OMjbP06i19WdrAHABj2GgFRAHVBXeuGaP2qi4wmMHTV+tsheAnBawwVmznM73p5YaIe47peZ9uYyKvQ6empavwnnU7jn0/+ZZ/yeBET0TeIWyvwSqWYwPL/5Uydkw3MXdIaArWV/hHyNyOY37X83kP++RfAl3djuGxKfrKZxI3pPDD6DO/f3Tf9TTAev9MLny91ss8+VfHf/4VcpT15EcONzA4io2PY291BJLOHtbsDPkfYiH7t1pWZ87f1qA8zKwAwhsnMd0AmjVWWha4nUn66XuDrWjdE69fq9+Zk2xr14jHUMtJp/3MTF69z6kVC9Xob2sYsZ9RrPvtURV9fn8jw+zAe2FVw/ffxYAoADvCfY9PvN3/HKoBIZslyzAASqQSAHcz/ah56LJg/YkhYGhkAcPn6N5gEgN3D2tG/ovH4nV74fKk7HOGv33YAJPDg5+8QAbD325+Wuey9LTL1Gu+3N/D0bviiQyG6AAGva90Qjtkwhivtuv/pOQbNyYtZzO+OYXJqrE0BEXUv9/U628ZEXrnv1PfHcK2/UYIdfDRNQ9v6dx7AGOIxmxrYaAx8KFU7M4L5NzVaOxxPNB6/07f9fCkYjOGaU9/gWv8/EB8FsPsGfx07pD9e1OaVPdqANhctaZpnFsPciw37GwLHetqbfbVzRV+IXFROC+gBON5AvumctwbHO7i2cIa1hRgu9wuESdRNAl7XuiEcM4Dj8o7gq7Q/hqoNLGd2gKkfMDPY1rCIuo5QvX4ebWNX7Rei4Gnj6vfmO+hH+M8HABjG5/12aa/gyigE7/C7vEN/XMIhAFwNm54siMbjd3o32vhEgjqG0ZB8fC8Gt0+ENCXkb0Yw89sBhqYSmJwaQwQ7WM3cxo26xfaOkP8+gplMHntIYHJK+4mM7mA1E2l9cb7jRUxEb2N+ZQeYMvIfw95unjeiiHzXyXWtG37ELKq1GLYe3daGDzebc09EbdZi25jtF+piAgvlOTAW/Rr9Dl/2G7/8iI+7aHAHfwCfXwWwqw2jaXhXzjZ/O0c42fwTD6fT2Bu1Vrai8fidvsFpuD5fCp4NvLd+tte/wSTyWG22YN5KGoWp13i/YBoGe0+fY2Z37NVnWP75vuVaS2pzQFtcnG/r1zT26uahAk8XjnBy7DFTImosEHWtG63EvIP5aB/m9f9FRhOIp5JIXBdt5bcQw2YSMyvA5CttXi+nThGdgza1jdl+oW7W4pP6I+S/11aOnUz5scBWs/z14b2X+hC+FMGN6TcYyrzG+3dBXVTL7/eTLtLJi5+0OZzf/sP02cZwYwoA8njfcEukBB4sWOa1VuaYWY8dQGLB2qHXfv/lt2MuXquRRk+4BjhsnsgXvV7XHuE/plFHk1MJbT2S3TzmpyOYEJpW1IoNzOmLA85wBW6ic9Ku7z+2X6i7tfCkvrryaySz58MWE27yv4IrUwlt7hv0rWgyt7H6WwLLP+eazMvpNH6/n3SxjAXy6udwXrv3DJGVNFazi5i57lBhOTxR6h8cA+A01/QIW5t/4j//PsTHDwc4xA72Wt5+yXiClcfMzSGb0QBE1F6sa7UblbnaXy3kcLK5qI0YyMwiH/O4tZ5rR8jf1IfdX/AuIUS9o53ff2y/UHfz9qT+eBETl7QtXyZf+bAdl+v8tYr+qf6z9n9neP/qGSK7ecxEk9hqb1T+8fv9pIt3/CcKuwCmfrBZ1dXFgnlC81aPsPUohvClCGam05hfOcAhgKGribas1HxtYQ+PRwHspjET1ReY2eRkNKK2C2Jdu5k0Lc5p+hFYMNOty9fv43lGu7FZ2DB9B/kQg7bafXXYPRH5zIfvP7ZfqJsJP6k39orFqN2cXQt9kZn6zojzEBih/G1olfwb3Mjk8X4zh2vmu3qi8fidHq2fLwWDNo8LwMpthFecUmkN00SLFdfJi1nMrOwA1jn40K631ZZyB4ABJN6d4cvjDSx//xNWd/PYm85jfjSB5cBOfSHqLIGtaweSWH71jc0RV2rj8xCzbRyx7xDJ7GCv/BHAgD8xbCZxI7PDUXRE58S/tjHbL9S9hDr1RiGLTL3Gc+v83hrGyrFOi/PYL1LjPv/GLl8ZBrCDw49HwPUBD/H4nb6950udTl8gD0Bk1OlJuTY0fi+Tw9bdVioWY5i/toCV9Zpq57ZQl/tjePouhqc4wtajWcys5DHz6BuUuCI0UUuCW9cC6B/Atf5GNya9xSykrTEcIZ/NAwD2MhGEM/Y5rk736fvec7QdUSvOo23M9gt1I/fD748X8TCjPf1ba1rIjAW5LEPiDJu/1y8YJpR/YycfDwAAQ5V9L0Tj8Ts92nq+1OH0zx9Tr7H2bsPh5wzLrhbMa6ZRg9h4+tRuA7i28IM233bl9+BMeyHqRIGua93wEHOjGDbeYA9AZPCKbzF8/m3tIn01P6PaIZFR7f9xkTCIqNa5t43ZfqHu4bpTX9kG4p67u1iX72qFZC+Tw9ax+S/66rFI4IHpbrZo/lsvkpZ8NSeb+hcCErhhGiYnGo/f6UXPl4Kq+pRn8qvGn/W1rxIAgNVsK3NPjSdQ9fPzjTmhrTnCSaP5Z608XSOiwNe1fsSM40XMvdio+140x/BA8Om4+xgGcO1udT0B68/Mt9roq6GU9n/x7fWIyOBv25jtF+puLoffV5/wFX5N4qNTssFvMHPXuLMWw9NXCaxO5zETzSMylcAQtFVz92BdbMZD/uU8ZjJ5YHQMk1eHAQCHH/L66t5jeLxtHcIsEo/f6b28nxRIxgJ5brZAMvas332Dv47ve1zJeQCJVALz03nMR2MoTA1r1+GHPPZ2E3icAeYzrQ3B/ysbwfz0GCJ63sABDld2sIcxbsVI1JJuqGvdEK1fgcPMbdzIVL93zDF4W7xOPAYi8pP/bWO2X6ibCS6Ut4O9lR1twS87o0OYuWu6u3Y9h/evhrCcTWNVrygx2mgLHPf5X7v3Go/xEworO1jd1Tspo2OITP3gPAdHNB6/04u+nxQ4laGhroaSxjCTGcNqpsUF867n8P4V8HA6X7m+IlPaYjP9GzHMe8tVN4Avv02ggLzp2h3T8r/HhR6J2iPgda0bIjH3/wMPpt7gl5Udy/fOD3h+L+Z9f2nh942I/OdX25jtF+puodPTU9X4Tzqdxj+f/Osi4yEKpM8+VfHf/4UuOgyiQGL5oV7A65zIfyxn1Gs++1RFX1+fx33qiYiIiIiIiOjCsVNPREREREREFFDs1BMREREREREFFDv1RERERERERAHFTj0RERERERFRQLFTT0RERERERBRQ7NQTERERERERBdQn6XS65heffao6JCWiRlh2iLxj+aFewOucyH8sZ9Rrzs7OEDo9Pa1c+el0GouLixcZE1EgnZ2doa+v76LDIAoklh/qBbzOifzHcka9xrjmOfyeiIiIiIiIKKDYqSciIiIiIiIKKHbqiYiIiIiIiAKKnXoiIiIiIiKigGKnnoiIiIiIiCig2KknIiIiIiIiCih26omIiIiIiIgCip16IiIiIiIiooBip54oiMrryM1GEQqFEAqFEM2VLzqiC7KO2WgIoegs1i86lKbKyEVDCIWssYqewzpmQyGEojn06qdORERERFWCnfoy1mejiOodiVAohGh0Fg37E+V1zEarnY9QKIrZdacDxPIv1+WtpXfMXjiec0ivH5OznHeo2XlQgLS7E7aO2XAcKaUISZYhyzJG2pJvAHVDGemGc6A264K61tVpdlJ9WcZ6Lmpz061d6YlICNvGRGJOT09V4+fevXuqs4IqS1ABqJBkVZZlVZYk7f+AKhdsDillVUn/uyRrx1T/bz1ANP+CKgMqIFXyrhwPSc2WWo3nHNKrqqoWTGmM85ZlVZIczoE60unpaYO/6teqlFXb8pEWZO166ZULpJBVZcnhOyZQSmpWggrIamun0ubrqQM0Lj+9pgvqWjc6pb4sldSCLFXybVo+RdOb8DoncqmFss5yRr3GuObdd+pLWVWyq8ArFbO1Yqs2BGqPMRq2lt97yD+bLdQ1akt6h6e+wSsYj+/pLefWLa3zHnWenfpSVnJu3Heh7jlfduqdsBFmEvi61o3OqC8LcvXmhJzN6jE5l0/R9Fa8zolcaLGss5xRr/HQqS84Fi6torNUwo2eJhqNAXMrXTR/RwX7ilY0Hr/TC58XdTJ26v3TPefLTr0TNsJMgl7Xujq0M+rLgqyNCiiVVNXN+Yimt+J1TtRcq2Wd5Yx6jXHNu59TPziO8cFGCYo4KFX/t/5WASBh4mubg8ZvQQaA/b+r00kF829KGkbY9F/RePxOj3IOPyoA5CdINjxv6lrlnDZXbHYd2vzMWdPcsShmc+s1063LOW3uaThVBAAocSOtZU6nzTy0aHQWObuJaNYYjMX3jPn/xt+jOZSt83Br8qyPP2qJv/qaetpoqHYurXVC7/qsw/mGMFs54WbrFdi/VnTWEpvbmNywe/9nG62n0NqaC+V1S9xOnzUgfp5O15JdcsvijbbvMzUX8LrWjU6pL8eXVGwvjWPQZZ6i6YlI0Hm1jUXaSUQB8Un7spIwXKnZy/h7HwBG8IVtoQxjWAJQPEAJgLtya86/gfLf0F76C1O+ovH4nR4o/7GGIgD51riLk6Lu9jdy0ThSkPRF7/axrxShpOJQDgpQl/Rr5IsJyPIIsK9AKQKSJGNkBABMjer1WUTjCorQ/i6PAMA+FEVBMa5gLVvCtkNNuT4bRlxxivEAz6MpKJAhyyMY0fNMxRUcFEq49TaMuCJpC/cB2FcUFFNxhM3xAwDKyN0JI1UEIMmQZe23+/sKlFS49nzDw5Bl2eZ84e67AOuYjcahaG+G9t5pr4b9/b8BGHEJxNRMOYdoOIUi9Lz0939fSSG8fwDZXS6ulXJRxFP6gommzzpl+1kLnqfpXIzP1ch/pLRU+8VtSauFokBR4gjvZ1HaTrr8nqfmOrmudYP1JRHZO5ey3kI7iaijuV8oz4Ex96VmKGjz4aGuh9fY5m+bUC0VjLQOcw5dx+N3+tr/l7KyadEdqJKc5Rz7gPE0/L5moaiCw9/qh3Y6DkdvOA/NGCpqOa5SviRVsjvOFKN1OGxlmGzDeb7W35fUrO317Tw0vfHwe6eyZ+QHVW5amMRjsuc0T7g2Hsf3yvVw+upnaftZVz4zm/nKAufp/B1d0ocfW+Opj8X47Jot6sjhki4Eoq51o1PrS9Hh9Bx+T9Ru7SjrDcuZl3YSUYcTH35vq4zcHe3pjPzEjycxzfLXh62GQgiFwgjH1zCSLaC0vYTOvp9ffVJx8DyEcEoB9K3JZAkoKinEw9HG2xdRF5HxZGm89voeTOKJDAAK3rrcL2n9uV5WCks2w2vHsVTQnrUqdhkWixixPa4aY8H6tNoYJmu8puX1btnGP4jkUtLmdQbx9YRkk96j9efaE2m5gKXGY43bFlM59yMUAFL2pc2wwUEktwttflIvIVuy+cwGk3iZlQAUsfaH+UtE5DwbPU0drBl+bJy33XU3mHwCGUBx7Q8Ow29JL9e1rC+JeoP/Zb2ldhJRh2uhU19GLqoN5ZSyJbgdndre/MMYNgq8LEOCNmQ5HJh9LBUoioxCScX20hKWlpawtK2ipDfIU8/5pdITHOakhoclgUyMylCG46g1oxOuvK3fV1nK4mGjMmwboz5M1mG4buP4y1hfzyE3O4vZaBTRaHXufDsYc3azDU+qvTGVDopwnCcMoPp+tYk0AaeXGvx6AtoIZrvJ0W7OcxBfjACAgng01+D7tIw/1opwvu5qh1KTF6xrNawviXqDX2W9xXYSUYfz1qkv5xANhZEqSpALPsw9cZ3/IJJGgV9awraqolTIQioqiIdnA1EgGz3d4pdKjxCek2qnBK1P2WjRqgadypZicJoba8dYjC+MeDyFlLKPfQAjIzJkuV093mZzdv2ISfQ1fTb4hT6v3bTYmOB5ji+VoLWhUoiHnRYR0q87KIiHzIvvVZ/qtvFeTe8JYl2rL3BZ9+NxIUgz1/WljzEQkf/8aRu32E4i6nDCC+WVc1HtqY6UReGl3VBOE8fFeZwbwEL52xgcT+Jldg3hlIK360sYN9+NE43Ht/T6U7Ci04JE2tBlRdnH32UIvwdEnaqcu4O4UgTkAkqWKQflXBSO6/T1WEwts1nETPw8B5HcVvF1eR3P7/wIpagtIpSSZBTqhl2bFyK0I75Ceq8LbF0bfohC4ZbNEeHa+PysL93GQEQdhG1jolYIdeqNRoAkF/DSOge4hjHk0qng2d8tc59/Y4PatwL2qzW8YDx+pxcdWk3UjJtVrt3cpfZTdah2waZ8a8PX28lNxd/umDqksVE6QG3k3s9zcHAcS9vjWEIZ67N3EFcUxGdv6SvlG9fdCG4tdfpaJsER3LoWwOAgxhvu+XYO9WXTGIioE/nbNg5CO4nIO/fD78s53ElpT3m2mzYCjIWXrAs16dbfagtKTXxdzUco/yaharf5MVJ5NCEaj9/pq40h2/RYx1sF6JihvBQA1TnQjuu76Ndhe4b7e9GosjSezrVDk/LoS0zG+9/gNct/YK2d9y2Ka3B6KW1NAfO2QO04z0GML1mHP7q47khMoOtaN1hfEpE9f8t6ENpJRC1wu6Wd621xqkc4bHNkvw2MaP6FrN12FGp1q51GW2y5iMf/9MY2UvXn7HYbKOocLW1p57B3itNWbq1taWe53prE0Hibq8ZbvtXH2fyatz0vfes8+/LgtD2W6Xzr93xTs7KR3mNMdhy3klNVtWTZhs7VOTgx5WVzTMnYarDmb6LnWVJLtnsH2cTa8LrT4sk2ef+41VdV8Ova9sd8PvUlt7Qjunitl/XWt7QT+f4lunjGNe9y+H31Sc7a81kcOCUbvoWHSePOv7Y1hBJXEA8rkGQZIwD2FaW6nUQr+R8oiKcUQJIgj2hzOff3FRSLQGWrp5qDReI5j/SDSL7MYi2cQiocwpokY2TEdA5SFi/bvSgSdbfB6hzXeFiBpF9TwD4URXtELBe2bbZbO7cAkXwiIxVXkApHsSaPaGVkX0GxKCObBVJ2q6qFh7WV3FN3ED0YwQj2MXxrG8mGY7218rgfV5CKh5GSZMj6e7GvFFGUsvi6lZhsT894/4s1Zdp4/yU5i+x+qn0Lx0kyZKQQDq1B0uPGvgLF+A58ad6aTPw8//gxjFRcquZtvHeQarc9c7zuar//yI1uqGvdYH1JRHZ8Lusd304iaoG7J/XGnbMmP7ZPjbKqbD5Wsrs75iH/UkHNypJ+x834u6RKcqHh0y538ZxferVUUGVJMp2npMrZxudAnacjntRXElivKaiS03V4rk/qjfDkmnIryVm1UGpyXjXHSKYnv02ectt8T9i9F55iclD/HSCpcqHU4P3y+KReyqoltaQW5NrvDyN2+9jcn2cpK6tSzfdys7yzttdd/UiJenyCaeieutbV2XZUfckn9UQdo4Wy7qqcibSTiDqccc2HTk9PVaODn06nsbi46PZ+ABHpzs7O0NfXd9FhEAUSyw/1Al7nRP5jOaNeY1zz3vapJyIiIiIiIqILx049ERERERERUUCxU09EREREREQUUOzUExEREREREQUUO/VEREREREREAcVOPREREREREVFAsVNPREREREREFFCfpNPpml+cnZ1dUChEwcayQ+Qdyw/1Al7nRP5jOaNec3Z2hk+ePXtW+UU6ncZ//xe6wJCIgumzT1WWHSKPWH6oF/A6J/Ifyxn1ms8+VdHX18fh90RERERERERBxU49ERERERERUUCxU09EREREREQUUOzUExEREREREQUUO/VEREREREREAcVOPREREREREVFAsVNPREREREREFFDs1BMREREREREFFDv1RBQwG5i71IfwzUWcXGQMN/sQvpnE1oXFQEREREQk3Kk/wtajGCYu9SGs/0zcTCJ/3OCQ4w3M3YxV0ocvxTC3edSW/E/q8tbSb7UtHr/SHyF/s68mbqefuc0G50KBtfVI/4wfbVx0KOTF8UUHQN2tC+paIUfYehFD+JLbm2Si6duVp4fPhYiEnWwmMWFuJ99MIt+o7U1E+MR90g3M3byN1V0AowlMXgXw4QCru3nsRfP4+OoMT69bDjlexEQ0jT0AkakEhgAcruSxOh3B4dRrrC3EWsh/A8vR21jFWCVvfMhjdTePmegBHm9vINHfSjz+pv/8W/0cHRyu5LGHMVwZcE5DAXW8iF9W9H+v/I6thRiutfs1Nhcxl00DKZtySa3rj+HpuzM8veg4qAt1QV3r1vERtn6dxS8rO9gDAAy3N31bY/DwuRCRsK1HMcys7AAYw+TUMIADHK7kMT/NckbUSOj09FQ1/pNOp/HPJ/+yT3m8iInoG8StFXilMZHA8v/lTJ2TDcxd0hoCtZX+EfI3I5jftfzeQ/75F8CXd2O4bEp+spnEjek8MPoM79/dN/1NMB7f0zewmUR4Oo9IZg9rd9mrD4LPPlXx3/+FXKU9eRHDjcwOIqNj2Nvd8eVzNl5jsisrQL2s1ZVxCiqR8tP1Al/XurP1qA8zKwAwhsnMd0AmjdW61/aevu0xCL9v9XidEzWht3/rvleONzAXve2qzLOcUa/57FMVfX19IsPvw3hg1yntv48HUwBwgP8cm36/+TtWAUQyS5ZjBpBIJQDsYP5X89BjwfwRQ8LSyACAy9e/wSQA7B7WjpAVjcfv9I6OkM/mASTwgB36LnSEv37bAZDAg5+/QwTA3m9/XuDccCLqLAGvawVEpl7j/fYGnt4N+5K+vXmKvm9EJMZo/47h8c+WG4X9MTx9lQCQxy8vOAyfyI77Tn1/DNf6GyXYwUdTOdv6dx7AGOIxm46p0Rj4UKp2ZgTzb2p0CObsROPxO72jzRzmd4FIJtn+Idl08fTPF1Pf4Fr/PxAfBbD7Bn8dO6Q/XtTmbz7agCEbDl8AACAASURBVDbnM2mazxnD3IuN2mtqM4nwpT7cyOwAAFanbdZnsOb5SJ8ra1147ngDebv5o7bz2moXrxOeDyf0Wk14ycvumEcbOKmsf2GdZ9tgsb5j/XOqWTcjhjk2RMiNgNe1bl1bOMPaQgyXXR4smr7tebb7fSMii4/4uAtg9Dt82W/z54Eh7UFI+WPrL6XX+eY6WqvziYJLYE59M+b530f4zwcAGMbn/XZpr+DKKCp3+N0N23M5v/y4hEMAuBo25Ssaj9/pnfApfbczGuCP72lzXBOpBOan85j/dQMJ6xoNNUrI37yNeYxhciqBIRzgcGUHq5nbWC2/Rsk4dmAIk1MJfc4rEBlNYEhfu8Gu/Gw9iujDTy02k5iYzmtzdI35ozjA6koee9N5FBpMGTh+EcNMZgeRqdrj5p2Oa+G12hK3aT4yTMccrtzGjQ8JrVPk2hHy30e0GzejCUxOab89/JDHaiZS+1kRedLJdW0v4xo4RL7qD2MIwN6HEk5QP3rINZs1SPAhj9WV27jxgdP6KLha79Qbi37V3Fkz7rY53cEfwOdXAexqw9Ua3v22zd/OEU42/8TD6TT2RhNYrmk4i8bjd3qHU+BT+i63gffWa/n6N5hEHqvNFsxbSaMw9RrvF0wV2T29YjIf238fTxeAkxcHWN3dwVAq5zyn/sNP+GU3geXtXO01ebyod4zr//Z0QZ+/m4lg7orNfP3dNGZ2E1je3qg9zog1M4t8zDK/1+trWXnKawNz0TT26uYjA1gw5iQ3eV2rq8+w/PN9SzlPann5tTAidb9A1LU9yPX7RkSNGTch3+Cv4/s2i13rNxKFblJaGXW+tZ2Qw8yLGG5k0nj44h9cz4oCqcV96o+Q/1672zWZ8uPOVrP89SGwl/oQvhTBjek3GMq8xvt33hfOuTh8St/tTl78pM19/fYfpms5hhtTAJDH+4bbFybwYMFyZ7oyl7PZsQ52dzD0KlfX0N/6VS9zNn8DjHltwOq/7daIGMNj600CPdbnmTEAOyhsVMeotvZarcdd+Uzq5iMDwAAS714LPqkfQGLB2qHXfv/lt2Pw/FlRj2Nd25n8/lyIeolRT+5g/nvr1LZqWWuFUefbtRMu3/0Bk+A6RxRcLXTqq0+xIpk9H1bYdpP/FVyZSmBS/4lAG458o637556T4z9RMOZaX3Qs5ANjgbz6ua/X7j1DBMBq1mZ+tsHhSVz/4Jj3kEafYaauXBnDeRO44VSmjXm6K7/X7+fc4GnV5dh3lvlwLb5WG+I+Ltt/JlX6kwNhR9jaXET+URJzN2OYuFld54BIDOvazuT350LUey7fXcLjUQC7ady41IeJR0nMPYohfCmCeSQwOQrP63iYFyq2byfUTlciChpvw+8r81HGMPlqCU+vt/nJsuv8B5BYyFX/u5DDyeYiHk6nMRNFS1vdnDftKWN1rjV1mcpNmx9sVk/+B+Kjaew5DTkD/Jm3aptns+G8QLXiE3y9uvlw7XwtL3k1m4/sxRG2Hs3qe+wCwBgio8DQ1QSGrh5gdYUdexIQxLrW2JLK6jy3oPQ7Br8/F6KeNYDEuz18/mgWv6zsYG9FXyNn6jWeLwDLl/KApxvtQKWdgDxmLuXbFC9R5xDu1Bv7X2PUbt6oheO8F+fGtFD+Ni5fv4/nmTe4kcnj/WYO18x340Tj8Tt9hc1ca+oqxtBwrNxG2G5hOgDG0PREt06/6IGFtU5e6B166/oH0L7bVi8sMgqawNa1A0ksv/rG5ogr51fufYyh1feNiJoZwLWFDVxbsPz6eLFNbYgxTE4NN/i715EARBdLqFNvVGbaHbNGK08aT8ScFuexf6rmPv/GLl8ZBrCDw49HwPUBD/H4nd7C2Ge4Zq41dQ/9pg2AyKjTcPkd7O0Ce5kctu5e5AgTN6tlu3kqbuPo0DIfrp2v1UpeLhYRc6U6tG/Z5vtLG+pP1Fxw61oA/QO41n/BNyZ9iqFd7xsRiTvZeKOtX/GV1xGtxvflMG4sBGckL5Fb7ufUHy/iYUZ7ArXWtDKrLnZhXhSrwq4TK5R/YycfDwAAQ5X9ZUTj8Tt9rYb7DFPw6Z8/pl5j7d2Gw88ZlltZ9K5t9NWyG8VhnI/d3fLdN/jr2P4w7To3V8gtvlbLcRvHOJRboDptwpVGNyCMJ6ZETQS6ru1ibXzfiEhUs/nwbrhoJxAFmOtOveic78oqkpmcZSGdDcxN52Fd5V00/60X9gv0nGzqFa+l4IvG43d689+1p7jtnNdLncPY1aD53eVrXyUANFkwzyXtCRq0J2iCKgv3TduVMeN6diqrdqvWAiebScysoG5xvtZeq/W4jWP2MrPIW485Nra+ccu8HU/tX05ezIpvjUc9Keh1bbfiujdEF+UIW4+0RSknX7X2hL1xO0Frq+TZ4aeAcjn8vvqUqfBrEh+dkg1+g5m7xh1sbQup1ek8ZqJ5RKYSGAJwqC96UVswPeRfzmMmkwdGxzB5Ve/AfMhjbxeobKtVc7BIPOeRXmfMM+aq993JeNJru9K8hbFnfaMF89waGKp0VifKwxjCAa58tYGEm8Z3f3Wu7Ew0j8hoAkNXAaC60Nvkqw37+EYTmEQaNy69QWRqGEMA8CGPVaNc/mxZpKqV12pH3JVjdjAf7UPBckxk6hkef0i77JAPIJFKYH46j/loDAX9/LXvpQQeZ4B5roBPDXVDXduNvHwuRCTseBET378BrurtB1P93ZZdJhzbCbXfmURBJLhQ3g72Vnacn1yNDmHmruku9vUc3r8awnI2jVW9sGA0geWf7faRFsv/2r3XeIyfUFjZwequ3lAeHUNk6gfnuW6i8fidHqjMM44MXnE6awowYw6Yu/USYpjJjGE104YF8/rvY+3VISam83qZGsPjr9wffvnuBkqxDcx9/xNWd40GPBAZTeBBo+sZQ5h5t4cbj2bxy0peXxhuDJGp7/Dgnv2iUt5fqz15Xb67gfdXFrVyaxwzOobJV1oDIn8z7T6A6zm8fwU8rLzvQGRKW1CrfyOGefc5UU8LeF3btQQ/FyISpO2SU/keg1F/J9u2Tka1zn9T1054nEq6e/hB1IFCp6enqvGfdDqNfz7510XGQxRIn32q4r//C110GBdoA3OXbmP1PLetOhfdel6dheWHegGvcyL/sZxRr/nsUxV9fX0CC+UREfUa1wv1ERERERFdDHbqiaiHbSD/aMN+YcLjRUwILNRHRERERHQRBOfUExF1l48rtzG/Am2RP2PBHNNCYJOvllpbtJCIiIiIyEfs1BNRD4th5tUzQF8wZ9VY5X608eJ+RERERESdgp16ImqDGJ7+3xmeXnQYHly+fh9Pr98PZOxERERERJxTT0RERERERBRQ7NQTERERERERBdQn6XS65heffao6JCWiRlh2iLxj+aFewOucyH8sZ9Rrzs7OEDo9Pa1c+el0GouLixcZE1EgnZ2doa+v76LDIAoklh/qBbzOifzHcka9xrjmOfyeiIiIiIiIKKDYqSciIiIiIiIKKHbqiYiIiIiIiAKKnXoiIiIiIiKigGKnnoiIiIiIiCig2KknIiIiIiIiCih26omIiIiIiIgCip16IiIiIiIiooBip56ImljHbCiEUDSH8kWHQkRERERENQQ79WWsz0YRDYUQ0n+i0VnkGrX0y+uYjUYr6UOhKGbXnQ4Qy79cl7eW3jF74Xg8pDefSy6KUGgW6y5Si6en4CgjFw3VXKfm6ykanUVuvcwOMxHpuqCuFdIJ9aWbPD18LkRkwnJG5JvT01PV+Ll3757qrKDKElQAKiRZlWVZlSVJ+z+gygWbQ0pZVdL/LsnaMdX/Ww8Qzb+gyoAKSJW8K8dDUrOlVuPxkF5VVbVUUguyVEkHyKpDSm/pqSOdnp42+GtJzVaubUmVzD+Vz73BdetFIavKkkO5FM9MK2tSVm1XeERmjctPr+mCutatTqgvXefp4XOx4HVOPYvljMg3xjXvvlNfyqqSXQVeaUxYC2i1IVB7jNHBsfzeQ/7ZbKGuk1EqyPqXgbUDIhiPcHpVLcjVho6czerHOzc6RNNT53LXqXf6bLXKTqTSaqaUldqWFzv15Dc2wkwCX9e60wn1pVCewu9bPV7n1ItYzoj8ZVzzAsPvv8CT0jaSg5ZfDybxRAaAffxtHhqz/hYKACn70nLMIJJPZABFpJ6bB98I5o9xJJPjqEs+fgsyABQPUDL/QTQe4fg1klxAqbSNpeQXdX+zI5qeutEgxpe2USrIAAAlzikYRL0r4HWtgE6oL93nKfq+EZGB5YzIf+479YPjGLcWshpFHJhq9vW3CgAJE1/bHGQ0Bvb/rs4jFsy/KWkYYdN/ReMRjh/A+JKK7aVxDDY8D+/pqbsNji9B69creGvt1ZfLWM/NIhqtnY8/a51ktj6LUCiEcKoIAFDi1fSz6x7ys1Fetxynrwlgn1jwdcrryLmdS6enrVmfYHadaxNQsAW8rnWrE+pLoTzb/b4R9YiOK2ci7QyiAPmkfVlJGK7U7GX8vQ8AI/jCtnCGMSyhcoffXR1tzr+B8t/QXvoLU76i8fgRP1Fz47dkQFGgvF3H0vi4/tsycnfCSBUBSDJk7YE+9vcVKKkwlIMC1CU9bXgYsiwD+wqUIiBJMkZGtD+Zy6fr/CxKuSjiqSIkWYY8AgD7UBQFqbiCtWwJ2zW31wVfp5xDNJyCllzWOiN6/iOlpdqCZkmrhaJAUeII72dR2k6yXFKX6uS6tpe5fN+IqAUtljORdgZR0LhfKM+BMc+lZl5d8zm42hwbF4vs2OZvm1AtFYy0DnMOXcfTjvgLgnP+RNNTJ2ltTr2Z3bVXUrNyVi3UXWvO+TaeUy+an3Ft6n9znOtmM6dX4HWcy1RJLdmud1Efi3HeUttWHKTzwDmQLgSirvWqE+pLj3m6ft94nRNddDlz384gCg4Pc+rtlJG7o93xkp/48WSsWf76/tmhEEKhMMLxNYxkCyhtL8H+OSNREA0iuZS0GZI2iK8nJNgO1/clPwnZ0lL9cYNJvMxKAIpY+8M8fk3kdRo9cRysGbZXzv0IBYBcqI9lMPkEMoDi2h8chk9dhHVtZ/L7cyGi9pUz9+0MoiBqYfh9GbmoNrRWypbgMFq3BW7yD2O4MnwG2FcUKKk4lDUZhZc2nQ+iQCtjff0P/P32AAf7+9hHEcXiOeYnTcBu2i4ADH49ASlVRPHAbpCvm9cZxBcjAIoK4tFhFF7a3QzQ8vpjrQhAxi2n7wROjaGuwrq2M/n9uRBRe8uZ23YGUTB5e1JfziEaCiNVlCAXrPNo28B1/oNILi1hSf/ZVlWUCllIRQXxMFcQpwByWBNifTaKUCiMeDyFlLKPfQAjIzJkWfLyIm3OD8DgF/q8dvPikWKvM75UgvbAP4V4WF+4pm4BvhIOigCgIB4yL75XfYqYaulGB1EHCWJdqy/WWfcTzZ3f6Bm/Y/D7cyEiX8qZu3YGUTAJP6kv56LaytpStvldLsenZc5DYITytzE4nsTL7BrCKQVv15cwbr6rJxqPh/iJWlI60BZwMa0EU87dQVwpAnIBpaVxy3pxUSiCL9Hu/LQD629GiL/OIJLbKr4ur+P5nR+hFBUU4wpSkoxC3TBfCbI80iAgbytyE3WKwNa14YcoFG7ZHBE+v5EzPsbQ6vtGRM35V85E2hlEwSLUqTcKmSQX8HKpft/aKmMIrLafZH1h1J+2WbbCcZ9/Y4Pa+BrsV15cNB5v8RO1pozcj9btqarDzQs2ZaJ0IPpYut35VQ5E7ZHeX2dwcBxL2+NYQhnrs3cQVxTEZ2/pK+UbZXMEt5ZYAVN3Cm5dC2BwEOMXPTnVpxja9b4RkbPzKGeN2xlEweR++H05hzsp7anbdtNCZiyEZV04S7f+FgoAaeLraj5C+TcJVXs0gZHKownReDzET9Si9Vl96Lj8BNVRZo1uIBlP4US0kF9xDXbFATD2ygbkykT3dsQ9iPElbeE7KG/1Ib76nDjhxQGJAiLQdW0Xa+P7RkQOzr2c2bUziILJdad+/XkKRUjIPnR3F6uyCnXqOWqnq6xjNq4AkPHEND9GNP/13CzspsGU1/UvBMtCWqLxiKYn8qy8jtloCHEFgJRFqeZOsfEkrr5DXc7dcZw/rj1Bg/YErYa3/DRFpO7Uz0ktr89WYq8WX9HXKaPcaF6b6ebA+MMsJABK3Ok7YBY51swUUEGva7uV6PtGROL8LWfu2xlEQeRy+H31ydra81kcOCUbvoWHSePO2jiWCjKUuIJ4WIEkyxiBtmpuEfp2VK3kf6AgnlIASYI8ondg9hV9VW19662ag0Xi8ZKeqBkF8eg+zEvEFU3LwNsPNRtE8omMVFxBKhzFmjyiXYf7CopFGdkskLLriYeHoa0FcwfRgxGMYB/Dt7aRHPeYnxYgZKQQDq1B0o/DvgLFKHMvzVvNiL/OHz+GkYpL1byxj32liCKk2m1sBqtzeeNhBZIkQ/8KqCmfRMHTDXVtN/LyuRCRGP/Lmet2BlEQnZ6eqsbPvXv3HLa1L6lZCSrQ5EfKqiXrkYWsKpuPlWS1YE3kJf9SQc3KkirV/F1SJblQF4N4PN7TVxVUGVABWS24SS6cnjrJ6elpg786X9+SJKlytqCWmlxTpYJcc61LclYtlFS1lJVUAKpsd9HUHCOp2YLX/PRrU8qqJbWkFmTJdA5S5dhW4y5lZVWqeZ+a5Z1VZUmyvJ+ymnVXQKmDNC4/vaR76loxnVBfNsrT++dixuuc6GLLmWg7gygIjGs+dHp6qhod/HQ6jcXFRbf3A4hId3Z2hr6+vosOgyiQWH6oF/A6J/Ifyxn1GuOa97ZPPRERERERERFdOHbqiYiIiIiIiAKKnXoiIiIiIiKigGKnnoiIiIiIiCig2KknIiIiIiIiCih26omIiIiIiIgCip16IiIiIiIiooD6JJ1O1/zi7OzsgkIhCjaWHSLvWH6oF/A6J/Ifyxn1mrOzM3zy7Nmzyi/S6TT++7/QBYZEFEyffaqy7BB5xPJDvYDXOZH/WM6o13z2qYq+vj4OvyciIiIiIiIKKnbqiYiIiIiIiAKKnXoiIiIiIiKigGKnnoiIiIiIiCig2KknIiIiIiIiCih26omIiIiIiIgCip16IiIiIiIiooBip56IiIiIiIgooNipJ6ImNjB3qQ/hm4s4uehQiIiIiIiohmCn/ghbj2KYuNSHsP4zcTOJ/HGDQ443MHczVkkfvhTD3OZRW/I/qctbS7/VtnjE059sJjFxsxpP+GYS+TampyA6Qt78Gdf8xLRrfPOIHWYi0nVBXSvkCFsvYghfSmKrURrR98TN6wrmyTqbyH8sZ0TiQqenp6rxn3Q6jX8++ZdD0g3M3byN1V0AowlMXgXw4QCruzsAgMlXZ3h63XLI8SImomnsAYhMJTAE4HAlr///NdYWYi3kv4G5S7exijFEpoYxBAAf8trxGMPj7Q0k+luJRzz91qMYZlZ2AIxhcmoYwAEOV3aw5/D+iKanzvXZpyr++7+Qw1+PkL8ZwfwugNExRMx/2tU+b43DdevF5iLmsmkg1Y7rSC9ro8/w/t19XG5DeERmjctPr+mCutat4yNs/TqLX1aM78EElv8vh2vteE+aEs+z1Tqb1zlRcyxnRGI++1RFX1+fQKf+eBET0TeIWyvwSmPCWhlXGwK1lb7RwbH83kP++RfAl3djNZ2Mk80kbkzngboOiGA8ouk3kwjbve7xBuait7FqjV80PXU0d516p8/0CFuPZvVKrD03dE5exHAjs9Omm0Ps1JO/2AgzCXxd687Woz7MrADAGCYz3wGZtHO9JxyzC6J5tqHO5nVO1ATLGZEwo1MvMPw+jAd2d+T77+PBFAAc4D/Hpt9v/o5VAJHMkuWYASRSCQA7mP91w3v+iCFhaWQAwOXr32ASAHYPUZNcNB6h9EfIZ/MAxvD4Z0vjpj+Gp68SAPL45cWRx/TU3QZwbWED718lAACr042GoBJRdwt4XSsgMvUa77c38PRuuElK0ZjdEMmTdTaR/1jOiFrhvlPfH8O1/kYJdvDRVM62/p0HMIZ4bKA+qdEY+FCqziMWzL+p0SGYsxONRyz9R3zcBTD6Hb60O4eBIUQA7JU/6r8QTU+94PL1HJanACCP95uWPx4fYeuFZY7ZpRjmrJXbZhLhS324kdGe+q9OV9PPbXrIz4bQXDfR1zneQN7tHFc9bc36BI82uDYBBVvA61q3ri2cYW0hhstuDm53zMJ5ss4m8h/LGVErPmlfVmO4UmlTHOE/HwBgGJ/326W9giujqNzhdzdsz5x/A8clHALA1bApX9F42hx/fxhDAPY+lHCC+iceLaenrnHtqwSwksfqvzfw9LoxD/YI+e+NOfkJTE5pvz38kMdqJoLV8muUjDmzA0OYnEpU5rxGRhMYuqr9yVw+XedncfwihpnMDiJT+hxUHGB1JY/56TwKmT2s3TUXUsHXscwLnkQ1/6GjHGp6DjZziPEhj9WV27jxgdMEqJt1cl17UVzG7FeerLOJ/MdyRtRQ653640X8sgLLnTXjbpvTHfwBfH4VwK42vK3h3XLb/O0c4WTzTzycTmNvNIHlmk6JaDyi6Y2G0xv8dXzfZoE+vfFTaViJpqeecf0bTCKPVWuldfUZln++bykrSW3O7Mrv2FqIaXPM+u/j6QJw8kJb8GkolbOfU+82P7PdNGZ2E1je3qg57uk9vYOdmUU+ZhnOKvA6W7+msWez8NbThSOcHJuP38CcMed1O2fKO4eZFzHcyKTx8MU/LDcYiAIuEHXtOXMdc6t5ss4m8h/LGVErWtyn/gj577WnZZMpP56MNctf3z/7Uh/ClyK4Mf0GQ5nXeP/uvBeYG8CX344B2MH899a9vKvn4D099bYBJBasHWPt99p1ZDNc35f8xvC4phOt67+P5xntei5smMfAirxOoyeOAzVDdE9e/IRVAJOv6mO5fPcHTALY++1PDsOnLsK6tp4f74lTnqyzifzHckbUihae1Fe36Ypk9nzYfs1N/ldwpTJMV9vCZzVzG6u/JbD8s03nw0eX7y7h8W8RzO+mceNSWh8SfIDVlR1t6PFoHquoPk0RTU8EHGFr80/859+H+PjhAIfYwd7uOebX4GnY5dh3iGR29Llu1ifkbl7HeKKYx8zNIZun+9W8/vptB0ACN5y+E4SHGxN1Mta19fx4TxrnyTqbyH8sZ0TeeXtSf7yIiUvaVjmTr6zzaNvAdf4DSCzk8FT/Wfu/M7x/9QyR3Txmoue9gvgAEu/2sDyl7UO+t5LH6sqOtrrvu28Am06MWHrqCQ5rQmw9iiF8KYKZ6TTmVw5wCGDoagKTU2MeXqTd+aEy161mQS7B17m2sIfHo9CG+Uf1BfLqFuDThxsjj5lL5sX3qk8R51l2qFsEsa7VF+us+7lpffLmY8yiMbh6H1hnE/mP5YzIK+En9cb+1xi1mytr4fi0zHmorVD+Ni5fv4/nmTe4kcnj/WYO18x320XjEY5f25rs2oIl+fGiw4JCoump6x0daou/DV6p/Orkhb6H/dRrvF+w7BX9IoZVwZdod34AbG9GiL/OABLvzvDl8QaWv/8Jq7t57E3nMT+awHLdMN8xTE4NNwiId/Ip2AJb1w4ksfzqG5sjrrRcn7mOWSAGsfeBdTaR/1jOiLwQ6tQblV9k6jWeLzRaedIYAuu0OI/94j7u82/s8pVhADs4/HgEXB/wEI+3+J2cbLzR5uh95W5BIdH01C2qe7RWt6eqDjdftikTx+Ud4ddob35GtoeWuW7eX+dyfwxP38XwFEfYejSLmZU8Zh59o6+Ub5TNYdxYuMj5vET+CW5dC6B/ANf6279IpVDMLmNo1/vAOpvIfyxnRI25H35/vIiHGe2p21rTyq+62EXtwlm6zd+xCiDy7T+q+Qjl39jJxwMAwFBlPxrReDzE76jZHOBW01O32HqkDx2f+sG06mujG0jGUzgRLeS3+wZ/Hdv/Sdsr21zZtiPuAVxb0Ba+w8rv+hBffe698OKARAER6LrWJ22Muf15ss4m8h/LGVEzrjv1le2m7rm7Q1ZZhTqTw9ax+S8bmJvOA0jggWnemmj+Wy+Slnw1J5t6RW0p+KLxiKa3d1TpqE2+cvNUUTQ9dYXjDczd7MPMCoDRZ3hfs0WUeYuX2sNOXsw6zh/XnqBBe4JWw1t+GrsVaYGTzWQl9v9v7/5B4gbDOI7/nB2cnDpUtBB0C4EsN0jFw6UWukiHO8gQKVboSaHCcR0OytHSSR3s4hA4h0MKQodbFLofyG2KYEs7d3HpfB2S3J/2UkxqeuT8fjb1zZPXkOde35j3ed1uzsU9z1d9/2P9fJ++hwOLG29lSmoUoz4DSvKY8COjsj7WpiFun/9fTMZsIH3kGXATN3z9vvefteaHkr5ENXvwSO56+MQ7rzd1R42iJzfnBRUs/aq5bf2emAniX3lyq55k2Xo6H0xgLrygqnaw9dbAwXH6k6D9t32tvTiW5hf8gmFhtU5FVOeN2x5jwJP7+Fxm33faZ73X0Ie/AjorZ8tRreiplsurWfDvF/9ed1SpSrXqkFfZZw2/yEz1mdauFmToXHMrJ3KWEsaT/MqzKmv53rHM4DhdeGqEObc3uAVU3PN83jFVK9q92DrX5WFLbdmD20vN9NbyujlPpuXImPd/1J+fQPaMw1h725JckxRiMmYD6SPPgMRiFsprqX3Yit4n0jLkrvc99V7a1Wnd0MFOWY3gDwxZf9sC5+bxFzc+qqL3ah621AgnRpYts7AdvTYubn9itferf3fbSTItR5t7pYi1fXHbYyycDd7fpmXLWN2Wm88P7MU+YGlXp3XpVdHr5odZ8Is6zZzkVRt2zMxzHdUvtdY9xlZl5R/iSZIMuZ/aWg7Wufu/hy2z8ESbG0MKTMU6z6werjpqyuv7DLD99kNi318/0encvg52jv2Cemfh9XRU2SrJYeBHpmV8rE1FzGtydyLMpgAAAGVJREFU6zEZs4H0kWdAUhPX19ed8ItyuayXr9+Nsj9AJk1PdvTj58SouwFkEvmDu4D7HEgfeYa7Znqyo6mpqYT71AMAAAAAgJFjUg8AAAAAQEYxqQcAAAAAIKOY1AMAAAAAkFG/AGeWiCkl67SuAAAAAElFTkSuQmCC;" vertex="1" parent="1">
          <mxGeometry x="960" y="-10" width="718.44" height="300" as="geometry" />
        </mxCell>
        <mxCell id="iAH6zQvwI0jVcYzAp-XG-4" value="" style="shape=image;verticalLabelPosition=bottom;labelBackgroundColor=default;verticalAlign=top;aspect=fixed;imageAspect=0;image=data:image/png,iVBORw0KGgoAAAANSUhEUgAAAo8AAAGHCAYAAADRK7iLAAAgAElEQVR4nOy9f3BTd3rw+3GXnXlphx+TdIcupAGMHYLDpHW8OK3cXBpiAzaUm3TA4eY1sTpL5DjZjTWbZcHj8MaZxOMQmrxSNuBYkKkAz17XYZY0a+QQs+xyU9TFrOM2A/YSOQbyBnbzbjeXhGnT3mWr+8c5RzqSzpGOjiTLsp/PjGZs6fvjOef76znP9/k+p+j69ethBEEQBEEQBMECs/7nud/mWwZhBvK/f/g/6OzszLcYQo5pbW2VdhbyhvQ/QcgNv5dvAQRBEARBEITCQZRHQRAEQRAEwTKiPAqCIAiCIAiWEeVREARBEARBsIwoj4IgCIIgCIJlRHkUBEEQBEEQLCPKoyAIgiAIgmAZUR4FQRAEQRAEy4jyKAiCIAiCIFhmltkPHaNXuflfYWbP+grfu/PrADx3/hPlx6Iinr1rUSTtnrFf8h+/+x2zfq+ItrJFRsUJQlr80eHL/Mfvwtzy377CxP91OwDz/+4SAEVFRfy/ziWRtEt+8DHX//N3/LevFPGrR5cYlCZMVaSdhXwi/U8Q7GGoPGqKI8CXN3/Hc+c/4dmVt0UThMOR7yIKJXDzv8KJaYVpy3OjV+G/Urwa/feKeDbNBwptQgf47D9+x/y/u8T1v1ka+T0cDke+0yZ6gP/4XTghrZA58w9dttTO1xuXpFWutLNgBel/gjD5pBp3hsqjpjjGK4fad4Dp98LM4dmyRckVSBuKIxCZ0OMnbe07wPR7Iftcb1ySfCKxsXCDtLNgDel/gjD5pBp3pj6PmjIYrxR6P/wV3g9/lT0JhYLm2bJF8HtFiT/YVBw1tEk6frK+++gn3H30E6MsQg653rjEtJ3tLNyRcqWdBQtI/xOEySfZuDNVHp87/0nko6fljj+CcDiSJj79K7/4ZXaknlL8mP6Wr/Fcy9OEJrvemq/xXEs3n01qvemRoEBmqDiC8sSvffR8sPk2PticaOX++a//k5//+j95/1//v4zqFcxJmEgyXLhB2lmwjvS/6cAEXWvnM3++m8GY7wdxr53P/LXx31tlEPf8+cxf28VENsQUIpiNu6SnrY22op87/wnXf/u7yP9h958Sdv9p5P8bN3+XkKfguZZvAaY+EQUyC4qjhtEWkTbRz4p7Gqruv0Z1/zXW/OhqVuoWjIlMJFlYuCNlSjsLFpH+N00RjW9KYzTuUm5bb138h6YFht1/SpHnnyny/HOMAjklGeqmv+Vr9A/ZyLvwATZ6f82z3pcpzbpg04dnyxZlXXH8v6v/yPD3f/w/lf75G2fsxH9125Ks1C+Yc71xSdYXbmlnwSrS/6YhxTV43r3O9Xc91ORbFsGQ+HFneGBGb3FcPue/Jfg/xm9lFwKfffIPDI9CRb4FEVKitwTU/vFsU78kgK8UiRN7oSLtLOQT6X+CYB/TOI9W0Fscizz/nBWBBEEQBEEQhKlLxm+YsaQ0XuvmjcjBjwlCnjrl/xrlEMrPhjSHhwlCP3w6+ltNHW/88MfGh0WuqWlbtLRK+v4fxjlPDD3NczVf4/td5wAYboumj2xha/J5fqzI4KlTZdMOqqQ6uGIsyxseA9mv/Zif6a+/5mu8EXMPLGL1+gWY6GLt/PnMdw8CEwx2uZX/589n/vy1uLsGzV1uJgbpcq/VpZ/P2rVuugYNcmj1rO1iggkG9fli8iTKsNaCDPP16d1J0s941Pu7dn7qe5ZO+ybL4x5kwuwwgPS/GUaO+l98P9LaRH9IxKw8o8ay0/ct3wKjMZLsMEsOD7xMGLeH2+imDLoVWQ1vGAy6lbwxP1tpF0hvHKUjc57IyPIIpOnr+CHBlmcY5lEqNqxgAWMMHz/MibbD/GvHWZYH7+UHx1dx24ZHqQA+PX6YT7q28v2Pe3nW/YCunAl+tudeTowCZY9SsUH59tNLhxnuupdhffrb7qBiw6Nw6TDDo3Bb2aMsUHcf/tAgNGXIcy8/OJ7OHfgx/S1bGR4FylZRsWGF+v0Yn14aB3RyDz3NG22H+QRFjoqlSrrh44f5pO0wF5rP8s2/LrZQZxrXL+gYp2vtFlqpxOl0UsYoo/4h/K1b8F98k+ueOG+bQTdrt/gZAiornTjLAEbx+/0MbfFzrPN93m02aq+LvLq2FT9OnM4yytQ8rVv8XHzzfTYcv4ct/koqnU6cwKjfz1DrFu4xkmGii7X3tCoyOJ0oIvjx+7dwz2gn77/bjJUeM3MYxL12C36l0XAqjQaMMjo6DnqPKjvtq2sPdHlG/Vu4Z1RpT3Ok/01/ctz/IlnvYYs/7su4tnISLa/sIw8xDZVB3SkxHSOt3DN6McUYyTYTdD1+D61Dqixq5aOjfvyt9xiPuwwwbBdIcxxNrsx2saU8zv/qVyInruMtj/O/+hXzjKOHGd4Qq9hsdDzNc22HGW67l2Ee5ZFB3aEUdx39NVsZPh4g5H4g9rDK0hd4ZGcTpQv1Xz7Jz1ru5YQ+/cImNrrhsx+OMTx6jgX//WU2VprId+ll/p/RR3nk0Mtx5Zoxwc9UxbGi4ywbK5MMtmvdquKYWP5G94+V6+y6l/7bfm0unx6r1y9E8bdyzPkm73tqogP1KXVQ+48z6KmJTu0TXerk6uTN9z3U6JrW4xnEPX8L/tZ7cJdcJ2EcD/nxO2MHuGeDm/lb/Pi33IMfJ29e1zmGezYo5cXLwCDue1oNZPDwVNda7mlt5fGudfYn+WnHBF3qwu188308NUnui6321dqjks733yXmtnsm6FqrTvhmSP+b5uS6/6mM7mXvUGK+wVeN+6bHM8FEvKXMbt0pyXCM5IKyTt58vZnY5nhKkSWhz2eASbvYGkeTJXMG2Nq2bln+dZ5deZvhp2X515PkfJRH4i1ilXWRQywVHfGnmR9g+QaAw1yM6XDF/Jk7XnFSvr9j9SqD9BYZPceCDquKIzC0T7H+behNrjgCob5n+AT1GhPKf4CNHY8CMBz8sYWKc3T90x4nO/QLN0BxMzucAH6O6/YalYkYnG/GTwQANXjedALgP24UlczJm/Gzbs2GyBO38834E4U1bDCQYaJrL34TGYqbd+AEho6dkO1DjcFXlYXJ+WbyhRt77au1R2Xn6yTqS8U0v/tmCquK9L9pTY77X4ShIcoS8k0wPgpQRolB3yxOUDLt9q3kZD5Gsk0xzZ54JUz5ft1DlcT3+YwwbBc742gSZc6AjH0e06LsDm5N+HIpf1gGsMpwG/nW21clKXCC0FA3P/M8TX9LHW+0RH0b7cn3Ag4rVj+VUPAwsIp19am2iCf4zSWAR1luVr6mRB8PpBGIPMvXP92pXM4yg6+XJTSKNhE72WD2eKctxv7jiUFtDetZprZ9JcsNhDCS4cSxoSQyqOUNXeQjExFnGoPH/UAlnU+leia3174fXRwCKnlonZlisMx8fIP0v2lOrvtfhMpOEqsopqQMwM+WtV2Yuy1mWHcKMh4jOWOCwcEuutxu3GvXsnbtfO7JtgnUsF0yGUeTIHMGZOzzmD1WcKtVix8ThDzf4gfHNUVpFbeVwYKlj7Jg6RjDx20qUEtLuMVyYk0htCL3Jf51FBPlOVK5okSPWqs7J9c/3Skrseif9ZFiuTVZ7BW0QZ+2EAaWgSQy4GfLfH+6lcxAklle4rHTvumUb4L0v2lMrvufDpN+VON5n87Re2gdamXLPa1UVjp5aMdTNMeYsHLZt7IwRrLOBIPux9ni1y6mkspKKCtzUlY2it+fRWXMsF3sjKNJlDkDppDyaJ3PfqgqTht6+bb7gRiF77Mf1jGcN8kmh5l+/TMLvdO9EckWAUHIFOl/hUMxze9eZ93EIK8+vhf/kHL4pbXSyZszNPj2RJeqhMX7GgMTXWvxT5ok1sfR1JE5OQWoPE7w4elzaP6T8ZbC33w82Va3MX5zjRR+kppV8UN+AybWTSvWSZh61z8did1KMH6ItvIEnw0ZytjgmZkTvz1GGZ/AwF9ITybta6X8TJH+V7jkuv+lpri4Bs+7NXgiFiw/W9wb1ANUk9G3JmOMWCG6ZfxmvK8x2hZ7rkl3HE0Fma0xuT6PWSGZkqVtJU8G2uGUc1z4WSqX8WJuXQpJD7IMBRSLYcqt86ly/dOZqP+QqWPy4HHlCdDyVmQOZBB0aM7kQxw7kXo8pt++Wp4k5U+c4FhW5nbpf4VHrvufPZlqPDvi/BdzWfdkjhErJFOCtS12Y4YuGnnyDnLcn64M6Y4j+zJPNgWoPGpWvH/gw2uxv3z2w28pp58NuOU2Jf7ip59k72zgLX/9NBXAJ13fMgjyPcHPPNGg4qX1L3AbMNz2NKE4ueHH9LdZPXxj7/qF9Kh5qpNKwL/FbeB8Poh7ix9rzvG5kgEmBt10ycIeIXJysfVxg0DHE3TpghTbaV8tz1Dr44lBlye0cBzZQfpf4ZHr/pecCSaSBffWKSO57FuTOUZSo1n9jhGvy050PW4cMihyWGhvgvyD7i22tozTG0c2ZM4TBbhtXcyf/fdHOdF2mBONdVzYsIIFKAGyPxl9lHXNcMLoxPFtd3AbiqL3xsdKgPI/dAT4s4xOfikhdj5tO8yJtns5oQv8/enxc3xS9gJ3aEkXNvFQ8z/w/a7D/KDxsC5YefSAS0VHgD9LefjG5vUL6VHczOudx7in1c+We/xUVjopiwTSVUaw8813DcJRTIYMamBnlPAPgoYSZmR0i5/WLffQGhOgeIihyk7WaUnttG8kzxCt98znWFyeSmcnnaOt2Zngpf8VIDnufyk4sfceWrdUUuksU4JQa/VSiXOHLgh1LvvWZI6R1MLQvMNJ6xY/rfes5Zh6X0ZH/QwNOenshNYEQWp4qrMSf+tQYh466XS20upPV4x0xpEdmfNDASqPQOXLfLsDjrUd5pPj55Q3tmxQgmbf+rM6ThjlWdjENzs+VAJ1Hz/HJ6xinSM7snzzUB0/63uZC8eVt9iA8gaZR3Y2xWxB3/LXAZ79sx/Tv+dlhkcP84ku7f+xM434knauX0ib4uZ3ub5uELfmfK6O2cpKJzteN4qRlhsZ3i/p4tW9xxJk6NzxFM3ijBZLjYd3399A16t7Oeb349fdrzdfj30bip32jbZHazRPZaUaFBq61rZm7VKk/xUgOe5/5hSz7iEnx/Az5B9SrXuVVDo7efOpxJiBuexbkzlGUlLj4f034fEt0ftS6VQCcC87sRYjSYqb3+V93DzeGpvnfU8zH7ntyZ7WOLIhcz4oenbw1+F8CyHMPP73D/8HnZ2d+RZDyDGtra0zqJ3Vt3NUymv7pgozq/8JwuRRmJZHQRCEqUbOD7EIwmQzwcTgR6kDwS+rybIlPF/1ClYR5VEQBMESg3S5YZ1BCA3tfcG5PsQiCJPLR7y6JfVBkcrO96nJqgNuvuoVrCLKoyAIgkUu+rcoDvORwxCaMztAJc43jd7pKwiFSg2e69eZ/GNR+apXsIooj4IgCJao4ak3O0F1eo++PaySSudD7DA4mCAIgjAdEeVREATBIsU1zXhqmsUiIgjCjKYAg4QLgiAIgiAI+UKUR0EQBEEQBMEyojwKgiAIgiAIlhHlURAEQRAEQbCMKI+CIAiCIAiCZYqam5vl9YSCIAiCIAiCJYoAUR6FSef69euM/PJ3+RZDyDHlX/+KtLOQN6T/CUJukG1rQRAEQRAEwTKzAL79w0/yLYcwQ/j+X9+WbxEEQRAEQcgAsTwKgiAIgiAIlhHlURAEQRAEQbCMKI+CIAiCIAiCZUR5FARBEARBECwjyqMgCIIgCIJgGVEeBUEQBEEQBMuI8igIOeMkL6+4lfsfeZ2r+RZFyJCTvPzIrdz/yHc4a7eIj1/nWytu5f5nT2ZTsCyThesUBGHaM8vs643VC1g7x+i3m3x67Qv+7uyXXEuW78YNXjz5hUGaFPUZ5Fs4dzZ1lXO5e05U3E9vfMk7Q58x/IWlCoyZO5vtMeXe5IOh33Dw6s3pmT7CLCpW3Erjnb/l0LHPGE6Reipw9tlb2dUH1P89P3muOt/iCFnhEkcf+Qb7Rgx+Kl/FxuYutt63lEWTLpcBH+dbgEliplwnEO1/jbw49gr3WkprnuKu1p/z2qNLuXp4PQ2d5yxJoOVJn0tcfe8EvV1v0T+iq6t8FRvXf5etj1abjJuTvLziYfqNZClvZNuLr3Dv7Smq/vgkR9/4W37ad44LkS9XcVf9g2z75uOp8wvTAhPlUceNm3yq+3fBnFksWHgLux66ybs//pR+M+VtzhzqFn3BQSsml7m/z58YKqoAs6l74Bbu5iafXvtSkWXObO6eM5vGBxbw9WQyJK1zLm0PzGEBRMpdsHA2d1cuoO3aZ3Sc/XJ6pQeYqyiN6xfOYgEAv7Vx4/LAx69zpE/9uy/A2eeqU0z0QsFRvoq7Iv+c48LIOfpd36C/vIOeHzyefwXy9mqe/sFveDrfcljhvdd5uasNmn/D0/el+XshXWe+iOmrUaIqYBl3lcf+dkFT8OLy2lEb+fh1Xt7VRr+myOrKvDByjv6Rh+nvXMWTJ95hczJFTi/LyDkujBxi17rRJPkucfTZZvb1acrqquh1jpzjQt85doWYGuNVyDkplMcvOXQy3jI1i4p7b6Vx4SzWrphNv5GSonL3irksvJra+lixYo6qzBjzq198RmAs1tK5cNEt7KqczdrKubxv2cKpMZvtD8xhAfEKsGoBXTiXjXO/1H1f6Omh4t5FNC4EuMkHv7jBp3fO4e607ln+uPrTt7gA3FW+igsjhzhy+Nvca+tpXZiaNPLiD+IsPx+f5Oiuh9k30kbn4XU2rTMzk6uX3qJ/BDba/F1IhkFfjWPRo6/w2qP6b3QWzhR5U/Lx63xrXZsyH7b+Pa0GFsar732HTtch9q1bD6aKYKIsmsV0367X+fMEBTBqeb2rvsPYwvjxSY6+MZ7J1QkFhA2fx5sMn/2CDwAWzqbCMM2XfHAN1fqYori5c1m/ELj2pVKmQVn9Y4lb5NeuqunnzOLr6YgPsGg2dwOf/uI3cVbLm/SPfQkoivG0Sa/y6bXPePHHn3JwrEAsjgBc4p/eOQc0su3FB7kLuPDOCfEhnO7cXs3mFzukvQUhwiWO7lIUx42+n/Oaydb0ovte4TVfI3COfeus+64uevS7ygPFyIfEv7D47LOq4tj6c157zmRr+vZqNj8nVseZgs0DM7/lVzeSpxgZu8GnwN23JSoxehSr403eHTO3YCblxk1+mWaWittmAzf5FyPfwIhS+lUWTpP0AMNnr9Jx9kuuZeIjmg/e+77iZ1Rfx723r+Mvy4GRt/gnM9+smEMJlzh7+DvK/ytu5f4V63n58EljReTjkxx9dr0u7a1865HvcNSoHjXt/bpyv/WsSbnJZHzkda5yibP6eh/5Dkffu6QmTJT/W2byJ7uGSHkFRqS9Exczy20Q3x+0PPpDTJbaPtXhJ7WtHrnVYr8waNtkfcjK9b73He5fcWvE367fFZXl5fcs/G7pOoW8EZkL/56n70thib/vFV6sBzjEP76XPGmUZSwuB8rv4Db915rbUHkHrbIDIKik9nk05Kv80RySK25f/Dv/cmOO4RZqlNmULwRufMn7X0BdOiLM/aqy1X3jt2luWc/i63MAfssvDWVSFOO7VYvmtYJPX9icPXkIWMWT31QOyWxubmSf6xD73jjJ5qQHZ8Y5+sjD7GMVG+sbWcool/rO0d/5MP0fxR260W8F1Teq23mj9PcdYumVV0D/lB2XdilA6BD9fQ/TEErXP+9Deh9po59GNtaXsVStc5/rEFd8P+cvTn6DXX2rIjJd6jvEhc6HaYiXH+C97/At1yF1e7+RjaXRa7jgOsRPbTvm55OPuDKC4WJmpw3OPvsN5dBVkrKStr0pJ3n5kYcVH7TyVWysL1O/H+VSaByI76fjnH32YXb1xfbNC30P04BB21q93sV3sLG+UfltROkHS0uVIhYvBkj1uzCViZ8LU3HvNzu4q6+N/pMnefo+C3k+PsFPR4D6kpjxc/YN1drZLFZFIYoN5XEWG6tv4W7gg7FkvobKFuraytmmvpELV8zVlZPcQqmvf+Gi3+dvKuew4MaXHEric2lMKsX3Jr+8Acz5Kl+fC3xR6OkNExUIJ/nHPqD8Qf5cW8Tvq2Mjh+hPdXCmr42f1v89Pc/ptna+qS7CcXmVyTHRwfzp5y5xNd76tK6NCzTy4gn9qcRX2Hp4PQ2dafrnjRyiP+70+NPV3+F+1yHlsAhxp0Cfq1NOSsZf+8evq4pjvFzw9HPq6crOb/DyUpMDFFOV9wLKqdBS/WJmsw1Cf8uRkcT7Y73tzbjEUVVx3Oj7eWqLEEBfG0fq/56eMaO++bcc/Wa1TpY0rvf2x3n6Obh6eJT+kXMsbX4lrr1T/S5MXS7xv0IAZfyx1dPMt5ewFLgQGucqZqevFa6+9zqdrjYulDfyYszDi1ZvI38hfUXQkWLbejaN1Qtoi3wW8epDC1g75yYfDH2a+iT11S949wYmvpGzqbtzFty4QSDl/shstj+0iFcfUurfVTmbT3/xGS8mHOYRphNXD/8t/cBd69fpJr5q/sLSdkwj256LmzBvf5xtCXmTTcpLWaT7TpNnoy8xnIXmL5Sef178RI2qHCts9MU71xtfe8QyYCAXVPO0rxGA/pNTOb6gHnVL13WI+Htkuw1GzrE0IY/1tjclna3ECMn65jmuXIl+nf0+J2TGIXat0LsmRN0IDF1csoaJFd4KRm4fcdfR4GrjQnkHPQkHejKoV5jWpPZ5nDNLCc8zZxYL5gDXbvDisU8txBKE6AGO2axfEWvkjLU6puK3/Oral3ygfj5lFnffeQu7qm+hYq4FMYQCRDsos4q//MvYRfnebyoHKfq7kvhlmUx2ty1bFffNUv64FOAQux55nbOmC0D04I7xE7jqL2Q4Uacjo1oOqwy3EhPlt2AZ0BTSvsAUDfwcvyB/g12dh7hQ3siTJ/SLWQZtUN7B1oQ8VtvenHS3EhVZrPbNHPQ5IXPKV3FXwqcsdb5JR5tLTIiRHxhpo2HFel4uVB9pYVJJHaonEkRaC9Ezh13VWA8AfvVLPmA2d985l4oxrSzV6siXjFh6ZL5J/9nPYr5ZuGguf1M5h8YHbgF9oOtFt/BqpcEWeFpBy4W8E/G/+W5iqInb1/GX5W1cGHmLf/r4ceNQFKUllv1z7n3u5zwZ+gb7RtrYta6Nu8ob+cvmb7M5xpKkPoFziF0rDtm4oHSxuj1lxTKgKRlZEi0XRGLOlbG09A4WV6+Lu/+QURuY9AdrbW+Gja3EJLIkMtl9TkhNFsLtGPGe4q6SQCTOaeyDQlr9x3BuMA6P9fKuh+l3fQN8mouLnXqFmUAaPo83GT77Kdy7iMaFc/ibFf9Ox5gV6+OXBH5xk7vvVKyPw2M3daFmvrC97Xzt6hf83S9ms+vO2ZQvgmFNCb3xBYeGjPwg4w7WmB4oMTmQUujpCwxtK5a+h7k//pBDhHP89KeX2JzxQZClbP7Bb/jzj0/Su+tv6R9RDpnsKzdaKPQHIoyQ7Z30SXdBzmYbpNP2+UL63LRn8bd50Wd0ZHSZqrCpVvKRUf7Xx1h7i8vH41wC6w8rt1fzdHMj/a5DukM2NuoVZgRpH5gZPvsZ5Q/dwt133srGq9be7nJt7As+uPMW7l70+ywc+3fuWTEb+JJ3LCmfScr94rfALBbMnQXaNvoXNxn+Ilm52mlkswMl8QdSCj19IaIelEEJDG7MOS6MwIXO73P20ews8otur+bpH1TzNJc4+2wzu/oOsevZOvVAi/YEXsZfPDdVlAqwZhmYLn5LuWuD5G2filwtrFO1zwlZ5/al3Ht78odgxa3hnIVIEwoRX+jqNFwqFt+hxFbNoF5hZmAjzuOXHBwyD0Rtlifwi5tK0PAVyqsIM7E6aiyc+1UAPk2qLMZzk/ev3gRm8SeLDHRnzSp69d9Vq16hpy9AtFO29X/Paz94x+TzGxtxzKyylHuf+26cn2DUPy779WWCBbkMTy0XIpPRBkZtb572z9crC+tPf5oLP7Gp2ueEfBAJ4t33sC4upwnvfUcJS2Xo65uEKx/GKI6J9Yo/pKBgL0h45BT1LWy3uBpdu6q8f/nuO5Wg4IYBrg2oWGF8KGbhorn8TVp+kzpZxpQ35Cy4c25c2bPZXploFS309IXFJY52Kb4/qZ6Y761WTxEnOzhjob6rySZEnbUuclDH9R3DwxVX3/sOR/OwyCeX6yQvu2wc6piiZLcNrLe9GZETz53NBsHYL3H02cyCbdu53kVLlS3uS5eMry3V78JURYmcoPSHW01eGKCPVLCKJ19MIzbjx9pcET/36uv9hvmLCj4+ycsZ9nehcLAZJPwm/UM3+JMH5nB35S1UHLMQMueLL3jn2hzl/crXvrC03Q3A3Nk03rmIxhs3+eCG8lq9BXNmKye/ucm7P7YTrkexnr5aOZvGBxax/pqi2C5YOJsFwAdD8WUWevoCQjsoY+WJWYv5mOzgjAX+qesb7HOt4q76MiUAsxa0mVWxgXFvf5zW1rdo6DzErnWHYoIsX+o7FAmXM+mYyjVKf5/yNpGNPrN33BYYWW4Dy21virKwXnIdYp/rG+zTBWi/1HeOC+Ud/Hn6VxnFzvVqW4+dzXzrIyX4/OLqd9h8n8XfZxyH2PXIqHpgK47S7/JazFZtkrSUsS3XfrL3vcJrJ+5QYoJ2PkxDZ6xrz4URZbxT3siTL76SZMzHX4fiBgTKKwgT4n/e9wqv+VDiyar1Rg+5ASPnFItleQdbM71GoSCwqTyiUwZ1B2FSMDx2g/ULZ/MvabyKcHjsM77OXP5k4SzunqOKe+Mmn177gr87m/jOa8tc/YwXh+ZSt2IOd6tKFze+5NDQZwwbKbaFnr5AuPrTt5Q3acTEdjSjmq2tq+jvzOTgzFL+fH0jP+UQF/rUCZBV3FXfwYvfTHyH66JH36Fn6ev0dr2lHK7QJtzyRp5s/nbeFuBFj77DT/7yJC9rhz50cm170Sj+Y+GSvZ3Zqq0AACAASURBVDZIr+1Nue8VXjtRx9E3/paf9ilvb9HkeTEdy48JaV/v7Y/zmu9DZaFXFeEnq9P4fSaiKT/xlKaRlkkK13P747w2to6zh7/PkXcORRVGFEVyaXMXW+9bmrrfxV1HykgD973Ca2Pfjqk3kr98FRvXf5etJu/bFqYfRUD42z+UKGHC5PD9v1Y2Aq9fv87IL3+XZ2mEXFP+9a9IOwt5Q/qfIOQGez6PgiAIgiAIwoxElEdBEARBEATBMqI8CoIgCIIgCJYR5VEQBEEQBEGwjCiPgiAIgiAIgmVmQfQErCAIgiAIgiAkQyyPgiAIgiAIgmWKrl+/Hs63EIIgCIIgCEJhUBQOh0V5FCadzz//nHnz5uVbDCHHSDsL+UT6nyDkBtm2FgRBEARBECwjyqMgCIIgCIJgGVEeBUEQBEEQBMuI8igIgiAIgiBYRpRHQRAEQRAEwTKiPAqCIAiCIAiWEeVREARBEARBsIwoj4IgCIIgCIJlRHkUpjkDNBUVUVTlZTzfoiQwjreqiKKiJgbyLYogCIIgWMREedQWNaNPFVVNAyYLsS5fWot18nzj4wM0VVXFyFFV1cRAptpAQrlVNCUrtKDTjzPQVEVV3D30Tj2Niqmt8AnZQ5RnIZ+YzTPprGMW56rxcQa8TVTFr6tVVVQ1efHaWsxyKb/6vemnaoquHcJkMStlCocDh+7fYDBI0FdHqc+BJ3SGlhKTfEE3ewda6K61IMX4cfqCZj8OsLe0Dh8OHC4XKwHO+/AFfdSVnk8uQ9I6vVSVuglCpNzzPh++ulLOuwKciRe8oNMP0FRVh09JjGslcP48vqCPYKmP0UDYWjsJgpAZA16aXnDDMzLmCoKgm0bvBs7YWmQUxr1VlLq1Bc6BQ7egBoNBdU0d5Y5wN1nvElmQ36EXOMJK+zIJ04OwIaGwx0EYXOGAwW8BlyMMhHHF/6rlUz8OTzhkXEEMAVeyPIGwxxNIKCcUcKVVR1yNYReEwRH2xGTW5I//vsDThzxhR0Ja7Xuzds4t169fT/Kren222jaXZWWbZONsepC8naf/9ccT8ihzZ8LUKeQEe/OM2i8dDnV+NJg7U5ahlBNZ2xyucMCsjFAg7HF5bIyBXMo/ledNYSpgw+exhNruZ3AB+N4y2W5y4XKhWh9TFDfu5QUf4HIpZSZQS0tLLfHPTSW1Dyrpg6OE0hEfYOAtfIDDcyjOallCyzMuIIhbL3ihp+cOnjGy0Ja08IwL4DwfyhaEIAhClOBK6j0OEudTa4x7G6nzAa4AoTPd1JoZ/0pqaeluyYHVMTP5BSEZNg/MlFJmZMnW8eAODw7A91byTjuw100QB54dD9oTxVFGaZpZBt7yAQ7qNxiMZk0pPf9hxAek0NNTUms+cQEQZDRtDTyPjA/gNfLfTNdvyNAPqYomI2eeca9SX9MAoOaLyWPmB2wib5MdHykT2WYCA03KfTO5/oGmZH5YxvfS0HdbbavU6dLsD6r82valry4qS1P8FGlVBiHn3NFyCI8D8NUltlMyxr00uoPg8BDqTjR+TBa25ReEFKT2eTQkxGiQ5IpbyQbqHW6Cvhfw7qg18UscQNGD6tlQAqPpiDD+IecBVt6R5sAc50MlI3cYZlQVY9WiWVLw6a3goCxdDTxfDDRRVedTfD01/03O4/P5CNb56POELPr3jONtLMWt+YGqZu/z53343KX4RgOEDZ3SPsRbVYcbBy6Xi5Wc57wviM9dZ5xH55uKTt7zPjel50dNrO12ZRMS0fv7OnC5NF+t85w//yHo7T0GfsSc9+Hz1VF63kPoTIvBeLLYH0rLcLlcqr+20ndXqqLEjD1bMgi5o4SWQx76St346pp40KJf4vjxPoKA65l8t5c9+QUhJca72cl9HjW/xkS/nbh8ml+iiYNPrP+PVR+LUDgUUH31HHZ8pVLXo/ipaH4ihZ4+CZrPYx78Wmz5Iul9NBME1vxA4/tlEr8gl8egHJO+H6mbsMMVMJfLUCajttD7B8fnS1O2KUzWfB7VucRh0qmN+7x+rkrVw7W2Suxb2jwVU7et/pDK5zFNGYSUZOTzqGs/7f4nrmVGZZj5qmebXMmf7HtBUEixbe2jrqqKqsiniKKiUtxBB65AKPVpwdodqsncyDdygL2qWX9HykchfdiAUkrr+ljpUf1IUmUVTBjH2+ieIk/H1lBcHMAVMPIfqqU7oJjoUrlKKJQofkYJ5ZSwod4B+DAuxsUz8dtQEd/R2Dzj3hdMfFPV+s8ETCyPdmUTYhjYq1hvXQG6k/ttRNrKqG+VtCg+3sG+4wZbx9b7QyrsyyDkmhJb279mu0OTjz35gaCbUqNQPbIHPuNJ7fOohRIIBgkGAZeHUPhMyslYQTvA4eOFOGekyERpSXEppczlwqV+HCjbQqXZiPU4IxnHW6Vsizo8Fh4CpgTadr2LB83k1fw9TQ9yGZc7MODF29REk/qAFA2rYYCJq0apgRNwSPHtMPZNVXKl8B1OUzYhBs032JPy6XSc431BzPtWrCtIDGn0h5zJIEwCyvavA/C9kGH8Wc1fNu6TW33MvvwOhyPxkysxhYIhhfLoIhAOEw6HCYdDBFwO8LkpTSd4s7qgB917dQu6anVMpgjEUEJLdzfd6udMOEwo4MER9FFXGhdgWHVMT/hIwGmFcS9VOutxJvG/JhcLfrYWDnJFUYKmFxWVUlfnxu07z3lg5UoXLleSQiz72KbyTc2BbIKOdO6/2rfwUWcYEFn1PzUibZ/rHMggTA4lLRzyONTYiZmtJitTKWK5WMfsyO/wcOjMGc7EfwrD4iDkkDQOzJRQ232GAEXU+dIJPFrLDo8Dn9vHC94d1LaU6ELN7LC97VxS28IhTx+lbh9vDXRTqxVUuoNAwOjkdmnsJG96oMRk0Sn09OiC1To8BA4ZbYvOHJQwGkEljEbctuO4twpf3iSb2rJNb/QHaoxIP7JDYcogmFHS8gwudx0+dyPeDWYvqCjhjpVAMG5tihZC95mWyL+xQcRVrK5jOZFfEFKT9mnr2u4ALl96nS/SYfuOM96ygeNKYEeeybDnligjlPMfjhPRhEpKqC1JVq62/aPENkxUoOItXIWeXkGboByuAIfyGDrCPlZOkVuxToJ+izBgcC+U7eZsYdZOU0G2mYCV+6/1rZU82J0vP+qpIIOQGsW32lfnw93oZcOZO4xTPegCnw/fWwN0J2iPFki5jtnFmvyCkAobcR61gwnpBB5VrI8E3ez1Kq8izMTqqDGumNhYmda+oHboIEjfcQPTvWYVrd+gLtyFnp5ozDH1tYWFpzhC5Gk+2SEE9dpTbyUmUzI1y22maPKatBOYvJZzMmQrXIKGAUnVkF8xpBgncWlT9q2cMxVkECxR201AfQlGo/dDkzQ7IgdUzGKT5g0r8gtCCuwFCdcNDKtOviUb6hVnXbcSFNz8EEEsA17jQzHjA6pCZNlvUieLdnLRvTeu7AGa6hKtooWePhqIvbDtGbVa4Pk6oz6hXbuV69SsPH3E6xXj3sas+ZZp8gbdjYnBq8cHaNLiP+ZBtoIjchjqhYR7OdBUZ7iVHx0njQYB5Mfx6gK1J+9bMD7QhDcLSp2yW4KyWxLHZMkgZE5td0DtW32cN3RajB5QCbpLlSDvJgHsQ2kFOM4OqeUXhBQYR/CxEH/NMJZZ8nyR93waBjkzjisVfTeoI+xyucIulyvsiMTHyyCOlhaDEsIOrVzDOIGFnj4ac0xLZ/gxeH94LrH7butIvDIIOxya/NHvEu+VSVmR+xe9Lw6173qMYvFp/d1SzFJr8jpcHuPxkq5sUxhrcR7V9/AafXQXGr2XcffF4Ql7zGKbBqLjAt39N4pvatxWJuPKZn+IzpvaNTjCnkBiPksyCCnJVpxH4+zROdg0HmIoEHZF1iu13SP9O/Z7T9ptm0v5Jc6jkBz7ymM4qthFA9emyBfyhB2mCp9ZYOhA2KNN9pGO7kgMzGuDUMATO7CTvby+YNPrg1En+UzyJGFXeQyHw+qE7IiR32F6r5IoonrFQlXmAiGThd+ushA2aieHGrTafLykJdsUxrLyaPaJu9CQJ/G+hMIpAuMbzCFm/UVpq8S+5UmM2m27P8QotAZKg2UZhJTkVHkM640byedPrU1j1jEckXa117K5lF+URyE5ReFwOGxulxSE3PD5558zb968fIsh5BhpZyGfSP8ThNxgz+dREARBEARBmJGI8igIgiAIgiBYRpRHQRAEQRAEwTKiPAqCIAiCIAiWEeVREARBEARBsIwoj4IgCIIgCIJlRHkUBEEQBEEQLFN0/fp1ifMoCIIgCIIgWGLWr/+tKN8yCDOQr/1BGOl70x9pZyGfSP8ThNwg29aCIAiCIAiCZUR5FARBEARBECwjyqMgCIIgCIJgGVEeBUEQBEEQBMuI8igIgiAIgiBYRpRHQRAEQRAEwTKiPAqCIAiCIAiWEeVREARBEARBsIwoj4IgCJYZZPemeZRuauH0lCpLEARh8jBRHifwb5pH6SKjTw31Owe5kirfpv0madLPd+XyILs31cTIUb+phdOXLVdgTEK5New+NTEt0+fsHuaEQXYb9r3odfov51tGIWtcHsS/s4Z6y/NMHrk8RcsSbKDOMwlrTjrrmFkZcVye4PSBFurj19VNNdTv3I8/2TyfF/llDhaSMytliopKynX/jgwPMdKzmeqeStrODOJcYpJvuJWDp57g+TUWpLj8DoFhsx8HOVi1mV4qKW9wshxgzE/vsJ/tVaPJZUha537qq1oZgUi5F3v89G4r52LDUfr21Eyj9Dm6h5NAeUWlwbdlky6HkBuuHKihun1I+Uc31yjzzEv8pLlm8vvmqf3s9rSC+/PE+WtJDc+//TnPZ6OebJYl5IbhVnYcWE/fY8W2i4jp41RSXhH9bWR4SO3rF1l61cvqzKRNJAvyyxwsGJFCeXRy8O34Dj3B6Z1NbO8ZoqNrEGe8UqOj17Of7WueYHEKIU53KUqQGcvaj3LysRpdOV62n2qhepufjqf2c//bqeuIZZDdVa2MEKcA72nBv6mcjp6X8McsWoWePhf3cBKo6GTvVJRLyA6nWpRFtaKTg68+weol+h8nuHLgnbwY5658dIzeYdiah7qFKURFJeXDQ4y0N+GvsfOAPcHpneVs7wEqnBx81RvXx1UuD+LvCmUqbSIZy4/MwYIpNnwei1m953vKxNrTb+Kr42RrA6r1MUVxl/ezrwdocJpM1jU4Y5QehcVrNirphy+mv8Cc6qcXKG/vjhtQxTjdTkBRjKdN+lzcQ0HIkCsfjQKw1R2vOAIUs/gxo+8FYZIYLqOuvZLE+dQaVw40KYpjw1FOvm2iOAIsqcG554kcWB0zk18QkmHzwMwyllUkT1Hd3Ek50HsieadVrI6VtDVvtCdKxXKWpJnl9Ak/UEldjYEpX1OoxkIRH5BCT58SG/dwynB5v+Irt3MQ5Um/JtHXx9DfqIbdBwz8jOLLO9Ci88WrYfeBZH54xvUY+u6pfn6WfPwMfALrN7WY+BylL0NCubb8r9Ln8vhQ6kQJmXLYlqdaKF00L7LF2LstWsfuyEOwiY+YrX5j0V9OyBtLH+umrQLo2azrAxa4vJ8dqlX95J7EB/fJwrb8gpCC1D6PhnzER8MkVzqWrKeuopURgy3UKIOc7AEqHuL+JfBROiJcDnERYEVpmgNzgktjAGUsNZRJVYxVa9zigk+fBNv3cGoS2SKKYQL/U+V0DAMVqkUcuDjmp7e9nN7xo4QMXS9C+DdtpoNKtjY4Wc4oF3uG6G3fbJJnkN2bNtM7DFRUsrVB8wka5eJYCNClN/BXZcxPb89mqsc6OanfJopLu1Uts7fHz/IJL7EDMA0ZTrVQv82vlFvhZOuKaLkj2/wE2kcy8pOywup1TujxW3ZvyXlbFi9na4NT9QdW7svyFcpPyyzfinT7jTC1Kcb5aieBqlZ6t7VQbdEv8crgMUZQrOr5nVvtyS8IqbChPE7g37SZXlINDGULtWOb39Q38sqBl3TlWDWrT3Dl1Dvs2NbKSIWTg2lPxqkU32KWrgCGR7l0GVYvKfT0RmkyvYdTkLGX2Dfs5OAZg+2hFUY+dZp/aD+n99QkTqg9rQQajsZaDZpVRS4hjzomhmHrkRGeX5NM09D8VeNl9bL9QA3V7bEO7hHLfNyhpuf3THDlsr7cNGS4vF9VHBPv1/N7Btm9aDO97eXsXmZwYCSbrGmhrcJPx3Ar1Zsu0uZuwZn03pHbtlzyBM/vgSsHRukdHmK525v+9afVb4SCYMkT7G0/RnW7n+07N1p4AJjgJz8aAirTeOjIIWnLLwipSbFt7Wf7phrqI595lC4qp2O4Ul2gUpS+pkU1mRv5Rg5yUDXrb085QevDBpRTve0Yy9tVP5JUWQWVAryHw61UG4WJ2GnwoDE8xPIjRn5FxYo/kcH39/9VJeDnpOF2jpMn47ebljzBkw0k5jnlVaxhDUdTKI66ByYDWRc/pvgSj/zoHXUbM5mVuZjF+u/SkEE7oGYkA9Tw/BEnkNrlJHOKcb49wsGGShj207GtnNKk2+aT0JYZM5l1CZPFYlvbv2a7Q5OPPflJbw4WZhSpfR61UALDQ4wMAw2dnLw6mHKBUtAOcPjZF+eTFGt1TMUyljU42ap+ylG2gaqnbJzCqUhh3sPyisrEj1HClA8hE5w+tR//zhZ2qw9C0fAZRuUZW3aXlCSGrdB8UNuarVoknFQbyhrrchCxIuNn+6b9SdspHRkUhdRMBqJ+s6YH4rJJMav3DBI6c5S2OCXS/Hpz15YZM5l1CZOIsv1bjhJFJCMfVc0/Nu6TW59E+/JbnoOFGUXqUD0RHwktRE8r1WPE+mUlY81GtuKnt93L6ce0slSrY7IFLIZinHu80X/3eLlyaj87trWyvQqdjChO79v8iUVUdFqXeVqSxj2cKqQTJsLUbzMaWkpBibO2fIWT5StG6e0xUTos+4Gm8kHVo7oc4Gf7Ir+l0lfvGaFtrJyO4Va2V7VSXuGkLmF714YMSQ9JaUqsJRGzw5IanHtqcDYP4u96iY4ev0G/zHVbZoFp4j8sGBDZ/s08duJyfezE4aHEUHW5WMfsyC+hegQT0vB5VCwEB5nH9p50Bk8N29sr6W33s+9AC6sfK9aFmmmxrbAsXhP14zh5ystqTQktbuHgEaOT28tiB4DpgRKThbjQ0xtgeg+nEUq4jCElXEbcduKVAzX05kUq/WEWI/SKXTHOtz/n/suDHHzqJXqHlQMtHRVGMVinAaoSeX9JTYKP1tRsS2Emsfix77G1fTO9SWMnan7nJvPqkid4/u0nIv/GBhHXirC4juVEfkFITdoHZlbvOcrWnvQ6X6TD/ugdrjy2np94/ICTJzM8zbl4WRkwxMWPJkCzxCwpZvWSZOVqVhWzAyXxlplCT58cw3s4bYhuEx80CJdhK1SMKckOKGlobVdG9Z70FL/FS2p4/u0ano9Y34yc39ORIdlp/PT6UC6IzBljIa5Qw+JJbUtBMEPxCe6NvFyh1DBVJJLAiUGeX2PjgErKdcwu1uQXhFTYiPOoOdSnE3hUsT4y3MrBA8qrCDOxOmpoQYaXp3WkTXOuHyIwaOCYr1lF/2q9ukAVevrk2LuHhUIyJUiz0GZKivaIS6v5MNo/OGEUpD/LMqh9aGptwU5GWwqCBdZ4Oai+BGPHAZM3w0QOi26m3igGaT6xIr8gpMBekHDdwLDq5Lu45iHFWbddCT1iGODagNMHjB3nr5xSg7Ba9pvUyaKdam33xpU9yO5tfuKtooWePhf3sDDQrGzH+Mnl2F+uHGhSTidngWh7NBmcFJ7AvzPqoL5aC56/zaxNWvCfiua9kixgt06Ryp4MWh+ycvgmM04fMDtZPcFp9UBd9CFoctoSNGs8ijVeEAxYveeoOt6OcdHwhRnRAyoj7eVKkP7LRukmuDyeQ0FNSC2/ICTHZpBwG4FHlzzBkw2t6uuavmfd12Lcz/Z2vxL0eIU6qY/5lZPfVNJ2xo7fV9R0v73KHwnUfLHHHw1hMp3S5+QeFgK6WKNVNQQaypT7NOZnZNhJWzt0JDulaxmlPS5uU04Kd+iCbl/sGWKkopP7taT6mGtV/phA1Pr20/iJp5yObZWUq7JHyqQyLlJBNmSIHjrZemQS/KHG/XS0++kA5T286tcjw2qbVHSyN/IQNFltCRQvVxf9JurHy1jOKMvWDeKclg9Ygj2ic/DIMGCkgC15gr4zpex+arPyAoAe0A55KagRTFC+X5ZzmfVYkF8QkmBTeUSnDOoOwqRgdXMn5T3HqEvDorG6+ShtvESgZ4jeyKJSSXnD99ibyWuf1ng5eWQ5Bz2tyls1IPnL6ws4fc7uYSGwxsvJI7Bjm5+RniH1TS1KoOklgzWK4pKlevrObMTf9RKBHuUNJaC8peTgq7GnFRc/NsjJZfs56DmmHIDRpVUCZWspi7n/r5wEiMoOlYr8zQbxDtOUIVQzyG7tEI4u7ZNmfS7LRPrlmBoKDE2GSpa7u9m+pji2b05WWy55gr4jF5VA6qqi3rYuW4UL04Y1Xg42+A3eaqVjSQ3Pv/05208p4/3icKzCWF5RRp27hfvj+/pkYEV+QTChKHT183C+hRBmHl/7gzC//reifIsh5BhpZyGfSP8ThNxgz+dREARBEARBmJGI8igIgiAIgiBYRpRHQRAEQRAEwTKiPAqCIAiCIAiWEeVREARBEARBsIwoj4IgCIIgCIJlRHkUBEEQBEEQLFN0/fp1ifMoCIIgCIIgWKIoHA6L8ihMOp9//jnz5s3LtxhCjpF2FvKJ9D9ByA2ybS0IgiAIgiBYRpRHQRAEQRAEwTKiPAqCIAiCIAiWEeVREARBEARBsIwoj4IgCIIgCIJlRHkUBEEQBEEQLCPKoyAIgiAIgmAZUR4FQRAEQRAEy4jyKAjCNGWApqIiiqq8jGdSRlURRVVNDGRRMkEQhELGRHkcx1tVRFGR0aeKqqYBk8lYly+tCTt5vvHxAZqqqmLkqKpqYsD+iqAWHF9uFU3JCi309LGZI/e8aQqtiuPeKpN+l/ip8mbaAYQpwfgA3qYqqizPM5MpW74FEHKHNgdaeTBItibGzkeTM4eNMz7gTVgXi6qqaPImGzfqA5WRLFbXVNPx6s18TRYKhlkpUzgcOHT/BoNBgr46Sn0OPKEztJSY5Au62TvQQnetBSnGj9MXNPtxgL2ldfhw4HC5WAlw3ocv6KOu9HxyGZLW6aWq1E0QIuWe9/nw1ZVy3hXgTLzghZ4+noG9uE3veT5ZicMR+00wqAoa1xdXTppMQq4Y91ZR6k5sX2WeeYHjO2rtje9sUVJL95kw3XkUQZhixM1DGit1f+V0Dhv30tToxqfN33Hjxhesw+dOsT7HyxIMEky5po7jbWrEHa04ep3BIEFfkLrzEDrTQj6HrDBJhA0JhT0OwuAKBwx+C7gcYSCMK/5XLZ/6cXjCIeMKYgi4kuUJhD2eQEI5oYArrTriagy7IAyOsCcmsyZ//PeFnj6e2HZKaMZJ4Pr16xZTJuuLwlQnaTvrxnAgob+GwiGP0ffpoI4TW3OEMB1IPs+kM7dkMg9lcQ4LecIOdd52GKyL4bCyNjoM14dwOLp2JMoS8jiSrKnRNcPhMhmXoUDY45KxNlOwoTyGw+YdMJrP5bKomGiDweVKc6I3HwSps7rUwWdQk7ag6QUv9PRxKJOEI+xSHwJEeRRyRbJ21har3PU/UR5nOtNLeYwqcK5UT1XaOpBQZ7J10/w3zcBjuOYIMxKbB2ZKKTOy2+t4cIcHB+B7K7k3ycBeN0EceHY8aE8URxmlaWYZeMsHOKjfYGBcr30QF8D5DyN+I4WePpYB9rqD4HqGHWWGCQoX1Rcnpd/cuFfx12kaAMYZ0PLE+9taLU+XtirOhyjBpWl8nAFvE1VVsf5CTTPQfzM0asNvIsP7N9CUws93oEkpM5IgG4duBCELaK5GrgDdtSk2hmu7CbgAfKRYgnWo63r8mjru5QUf4PBwKK8+JMJUwqbyGGI0SHLFrWQD9Q7A90LiAhphAEUPqsdID0rK+IecB1h5R5r+FeN8qGTkDsOM6gAKjhKaFuljGWiqw4eLgCVn1AJi3EtVaR1uXxCHy4XL5cLlUP1zkyz8A02l1PkMlJh0ytOlRUvrchAM+hiNaYRxvI2l1Ll9BNHSuXA4gvjcpTqFZWZQ+6ALAN8LVhWzzO9fpE6TFVV5MAPXg9NsfAgFj2Y08Oyw1jdrLRpwImhnD+LWVMXAA65nxJdR0GFskEzu8xg1nafIl2ILNXbbyuoWUygcCqhb3Q472wCp61FM9Jq/SKGnj/khpt1yv21oTna3rXXbLXHXrF1jzHaL5irhcIQdBnnSLc/0fodD4VC8T6qhv9D03Zq3tm2ojGVPSgfHdO+f0VhJdq+N0svWdyEzfbat7ZSRpD/HlWO+pk7fuUnIjBSWRx91VVVURT5FFBWV4g46cAVCqU9S1+7Aozz6GIRCULdPHR5SP0jpwwuUUlrXx0pPgNCZbsQ+YJUBmup8Fu93YTHufQEf4Ap0E7+bU9LyDC4g2Hc80boVDLLSIE965SWzBJdQUhL7f0t3S0KZUMIGxUyfxhbTdKCEljMhAi4HBH2460opqmrCaxrvIxv3L0nagbdQNkI2iIVFMMFHnUkIu9x6nljY7TPDcBcq9jpK69wEHR6DNTWDeoVpTept62BQCZsRDBIMAi4PofCZ1D4XAJTQ8owL8PFC3MiKLNCWTOGllLl021QE8bnrKM1GrMcZwTjeKnW7etqFURjneF8QcGG805hkG99QkU63vBLuWAnKg5bVOGfjDAx48TY10aQ+lJVOzbhJk0AJtd1nCIcCeOKUSPN7mdn9K9lQb7idl9SXWBA0HA4cCZ+pGDgsxdmEGPmBoJvStGIFCzOZFMqji4ByIptwWLUQ+NxJfcgSUA9wBN17ddZHzv8LigAAIABJREFU1epoukDHU0JLdzfd6udMOEwo4MER9FFXGhfgVXN4j//MYIf3cW8j7qBqScu3MFlHfTI2tQiUmsezNPSXTb+82u6QYmEPuqkrVQ/KGE7A2uGcUurq3Lh95zkPrFyp+EjOaEpqaYlTIhPGdrbuX8Qf+62YOcm2/7Uwg3AROHOGMwmf7szikaZct5L7shuTzGoYfx1hwqEALkcQX12p7kCZnXqFmUDqIOERFAtBgCLqfG4avRs4Y2m01LLD48Dn9vGCdwe1LSXR7SHPDtvKTEltC4c8fZS6fbw10E2tVlDpDgIBo5PbpbGKgjoYEq/AZBuyUNMPNFHqDuLwWHAzKGgcuFzJnv7T3XZJp7wSWs6E2TA+wN7GF/AFfQTrfLgdLgK6baBxb6NyOMcVINRdG9N2494qfGnJN00pqaWlu5YNZVWUun3UNT1IWO242bt/yta1O6ibO9Q5SQ4FCHkh5bql7nAEz/PhOAauGwake6i0pJbuZ1z46nz43hqgu7bWXr3CjCAN5VGhtjuAy1eHz92Id4O1t7uUtDyDy12Hr+844y0bOP6CD3DxTIbH/kuUXs15fa8uKaG2JFm52pOU2WCIf1or5PTjeF9QltSgu5Qit/Ed8dUVqcp8yOIDwVRCux8rebA7G5ZV++WVlNTSfaaWbsYZaGqkzqdXfqLb4YE4xQdshq2ZxkTmjPMfMk4tJVm+fyUb6nG4g5FFUtmytroTIghZJuW6BaXKxIR77wAtFiwBkVPS6XTq0jKUWuzXK8wMbITqqaU74ELrTFbz7PA4lFcWepVwAJlYHTXGFRMbK41j1pigOcwH6TtusLWY4DRf2OnvqI/6iiZ81J0+h0P5v/4Ok1s2pYn6HGbnsEk2yiuhtls5WBPdGk22haRZiwVzsnz/SlpQ3LHfYmBc3bJ2PTgN3TqE6YJ2WA9fnXmcUo2BJurU2IxpHZAMjRL/GBZb70x1/hISMD6Enep4vlm4niT5dK9VSvrapLiQGAGPUSgVXWgBWyEEzEKxmEXYL/T0xkybUD0hXV8w7CuusCdgkN7swtMqLxQOGYaYie/P5q+OjLwWLE9tkUuStXPAYxaeJxQOJIREsnP/UoTZ0UJXuVxJ7r2E6ilkpk+oHpXIqwfNXk8YCgc89l5PGA5pvxmMhZT1qvnl9YQzBpvKYzh2gbWYL/IOa8NZ2kR51PI4HGGXyxV2uVxhR+S9zKne4ZyEyOubCDu0cpMt4IWe3oBpozyGYxUIh8MV7StG9ySV8phWeVGlRmsHl8sRmbxjqoi0WTStQ702Tx7bIpckVR5j3mnvCDvUT/S7uIUo7fuXSvGLLpYp04jyWJBYjzMa7X8xn0iHspDWNO5wlmMlxhhiiJEhOnZcJmujvs/rZdeVZ7ao6hTIhPwpx5Ew3bCvPIaN3neZIl/IE3aYKnwmk3QoEPa4HImd1mXy9JMGoYAn7HIQM+CSxSku9PQJ+aeR8hgOa/dDN4Gqil+CdcuC8phOeSGPK2byVZQbo2DWitUyZuJX0+WzLXJJ0nbWxnbMvVMWQ1cgZDi+07t/VgPqJ3tnryiPhYxl5dHsY6Q8mn4mSXlUywwkzDvJx46CTnkkPq+1QP1G9eJwhF1mFklhWlIUDofDCMIk8/nnnzNv3rx8iyHkGGlnIZ9I/xOE3GDz3daCIAiCIAjCTESUR0EQBEEQBMEyojwKgiAIgiAIlhHlURAEQRAEQbCMKI+CIAiCIAiCZUR5FARBEARBECwjyqMgCIIgCIJgmaLr169LnEdBEARBEATBErN+/W9F+ZZBmIF87Q/CSN+b/kg7C/lE+p8g5AbZthYEQRAEQRAsI8qjIAiCIAiCYBlRHgVBEARBEATLiPIoCIIgCIIgWEaUR0EQBEEQBMEyojwKgiAIgiAIlhHlURAEQRAEQbCMKI+CIAiCIAiCZUR5FISkTODfNI/SRS2czrisQXYvmkfppv1cMfr58iD+nTWULppH6aJ51B+YyLhGQRAEQcg2JsqjtmAafWqo3zlovPjp85ktkDbyXbk8yO5NNTFy1G9q4fRlyxUYk1BuDbtPJVmwCzn9qRaT9syWYpRN7Pa/QmaQ3VWb6egZorzBydYGJ8vzLdJkoyrP9QntvT/zsS4ICaTzYJhsTop92LtyoCZpOqM8dmS/cmp/wrpYuqmG3QeSzY/qA6yRLFbXVBmnAjArZYqKSsp1/44MDzHSs5nqnkrazgziXGKSb7iVg6ee4Pk1FqS4/A6BYbMfBzlYtZleKinXFtQxP73DfrZXjSaXIWmd+6mvamUEIuVe7PHTu62ciw1H6dtTM73Sq5RXOFm+Iv7b5SyxdtcmH7v9r9A41U8vUN4+Qt9jxfmWZpKZwL+ziY6eIfX/Ssor1D+HhxjpGWL7GJx8+wkW50tEQdCIm5M0og97ZdH+qzIyPGSY19YD4uX97H6qlV5tzdSVOTI8RO/wZnrbLcyPelmGhxhJuabKOBWipFAenRx828vqmO8mOL2zie09Q3R0DeI0UVIAej372b4mdUc63aUoQWYsaz/KycdqdOV42X6qheptfjqe2s/9aXfWQXZXtTJC3ADb04J/UzkdPS/hb67RDaBCTw9XPhoFYLnba02hnxJk1v8KiUj7LJuBiuOmcjqGobyhkyebn2D1krgklwfxd4XyIZwgxGE0J8Wy+DEvfY/pv9H6eOq8KdEbDdqPsjdmXVS4cqqFHdv8dFTVgKkimCjLlQM1VLcPmaypMk6FWGz4PBazes/32ArQ029i7neytQHV+piiuMv72dcDNDiVMhOowWkwQBav2aikH77I5TSkB3RWnu64gVWM0+0EFMVk2qSPUEnh6yZW+p9QKJzeqS5I7SP07TFYkACW1ODcI9YMYaYzgf8pRXHcemSEPoN1EWDxGi99R5zAEB1V1l2SFj/2PdM1VcapEI/NAzPLWFaRPEV1cyflQO8JIyUmimJ1rKSteaM9USrS33I9fcIPVFJXY6BJaUrpWCjiN1Lo6QEujw8lpi1YUvQ/A5+c+k0t+FP4jybk2WnBb9dOXTo0/6jqdqV9ereZ+KFmWM+URHtwrOhkb7pb9ZcnOH2ghfpNsX5Xu+N8yE7vVH7bbfYQq/kC74ybp9K532oZZv5rigw1+C/ry9+vlL1zEMWaXmPDV1yYUZzy0jEMNBzl+TUpxssaLwcbAPycTGXAiaDOq/FraibjVJi2pPZ5NOQjPhomueK2ZD11Fa2MGGyhRhnkZA9Q8RD3L4GP0hHhcoiLACtK03zSmeDSGEAZSw1lUgeQ+vS1uODTT0eS9L9TLdRv8yvbOhVOtq4AGKW3x8/INj8BI59C3VYQujwXe1qpHrtoYhG3WVc8yx5ia0OZ6ser90nVXVs26pmCaO4qW93pWism8D+lWEKoUHc5gItjfnrby+kdP0pIdWdYvc4JPX56Twzy/JpEFwflQQy2rtP9Nsn3+/TOcrb3ZK04YZqiGQ3amq256qxu7qS8p9W07yegnT1oiF1T7Y9TYTpjQ3mcwL9pM72k6kzKFmrHNr+pb9qVAy/pykluodTXf+XUO+zY1spIhZODafu8pVJ8i1m6Ahge5dJlWL2k0NPrfxuio2oeHep/5RVO6twtOFM9xU4pkvS/y/vVRd/JwTPemGt/fs8guxdtpre9nN3LPtf5fZr4jwLsifr5JGCrrkQWr1EOlV05MErv8FCiT2qW6pl6aA9BTqrtyL2ik4Ovxm+faT6//ZzeU6P4c61poa3CH/tdBO3htZPtmgyTfb/HXmLfcGJdghBLKqOBAUtKWQ6MjIW4gvEWt8aVU/tN1tQMx6kwbUmxbe1n+6Ya6iOfeZQuKqdjuJKtR0ZST55rWmirwMQ3bZCD7UOxE7cp+vAC5VRvO8by9qOczNT5eMYwwSWU8C/apxwYGfbTsa18CscTTK//RZ6QjxgtxDU8f8QJxLpSaA8wif6jAMU43z5qaHm0U5cdJqueycfC7oUpxTgN/a6Kuf+vKondqjP6TkXzHf6r9ZGFddLv9/AQyw3rEqYmfrabhBCLcUvIOhmMF8NzAbHXUb2tlZGKToM1NZNxKkxnUvs8Dg8p4VGGhxgZBho6OXl1MLXPBRA9wOFnX5yCEmt1TMUylsUoPkP0tm+mOhuxHmcExTj3eHle9+m7+jknjyh+qSPtTTme+DLAcv+z8ISs+YPqHmYUX1AT/1HA2L/SXl3pM1n1FCoTnD61H//OFnarDxea76iexTUPGfpfJ/oO5+F+W3p4FqYUFZWUJ3zK8i2VASl8w2PkB4ZbqU4VW1gQVFKH6rmqPYloIVJaqU4nltOajWzFT2+7l9OPaWWpVkfLpnBF+Ymwxxsxs2+vQicjivP6Nn9iERWdEn8qjsVrnmBv+zGq24cIDE7gnHJ+c+n0PytPyJo/qPa/ja0g23XZYbLqyQeZ+OZGwzUpKIvf8hVOlq8YpbcnToGM+F/rt65j/a0V8nC/0/bZFvJLFsLtGJFy3bIzXpL1Z4PruDzI7qc207utHI5obhkzwYdesEMap62LWb1nUDnBNdzKDstbnTVsb1e2jSLWx0iomRbbg1BRfAy2o4pbOHjkaOLHvT6245uG+DFRKAo9vQmaVWZkPK3jSnnAbv8Tpiaqby6Kb246XDmgKo4NRzl59XNCVwfpe3uQ5/d42V5iXFfC1rU6B8khAGFKkHLdsjFe0j1UuqSG591OQG+ltz9OhelN2qF6Vu9RfMDS2erU4keN/OgdrjCB3+MHnDyZoaVr8TJlq+DiRzpFYkkxq9fUGHy0ujRTvtlgiH9aK/T00wvz/hf7hGyM2b1Jd2LMpK6pWE9+WFJSiXlMUjMm+MmPlF2Lg3sSDwGYhaSK37pWtqzjdz6m9/0WpjAp1630x0vEf3ddGodKi5cnvD3H3jgVpjs24jxqTuPpdCbV+jjcysEDSjiATKyOGvbeyqFZIZSt2gQSnOgLPX1yrgweU0KSlCyzkHoqYNb/tCfkJHHN1HsTfRLX8pjcSzB5daaduuwwWfXkh0hQ4p7NafhZJVPeNKu7AUue4MkGFF/Fy+qWdcPGuDkos/ttbL1X6xKEDIkdLykSn2pRwj+l61M7cTHhbW/2xqkw3bEXJDxyitpCJ1aJPPm3K2FRzA8oxHL6gPGhmCun9rMjLb9JnSyaJbTdG1f2ILu3+Ym3ihZ6ei7vZ/eBwYTgw/p7mKkVeFIx6X+rtcD024z6jHZvYuOkaXkMLemXtTA+idipyw6TVU9+UB4ElOsrp96gjwJKO0QCtmvWwWP85HJssisHmozDKqmsXucE/JzsUresDSwytu535BDNSwl96PROJayUIGSOfrzMMxkvavB8rZ++moZbxmWtf8ePDTvjVJju2AwSXozz1U4CVa30bmuh+qoFB+IlT/BkQ6vyNNTwveQvbNcz7md7ux8qKtm6Qt2mHvMrJ2+ppO2MHedlZTD0bvOzvcpPeYOT5cDFHn80TMe0Sg8X2zdT3V5JeUOZklZ3D43ST21M+t8S7QCQel8iAbejhyi2HomL5bgkemioo2oegbg85Q2dtI21Jiolduqyw2TVky/WeOk7ghJbsX0z1e0op0C134eH1ODtnWwHYuLHVtUQiOnPTtraocPgxLVSl3p4r8dvbpGxdb+VnZXe9qFEmeikraGVDrE+TmH8bN80mrBdC8CK79EXE/cwSVrKeDLX4ePWeOk7s1x5qYE6XsorKiM/jwyrfb/CSdur3iTzQvx1qNEsUF5BmBCGL+1xKkx3bCqP6JRBP/sOtLDaguVKiXh/jLo0rCSrm4/SxksEeobojQyMSsobvsdeA58ny6zxcvLIcg56WpU3RwBUODn4qknMtUJOv2Q9TzYcY1/PECM96iBHvYfNNSw2Kn+qY9L/Fj82SKhmkN1PvUTvsD86IVY4edLkXi5+bJCTy/Yr91LLUxGNJenf1Googp267DBZ9eSNNV76rrZw+oCXfT/yK2GZtN8qKtn6V99ju/49vmu8nDwCO7b5I/25vEEJGr5ksCYSBD+RGqoboLcnuVuH7T5ECzvaY2U6uecJLu807j/CFELf5/SsSCMtkxSuZ8kT9F1dHzNeNMorKlnu7mb7muLUa2PcdaR8aUS641SY1hSFrn4ezrcQwszja38Q5tf/VpRvMYQcI+0s5BPpf4KQG+z5PAqCIAiCIAgzElEeBUEQBEEQBMuI8igIgiAIgiBYRpRHQRAEQRAEwTKiPAqCIAiCIAiWEeVREARBEARBsIwoj8L/3975g7aRpn/8a7juCldXbRGfI23Y4MYYXIyKsCHizsquyUEwLmyiwhmRXTip8QaTBAyJCV430sLm0MSFlrgwJrBL9jLawyaLC6swGDfGIRmtzylSXRMXv3p+xcxIo9E7fyXZ+vP9wEAiv3/nfd73fd73fd5nCCGEEEICM/Tp0yf6eSSEEEIIIYEY0nWdyiM5d87OzjA8PHzRxSAdhu1MLhLKHyGdgcfWhBBCCCEkMFQeCSGEEEJIYKg8EkIIIYSQwFB5JIQQQgghgaHySAghhBBCAkPlkRBCCCGEBIbKIyGEEEIICQyVR0IIIYQQEhgqj6THKSMzNIShRAHViy7KuVJGJjGEoUQG5YsuCkHr7cH2JIT0Di7KYxWFxBCGhkRPAolM2WWitsULNZl7x6tWy8gkEg3lSCQyKLeqLTSlm0DGK9FeD2/GKWQSSNjbtB3vsq2YCqHrk0Chq8p7AfRF/cOMF12+SGh5LGpLKUgoLPkLorB7zYnmnGQOStVCwjOcKE6UslfLhaZ5cSiRQKbgNj8DXmNr4DlVNIcMJZDIFLpsHiGd5E++ISQJku2/lUoFFSWFuCIhr+0hG3OJV8lhrZxFcSpAKaqvsVVx+2MZa/EUFEiQZBljAHCkQKkoSMWPvMvgmWcBiXgOFaCW7pGiQEnFcSSr2HMWvNfDA0A5g0RKMeJIMuQx4+ejoyO8BxCkqc4bSZIEv46dezm6jtgUins6ihddjnZRyeFO4Sb2InXmLqDV9ui39uxnHHOixZjtX85hq1KpCONGGsmqBWTu5KBYc6YtzUqlAqWSgpLzmZ+dZalUUPGdU6soZO4gV8+4Xs9KBRWlgtQRoO1l0aO9mIRBF6LpeQk6IOuq4G+qLOkAdMjOv1rxzEfK65o4gwZU2SuOqufzalM6miqHysORoy4DOiDp+YbIVvmdv/d6eF3XtbwuwWzT8C+s7Xz69Mnjr2b9ArVtmLDkvPFuZ1NeJcmUTYHc1mA7k/AEkj/hPNdK2HbGdSZljePQJcG8qOvG3Ojen6y5o7ksWl7ymFPrc7sk58VziKbqeZn9c1CIoDzqursA1uPJpkLYpF82ZWV2BlkOOTm4dwL/qLLZ+QQ5WUqpveC9Hl63FHSvyfl8ofI4GASdvPN5twWpBduZhKe/lMe6Aif77QBY80BTnl7zpvvfrA0e4ZxDBpKIF2biuCrat7dxazEPCYDyi7c1SXkthwok5BdvRSuKdBXxkFHKvygAJMzcFGyuT92CDABH72t2I70eHtUCnigA5IfRjvh7GYF9TiKRQUFknFMtGOEyZQBVlDMJsT2emaavHbAzvULGVg6RbZKfrafdRsrHBjBMvbuAz7M/IS8BUFLIhL0xUjXfbaLRBisjsicL2cYN7y9TRtXVTs6jPdzaohowPiEAUF5DrgJAVlGc8hnIp4pQZQBQ4DMF2zDndeecas0fUh4/DdwEQtzwt3kUouG4Am/FLXYTM1IOFeUJCotTLkpLGYYeNIObMeA4TBGq73EEAGOfh7SvqOK9ERGfCyOaHahyDA1ArOfDA9XXW6gAkG91o1VjBxHaeB5BURRUUgq28pqrjV05E0dKEfxBYGuKIwWKkkL8KO9i7/MehUQKOUiQZRljOMKRUoGSS0E5VqHX7FPjuCrLhvLfwBEUpQJAxsMgg3cL9b44Ysj+lMdWPAcllcEtvRjQBreKwp24MalKMmTz5R0dKVByccf7bSRIG8P2/o6UFOJHovbxKl6jvBhxjbYY04qgcRgJirVpkF8M1jOmFvOQlByUX8ooTgWIY909kBvnVGODB5Af0paR2BBvSHrbPNa3zn3iuRyh1kKbR1XGn4MeS2m6pppH3VKUYwD/fBqPeHs9fOP/tbxcs5mBl/1Kh+n4sbWnjad1POOQYSuOJOmSZ7zmv1my3HCsY7dPklX38vnVUGgC0sZ6d5Cwx4aa6/G1m0xoel4owy5jWOA2Fpl42G26XY4DHeVzNxfRdE1kx8xj+bbSP8fWUdIQyZT4aNp9Tm2jvSbpK3yOrRWkEgkkas8QhobiyFUkyKrmf5N6atE8ivpF4AqhjLVcBZDy8F9I2Y/z4ointjCWV6HtBd2dGGTqO5XHa0OI5xRAliHLMmQJqCg5pOJd6vqmkkNcdHwb4FyztlpWi2g+4ZlC0TjTEZtVVCoYE8SrFp5AcUkzln0IGUBl67Xg2FHGw+JU46o9lsXDIMdK5YyxOyargTwXtFTvLiAW+vg6hmwxK6hrDDdnJLi+X582lvI/CU5LYsjuqSF2Hr1OCWKIcRunB1GQuhD3YQFO+9wwT6EaaaxHPJVDRcoL5tQW8iV9jb/NY6ViuOepVFCpAJDz0PQ9f5sLAEAM2YcyAAVPHD2rNhEH2go3j/PMR4Jx5BfvOv+E3YwCRZGhajr2ikUUi0UU93RoeQlABbm17lQmJElqfnxjWZO2DNeTess2VLSwES5oqnhtnOm4pNloLtCYnnjgjfsZDqOMjKE5Qg3m86q1encFxvG1BEB5Es5XbLlcQCGTQcZc6MZzrv6/XBetmjFTiu2JAQSx964Tw+djgLEIpw+8vkE0Jknd6D7MR1Ybyg9zsR7AVzAh8FUeZajGjWzougZVlgAlh3gYo25zsqrk1myTlbnr6DXJNRBD1lJ4ikXs6To0NQ+poiAVdxiulzPiywY0RPfcMetKZULK46e9Pew5H19FKshq2WNgFdrRmmm67jyYdneB0/OnnEnVdzoDxWix3t1CLIuf8pLp+9Gv11qXXuJIpXLIKUc4AjA2JkOWPSoqbBM/e+LwTBU1Yye1kkMq3t2XlkgQZKiiMWmv2NplRN95y2Nx6orXeOCshw5dUyFLFSipuG3XP0q+ZBAIcWEmhqniHlQMIaWEceg7hcW8BCWn4ElhEVPZGFD+xTwaWox87BybyuKn/BbiOQW/lIuo2QPHF6Gqopvb8cbJwnahpBGXCaRnw5u7HxUJV4UaxRRuyYCiHOF9FYLjP9KIBFn22mVo0/FOyOPqfiOWfQg5l4KSu4PCTXdnx9XCHaSUCiCr0BymAdVCAqL7MOdLDNk9HTerZazdeQKlYlxaykkyVJrdEAvfecsax0OM02EvlcamUHwoQ0kptks2EfIlA0Ho29ZTRRWy4j+o26lNBFuvUc3exGvDb0ywm6Ne6RpSjSO7VMdimPI0JrJWUm6dwbla6/XwQY5H+43mG+fNhLXlsdIcw61ipyf9sMfVFp2o90Vh2GcqKQW5OwXc3PtcEKZuSqA6bUphHUFHof0TZSw2heLeFIqoopy5g5SiIJW55XoTnAwYvvOWNY4bJkbZAHJTs38O42UjfhVGLtHzJYNBBD+PltF9GDs5Y/cRlRzWCoY7gFZ2HS2qxhYbxkKdMVmG9BVsvRYcH1m7ojM3ayu+3g5fV7KF4S13SW08qrt46rZmrvdCzPcU/Eg5QJptIvxxtUUn6n2BWL7qKjncKbwXBPBShK0d+DBY78+tr8DnU6rB8pgqdrGpCOla6iZGAS6TWScXgS6k2tCO4RTvxnxpckFMxJew/a7nu7nr8Yhnc1vi+dkkp6uLvPhzejXXApFcCLi5XHHzsN/r4d0/Wyh0MXMOdIerHsf7qH3tyEWifD7xqKmynhe5/gnkqsoqmrd7q6Y6tKPeHaR1Vyn1MkuSs77+ct30fgO3segTn3VXR8Fc9Wi6JvSD5eFCha562kr/uOoxUWWfzxNqupqP9nlCu3w3e8ryy9eMz88TDgwRlUfdxU+dd7zaN6yFA7eXnzTDL5ssy7osy8Yk0uokWPt8E3TJStfLB16vh7f7HJQc7/ECJqzz+DyhXYGw6izLLkqFEcFbsXBN0+Xdh1YebYqSXE/b/uRrykgb691B2jJ522S9qb61v9XfmeT45GEo5VH3fn+SnHcps1h5tJTbenvWv+MdyG8naYlg8mf6/RQ9tUYKENbV73CbfSU2bMSgoQz1fiK7zI22BVBD2W3puU2qaqOP4Ib4bv2T9C3RlUdd9L1Ln3haXpdcFT63nRRVz8tSs9A6nS5HQFPzuiyhocN5Oczu9fC6puqyfYCBpMtuq8gOc27ftm6qs6EQCN9TAMXCSDIvTDPf7Dk8lPJYWyh5PPW+1sZ6d5B27fzUF5ECZVkVO74X7uyGauPGMcf4nrBbmcXtoeXlhonZUCRFTs2pPHaCwMqj2yNSHl2fc1IezTTVJtkyFElZ1TxkyL577owrGMMC5gvp4uYScjEM6bqug5Bz5uzsDMPDwxddDNJh+q+dy8gMpaBIbp+iJN1E/8kfId1BhAszhBAyoPTShSNCCOkQVB4JIaRGGYVMWfxBgWoBCeMKK/KhrrASQkh/EdrPIyGE9DPHSgo5BYAkw/IHf3SkGJ9nhQRZFX33mhBCBgfaPJILgbZIg0EvtnO1XMDaky0oFZvHO0mCNDaDh4tZfmWjh+hF+SOkF6DySC4EDuqDAduZXCSUP0I6A20eCSGEEEJIYKg8EkIIIYSQwAx9+vSJx9aEEEIIISQQf/rf/w1ddBnIAPKXP+ug7PU/bGdykVD+COkMPLYmhBBCCCGBofJICCGEEEICQ+WREEIIIYQEhsojIYQQQggJDJVHQgghhBASGCqPhBBCCCEkMFQeCSGEEEJIYKg8EkIIIYSQwFB5JKQltvFoehjx6Sx2LyQ+6S3a0N6nzzDz2TDi97fbWTBCCAmMi/J4gtJgtRYAAAAgAElEQVT0MOKfiZ4kZu5v44NfvOlnLmHCx/twuo1H08mGcsxMZ7F7GjgDMU3pJvHozUmfhfdqy8bn0Rv3rM6LD8+Tgcoa/2wYM8893s15cXrB8XuabTxya9t29O9u5PSiC0CaON1G6X7SUMg95zmfeXE6i9Kbk+Dznmu+z9oytwVLu9U6mX041HxP+oE/+YaYmMS47b+HB/s43LiNGxuTeLC3jfSIS7yDJay/+QaPrwcoxelvUA/c/riN9cRtbGIS43NpXAGAtyVsHpSwkDj2LoNnns8wk1jCIVBL991GCZvz43g39xJbq8m+Cf/Xr9OY/cL9VbzbKOEQk7g8GvjtdZCrGJ9o/OXwYN/4h0MWr5xbmTwYSeLxqzM8vqj4/YK9bQ/2cdhq/+5W2N5dxYfnSdxYbh5fjHnue/x+LymWP8dYZMjsPg7nS1iBz9yIE5TuZ7CyYeaLyfqYd7CPw419LLwFdl59g0uha9RC2i3ViQwaPspjGuuvCrjW8NsJdu9nsLCxj5V/bSPtVGpsbOafYeG6fwfY/ZehBLlxefkldu4mbekUsPAmixvzJaz88xm+DN3JtvEosYRDZ4dYzaI0PY6Vje9Rahg0ejn8KK7ddbahjTdZxDeA8eViVwwMl+4WsHXX/suJUacDkSyS/qC5ba1JPVr/JiQAb7KG4jjxFOs/fINrI/Y/nuDD899cNordxiLb3JgYxh8vzgSbJ9Z4BozPPcW395z5wtg1/JcWoUKtpN1KncggEsHmcRTXVr/DLABs/NvFbieN2TmYu48+yZ0+w48bAObSRppNJJFuUBwNLl3/ygh/8C78SdCbf2MTIoVpFOlcGoChGPdNeFdOUMqXAKTx7d2u2HYkBABw6e530fs3IQH48McxAGA2J1CyMIpLd0W/ezGKa6vb2HmRBgBszjfbte7eN5W75UNsrbqkP5JEejX8gqkzafvXiQwmES/MXMblCe8QN+49xTiAzf94KzHGruMkHtz7KlpRJq5gJGSU3f+UAEwilRQoTJZS+lar2XD0enhX3hTMwSbb+zt6pyfYfZ7FzHSjzc4jkV1kw4WDE+zeT7rY24rTbLSF8rD5EdgdzUxnUTq1B/KxGXJLw8sWti8wxxhn/36T9bR33b1vtFHDOw7a3qJ3fX8bH2p2YY6J05nu86wtbhKPnotsw/1sxILInCB8oLDEzml13z9QBC5dL2B9DgBK2LFvnlgbJRNPsdbuxXon04ZHncjA4m/zKOQP/HEAb8Vt5O9ITSzhsOnI1c42djYATPwDX44Af4QpwqmGdwDwRTzkCu0E/30LAFfxV2GZzEnL3PG41PPh3einXccTlP5prLoxYe56A3j3toTN5XFsVl9CczGv2L0/joUN0V+28Wj6NjYPAExMYnbuqvn7Md691QC4m2sAaLJJnTXjbm6UcOWkgEArnjdZzMyXjDQmLLtVI43D+RLU5UNs9XzbuWDZQc+F7d/euLa3rb1ge9fvNm7jxlu3UxELDaXp21jBJGbn0riCY7zb2Mfm8m1P2WsmrMxp2L1/GwsbjfkebtzGDYTJdzC59rc0sFEKbF4VKe3/bOPxdaMdLPOs2Vz7zTA6mbaFqE5kcImgPJ6gNH0bm/ATVOMIdWW+5Gob+eH597Z0grqdOMGHN79hcX4JhxNprIceIP0U31H89QsAB8f47ylwbaTXwwsD9deuIwB8IbJbsmxA/43d1WRzPd9+jx8P0ljfKzTZO5XMSXz2xSEeXw+voNV21B1G5o9XT/DhNEACp89MxbG5fI9Xt/Hos9vYXB7Ho8v9Z4P04c2zFvq3B67t7WJDDACrdTsyVzaWoM69xM6qzbzmnqmMusleExFkbmMJP869xM5HUb5ei3YCALiexYOJElYOlnBj+h0e5LJIR+jr4rS/wixK2Hyr4QOStkV/Gjfa3l87mbaNpjqRQcbn2LqEhekkZmrPMOKfjWPlYNIc4HxSv57Fgwm42EZuY900Vl7wFXi7S49x3Jj/GVeWX2KHFygi0k+7jgAwirTQxmcUX349CdejloN9XHnhVCRQU6wx9zKS4ui9uz2KS02/NVPbSRCVD0k8fpEG4G8W0huUsGA7Kr4xv4TDiaft798u7W0tYsWXxkaRfvXSZ+cxjW9XHZPpyDf4NswxXySZ88p3H3/0u2VDy4wi/eoQ63OTwEEJK/PjiHfMJCTAaV1Xpk2IGH+bR+u6/sE+Dg8AzD3FzsftgAOcdYGjhB8dNkqNu45+XMbluTRmzWccxpHQjX71BddpakeCX/WZ8n2C3TfPULqfxSNzsVNzwyHCZeFi2ZQ+uBd118vc/UUJC9NRfLYF2EmwbFtdL631GBOTGK89AA6WcMPPz2noPMTtbdi+udgQA/C18XaZtEdik4GLFknm2pAvMS6EaHsv8cChRHJuIcQdH+UxjfWPZ9A+nkH7aK7QNpZwI4xDUHOSO1wu2CY5c9cx8Db7KNKrBTw2n62PZ9h58RTjByUsJBxG7KZBfdNDJ6Y16peU+sVuxboEMY6F+SWsbBzjHYArX6QxO+cxkQrtZf1sSoNxbfXQ2HU/WMJCIuwllyA7Cf6X1nqHNNZfbWOr9pxB23uJ2Yl9bM6Pt895fafaO7TddZvK0HK+pMZIEmmHEtk0t4ShySa/0RY9FL5zWgtphyHyPQPSj4SweTRWaOsYxsLGEhaf/z2gsX4SC8uT2Fwu4cfnWVy7O2pzNRPd3u7S9W+wtvwzbiyXsPOmgGuWEjqaxfoL0c3ty40C73qhxGUg7/XwNRovKfUDH54bfsjgtDuD4S9w80JKNYr0qzN8ebqN9X9+j80D45LLygT9VQZiJInHuTQ252mgT86RkSTSq0l8GUvixnIJC/e/inbx6OSdcdEtdtn8IaAtugjfOa2FtMPQVCcyyIR21XNt9aW5k5hxuBxxx/LZdvjrb4bbizbZ2126bNxGfGc37hkZxbXrScFj5WXt2BgdrRnnrk+vh3dgKe5f/71PVo8n+P1XYxd73Wn/hVbccbi933BcGkni8avt+s79QQkLvt8kDrKTMAB2TqNXGr940VHa0969XwYC2PyMBnF51oQ1xzWaQhjmBEF98NrwndNaSDsw4jqRwSWCn0fLWD+MoBq7jzhYwvpzw96uHbd8LSevV0J9V8+6RLEPdVtwjNikXPV6+EY8fUT2JF5KlLULGwaf9xuZIM7162Etm0nXyxZmO/f1EZK50yHisCpy7GXuqofCetce7e35+dR20CmZIxeB5awbc981XMCqKaQbt9try9vhtAH3OpHBJZqT8Not6tuB7ZEuJf9hOA1fNuztgiovu8/Fhssf3jzDYii7SVtZrJ3Q5YIj7W08mi/BuSva6+Htfzcm19bs+boLa5fuZ/x+2viXD88z3i5WXKi/34zATvEEpft+9rMn+OA1gAfYLbxmOdmfF8m/1c79ZLfq4NSqIzD7N1sdaxeFvm86+di9fzuSiYL1roWnKaeWG5/O0rrMkbDsPnezQz7BrnUDP8wJzek2Hk0PG35EJ55ip+m429h4Mfr1OGaETuTNdEK3d4fS9q0TGVQiOgkfRfqHp1ATS9icz+LGxwA2XCPf4Nu5JUMIw6xeqiUsLJcMp7lfmMfUb0vGzW9M4sFeFPsxo6NtzpewkChhfC6NKwDebZTq7lH6KryJZfDcV7esbf5EE0moc1eNd/G2hMODNB4sAyteN66FGO/33bxx83KlwWn0Pg4nnuJLnxR+z49jZX4S42Z5anExGczDwEjdpnchUcL4RBpXak7CjfrMvtjuk12AEhamj21H1KZnBxifWmt0CWbZUO83tzee4sHcElbC7j7W3rXx/V7V8a7H557iwdulSAuR4LQucyQk1RJWlktYAYzb/ubPhwfmeOH6tRanvNriABife4k1gQkNAOB6AVsvYPhwXb6NG8uNeeNg33RU/xQLYevTUtot1IkMJBGVR9iUQdtFGB+u3XuK8Y2fkQqxW3Lt3ks8wPdQN/axWevUkxif+641Yb5ewM6LK1jPLxlf7ACAiTTWfxD51euD8ED/GjxfL2DnBbA4X8Lhxr75VRfDafjIdtKYHCKkubX3FUr/+h7qRsn46geML72s/+Cn/I3iy6/TUFEvDzBplOle8O/lXrq7DS25jUfWhRtbGb71audexJrYTMYn0ki5OG2+dHcbO8hicbmxvXdWv8Hp/aVI2V+6u42dy8+M/mS964m6P9vSdLR0Q9GSzJGw1OaWt6YrOvP38YlJXMkVsXB91P2dN8nrJK58/R0Wkkl/P67XC9j6mMXu8wJ+/LXUkDcmJjH79XdYuBtxbmsl7VbqRAaOIe3jmX7RhSCDx1/+rON//zd00cUgHaY/2tn8os/EU+y8ohLXS/SH/BHSfUSzeSSEkEFhEC4nEUJICKg8EkIGnG2U7rtdMDC+Md7Xl5MIISQk0W0eCSGkT/hj47Zx0aZ2UaXxYt7sC9F3rwkhZDChzSO5EGiLNBj0Sjt/ePMM6/mf65fyAONi3hf/wLchLjmR7qJX5I+QXoPKI7kQOKgPBmxncpFQ/gjpDLR5JIQQQgghgaHySAghhBBCAjP06dMnHlsTQgghhJBADOm6TuWRnDtnZ2cYHh6+6GKQDsN2JhcJ5Y+QzsBja0IIIYQQEhgqj4QQQgghJDBUHgkhhBBCSGCoPBJCCCGEkMBQeSSEEEIIIYGh8kgIIYQQQgJD5ZEQQgghhASGyiMhhBBCCAkMlUfSh5SRSQxhKJFBua/zJKRdlJEZGsJQooCq83fKNSHEgYvyWEUhMYShIdGTQCJTdgwwgnhNg5AX3vGq1TIyiURDORKJDMrBM3DJ1pluAhmvRHs8fLVcMCYCK3wig0LLL/EcqFZRLmSQcMpkIoFEptBch4uoUg+8xu4j6jhDzo1BaIBqGYVMAglf+fORV3M8DfzKXPMttGVuC5Z2q3VyW3SQvkcXoul5CToAHZKkS7YHMH+HpOc1j3iALqvi1Juzy+uSla6U1xuTVXXZzE+SZV2WZV2WvMoQPk8r3fr/BQXv8fBaXqq9MyO8VA8f+SVG59OnT4HC1cttll0oi7IeVNR6BjWvy1KIPtSleLdz1HGGtB9znG0af3sbv3GmYXxpkj+n7LnLa23+CiSzmp6XXcY113kwKGHTbrVO/Sk3xB8f5VE0KWu6agln08zWqDwGFShV9oqj6vm82pSOpsotdLK6QioeHJy/90t4WVftv2u234XvqXP4K49aXS4kR7kbgql6Xs73nfJoTWqDoTyGHWdI++lPJcBT/mxzSPP4oula3vm7l7waf1dtiptYbOtzpCSL8tVrY1r4doiSdqt16k+5If5EUB51vUEZcYknywF3H60dNFkOKYQtKD7moCHccbMGFHvB+zj8RSkpgXcE5OaFwyBA5VHXW+rjJCT9qQR4yV/4PuYnr2YoawwWhLMWxJ047YmWdqt16k+5If5EvDATx1XJO8StxTwkAMov3mbW5bUcKpCQX7wVrSjSVcRDRin/ogCQMHMz1vzHqVuQAeDofc2Go9fD9xzVAu7kKoCUh1acgqCWPnjY4QjtJxPIFLzeljhOo02US57VgmF3lCnX02nI12FXVc5gaGgI8VwFAKCk6nlmnF1JYNeU6BU71kD4jDNh6m+1Q6KAKqoo2+M1xGluo4SzjWppRpAlUZkzZVRrtmeOiylh5Sfq+3Glf23atONKR9KNTRWhygCgoGH6qxbwRAEg5fFTNvyo5kkn04ZHncjAElF51HBcgbfiFruJGQmA8gTuY2kZhh40A5Ee5En1PY4AYOzzkMpFFe+NiPhcGNGcsCrH0PoiPID4VRg/aU2hjQFUwtWwGngHqb7eQgWA/DAbQXH0TBmFO3GkcgoqkCHLxiNJFSi5uDlBOykjk7DiSLU4sgzg6H2IvN+jkIgjtXWEMVmGLEuQUIGSSyFuzzd+1UjfVJokqV7OhjYqZ5CIp5BTKkAtjIRKRUEuFUfCUxnuFTzGmcj1P8ZaIo7U0VitHWDGyZSrKGfiSOWOAEs2UEHF2UYAIslStVArc8VWZigpxBNrOPZ8FwHlp+X3MzhM3ZIBAMqT9ivGtbRtmpaxUdKJca2zaVuI6kQGGPGGpLctkmVX0bzd74gnOkK1h244Ngi6/a3pmmoedUtRjrP88zG2/y27wV4Pb2C9a6lmP6rpau23brow42a3GQa3d6QZ9pGuF73czDCgy65Glz55NlxsUl3+1izHnkdq9nhNxbKOervjyLsVm0fXcSZK/e2X8pwJ1o7kPI7lRLIRSpbc7JQb69oUL4r8RJIPtz7T28eSwS9syXret48HO+I1cL63MHHD0krardTJ7TcyCPjsPCpIJRJI1J4hDA3FkatIkFUNxSkfzXRqEXnj7FrgI6yMNfNoctEvHevoZMjIP57awlhehbZXhG9UAgCIZfeg5SVjF8V8j6lcBZKsYq8Dxxyt47az2goxZItZTDWlG8NNY5u88UimvIZcBYCsotgcKSQyHjqP4GNZPIxwFFTbZVCLgrpMoaj22g5BuHGmtfrLUJ0JWqYeVpqO9G4J2yicLFULT2CcKv6E5u4WQ3ZPrZVBTHD56T/56BQxZPc0qLbd5865LwtwWteVaRMixv/YulJBpfYAkPPQ9L2Ak2kM2YcyAAVPHMck1mAabJs9jquy7WjIOq5ph6/HAaFaSBh2dJLt6FUCKkoKCeFxbZdi2YA5nnBVqKJcLqCQySBjKiuWjaEdy7Y077+68cdlYI/7GQ83YZktyLjlVixLGRIu2rqUwONMi/UXtoNlWyk23/Buo2CyZJmHCO2UG8rgQmD56VP56BgxTBX3oGsq8g4lknMLIe74KI8yVONGNnTdXKEpOcTDGE+bA1Ult2YbqMxdR68BroEYssUiiuazp+vQ1DykioJU3GFgbl44aHr60OA7KDXFUVah7e3V3mNxTzd2I5VUT9lAjUkSJOsJFdO4KDE0FEcqlUNOOcIRgLEx0/bMEdbbtjRsocPa5roRZJfB/0JbdxFmnOlk/cO09TnLUmD56Uf5OAdiU8g6lMimuSUMTTb5Alv0oPjOaS2kHYbI9wxIPxLiwoyxQlMNTRB3AisbU1g0zq7ru4/lX8wjnMXIx86xqSx+yguOGuOLUFW1+Xl4s1HgXTuay0Dfs+GreL1lKOqq4OZyLPvQUO63XneJch3D52OA61FuLIvi3h72zMeQgWBUC3eQUkwlWteh60YaxWIRi1fbVX7SGlHHmfOFstSnmEqkZs4tqainMtoxDB3eUuGtce0I78OKtO+c1kLaYWiqExlkQt+2niqq5k7iHY9b1I00KihVFJ4oAGQ8bNHWLmb0GBzZe0wshqmpKcFj5WWtut06mnPl3uvhzf+7ck6r1hB05laftxLt7rajwwNyaIK0V+/bQLmPM91Q/26WpW54P72PNWdFc3lmzXGNZgqGiUEFubWQ45rvnNZC2oER14kMLhFc9VgG12EE1dx9rOSwVniNrUpru44WVWOLDWOhzoIsg/YKtl4LhgVrV3Smvqrr7fAWPspmN1G7aNXO43SvCdParbXj854vDJ+dWaAmA719vOQ2znRD/cPLklFmD1mqGuNi63TD+xlsypm4edHuYcPlqJpCqqSQabNBZSfTBtzrRAYY8SVs/08Wid1oeMSzu8oQuqsQX/lX8+JP09Xc9URyT+DyuT5Xtxy9Hb72mb+mr7VoDX87T3w/T+h0USL0A1H/dJa/2xF3F0D279sK04EkcOOhOT7z5eOqJ5C7KnvWHl8RCuSKpTu+Cd3aF2Zcxpko9bfiCF2KeJejuY0iyFKtzIJ20eruc1zd7oSRn0jyMXiuetS8m3seNzdmPvKqqbpcc/3j8r5UuT6uCT67W0snyucJI6Xdap16Wz5IdCIqj7qLjzHveN6KiovyWPu+saTLsqzLsqxLNZ9oLUyQNt9ukpWul3+8ng5vGwBq4W0fvo/kL7M1/L9trTcOXGZ7S5L1NP6eD+KzrvbOpPo7M+U176HE2d+TbH93QfydRVUebcqG1V72OtqVFMlWLrESfHG0pjzqrr4MQ9e/rcqjHkmWvMosyXlxGSLKT3j5GEDlUbaNIVJ9bKn/JvATKzWHb4gDgT/O5oxtGymOtFzzDkjotFutU2/LB4lOdOVRF31L028Vk9clV4XPbfJV9bxd0bGEvA3fPNbUfKNyIol3OfsjvKareblR6ZIkXXZboXaYQMqjiVFPhwxA0iXTsW+Y1bDmGFwl09Gzt1PuZhmUmt51m5VHXXdMBE4FWTeVa8cg7yMz503LyqPu8c3eMPVvt/KoR5Ol5j4rmQ7oXcrQivyEko/BUx5r/bphIQpdMtvEXU6aH8kaSwO/JMF43LYxOUzardapt+WDRGdI13UdhJwzZ2dnGB4evuhikA7Ddg5KGZmhFBQpD22vc5+YGzQof4R0hojftiaEENI2eImFENJDUHkkhJCOU0YhUxa7fakWkEi18WtGhBDSYf500QUghJBB4FhJIacAkGTIhotaHB0pxucYIUFWRd+9JoSQ7oM2j+RCoC3SYMB2rlMtF7D2ZAtKxebQUZIgjc3g4WIWTZ/xJi1D+SOkM1B5JBcCB/XBgO1MLhLKHyGdgTaPhBBCCCEkMFQeCSGEEEJIYIY+ffrEY2tCCCGEEBKIP/3v/4YuugxkAPnLn3VQ9voftjO5SCh/hHQGHlsTQgghhJDAUHkkhBBCCCGBofJICCGEEEICQ+WREEIIIYQEhsojIYQQQggJDJVHQgghhBASGCqPhBBCCCEkMFQeCSGEEEJIYKg8kj5jG48+G0Z8+hk+hIp3gtL0MOKfZbHboZKRXmQbj6aHEZ9uh1y0My1CCLk4XJRHayIVPUnM3N92mZht8UJN3t7xPpxu49F0sqEcM9NZ7J4GzkBMU7pJPHpz0rfhP7zJYsbertNZlLzS7yJ275tlvr990UUhbaMz40VbOe3StEj7ON1G6X4SM77znM+8aI6ngeXRNd9nbZnbgqXdap2iLtZJr/Mn3xATkxi3/ffwYB+HG7dxY2MSD/a2kR5xiXewhPU33+Dx9QClOP0N6oHbH7exnriNTUxifC6NKwDwtoTNgxIWEsfeZfDM8xlmEks4BGrpvtsoYXN+HO/mXmJrNdlX4XfvJ7GwsQ9gErNzVwEc491GCSvzJfzx4ixYO10Up8/w44b5741/Y3c1iWsXWiDSdto2XrSZkSQevzrD425Li7SFD8+TuLG8b/zHNtcZ89z3+P1eUjy/OOZFHOwbceZLWIHP3IgTlO5nsLJh5otJjE/Y0tnYx8JbYOfVN7gUukYtpN1Sncig4aM8prH+quCYqE+wez+DhY19rPxrG2mnUmNjM/8MC9f9O8DuvwwlyI3Lyy+xczdpS6eAhTdZ3JgvYeWfz/Bl6E62jUeJJRw6O8RqFqXpcaxsfI9Sw6DR4+HfZA3FceJp46BxbxuPErexOZ/FjY/Odu4ePmz/bCjJE5M4PCjhx+dZXLs7etHFIm2mXeMFIYF4kzUUx4mnWP/hG1wbsf/xBB+e/+ayWSyaF404tbkxMeyyKD8xxugDYHzuKb6958wXxq7hv7QIFWol7VbqRAaRCDaPo7i2+h1mAWMXSBgmjdk5mLsJPslZu0pzaSPNJpJINyiOBpeuf2WEP3gX/jTozb+xCWB8uehYSY0inUsDMBTj/gh/glK+BGASD35wTMwjSTx+kQZQwo/Pu/X4+gS//7oPII1vf/gHxgEc/vobj0j6inaOF4QE48MfxwCA2ZxAycIoLt0V/e7FKK6tbmPnRRoAsDnfbNu6e99U7pYPsbXqkv5IEunV8LuOnUnbv05kMIl4YeYyLk94h7hx7ynGAWz+x9tGzdhFmMSDe19FK8rEFYyEjLL7nxKASaSSgt0rSyl9q9UUlN4O/wf+OAAw8Q98OdIcHKNXDIWs+ofgj13AmwJWDgDMfYVrI39HagLAwc/4/TRiegJboJn7PvY6pyfYfe6wF/0siUddq3D3Hm0fL8x29rXVPn1myML9bRi7LEmHLaWLTZcz3vOsTaaSePRcZBdO+7Bu4rS67x8oApeuF7A+BwAl7NgXQ9bCZ+Ip1tp9ctLJtOFRJzKwRFQeLYXEQ3GzJvqN71E6dQu0jZ0NuCs2XpxqeAcAX8RDrtBO8N+3AHAVfxXmaSrGtR3NXg/vw0jctCPVunJCsxTlB/eScN2JDcrpM8wkbmNlYx+HE2nMzqUxOzcJbCzhxnQBYvX5BKV/jmNhuYRDWHHSGJ/Yx+byOC/wtIt2jhe2dh4322t2wrTV9lDcdu+Pm3bBYdBQmh7Hwq/HuGLK0zj2sbl8GzcoG13Ntb+lARjmEu0e+2pp2xZDlrnFbC6KLaM3nUzbQlQnMrhEUB5PUJq+jU34Car/RP/h+fcB0mnO/8Mb87LIRBrrHjaXYvwU31H89QsAOMZ/T/shvKVMuuzWWUp4lOP/jiNQFqydVVeTCfe06naiZ9BeFfB4tYDHq9vY+niIByhh0+0SxhdPsd4Qp4CtV4d4MBGlHERMu8YLq53TWN87w5bZXo9fnWFneRI4WMKiaMf47ff4ccOIo308gxbUjnpjCeoXL7HzarsuT3vGLiplo8u5njX68MESbrTb80TTCZC16E/jRtttBjuZtg3BKRgZXHyUxxIWppOYqT3DiH82jpWDScy+OPQ3nLU6p3AQ3ca6aay84Cvw5nHPZ0b+N+Z/xpXll9gRGviSRkbx5deTAPax8k/nCvsEpX927+UDS1kY//rvtok8iRsRjk9qaTXZiQLAKNKvXrrY0I0iLbQfst4rj3HaRhvGi5qC+aLQ1GaX7hq22kKb2YN9XBHE8SeNb1cdNtkj3+BbHvH1AKNIvzrE+twkcFDCyvx4B92XBTit68q0CRHjv/NoXdc/2MfhAYC5p9j5uI3H14PYVVi7Cc0XMsLtOl7G5TnbkaF1LNQOX48DwKW7xRj76+EAABErSURBVPoK+7NhzNzP4tH9pLEQQBqzE+jCgce6KNNs23nNso8Lcdxk2De52IkC8LfjPcHum2co3c/ikbmQqrn4IG2i1fGifrlKvAPjYdIRaBErwKXfjMQmIyRGzh/jQoi29xIPHEok5xZC3PFRHtNY/2ge43w0V2gbS552Q02YW92HywXbboK5ixB4m30U6VXbkeHHM+y8eIrxgxIWEo7bX2+yYoenA22kXl9hjwM43Chhc2Mf43MvsfPqK+C8fOaFwfLlN/dd805h6Iszfnai3nF3TUV7YX4JKxvHeAfgyhemvSRpLy2NF+YODEpYEDo9Nm6jCgltO91iPNJdjCSRdiiRTXNLGJps8kPaotvxndNaSDsMke8ZkH7E30l4DWOFto5hLGwsYfH537EV6FZXEgvLk9hctvnnq7mayUY+dr50/RusLf+MG8sl7Lwp4Jo1qYxmsf5CdBPzcqPAmx2tuRO4KBq9Ht5sv2urjuCnz7pyQKj58tu4jfiGW6h9qNsnSHfQ5+OH54aPM8y9xI7jePLD8yQ2O5bzoNKO8cJyhO9Gt+2yk65hJIn0ahJfxpK4sVzCwv2voIW2qwdw8s7wTRu7bP5g2qIfGLboocwjfOe0FtIOQ1OdyCATQnk0uLb6ErMbt7G5nEEpGczj/KW732F2+TY2f/0NH+7+Hb/nSwDS+LbFSf/S5asA9vHujxPAOkYfGcW1Ea90rVWaW0dz2o/0enhvLAfcs3+LMEB2DPOiDAzH4GIMM4rD5QJ27wa1fQ07uNaPQdeddm3onKuPQSf6eGH1jau4sUp7aBKdmgy+1fABzX3fm7pvXbuZjGHK4P9xjSZ857QW0g6MuE5kcIlw29pyLB3GXYqxm4CDJaw/N44jW9l1tLCcvF65HEaY6xdI1G2BYbS1y1G7pNHr4b3wsxG7IMw6YO4ltl5tuzxnIfyOWTfQXd4Z4PLJOy9F3NrhJe0n6nhhtTMvqpCLw3LW7TS5sS5sYeM2HrX5Uk4n0wbc60QGl2h+Hmu3Im/jUcBB+lLS+DrI5rLhLiXo6mX3udhw+cObZ1gMZTdpK4t163K54Eh7G4/mS3DucvR6eDEntQFh9kU37dJYK1z/3dAwftqsSzaHy5lmP4KnlnsXJ+5ujj48z7jbz5GWiTpe1C5TzbuNG1mUqFgSGHOL+Gb1CXaFnh58ON3Go+lhLJjOuneadgCNjRdDPscxI3Qkb6bj9+GCJjqUtm+dyKAS+tjaYBTpH55CTSwF/y7yyDf4dm7JEMIwq5dqCQvLJWBiErNfGHZM796WjJvfmMSDvSiKj9HRNudLWEiUMD6XxhUA7zZKxhFukzLV4+FPn2Hmnz8DX1w1HILjGJumM+Tx5QAul84TawcwyO3X619hFiVsHvyM30+/8ZapEctG1vhGqzqRxhXTH6ZxeegpHrxdciiExu3flfkSVhJJqHPG+zPkL40Hy8AKb1x3hqjjxUjdFnohUcJ4rZ0b+wchqJawslzCCgBMGJcJAeDwwOzTrl9rKWFh+rgWviEOgPG5l1gTmLkAAK4XsPUCmJkv4XD5Nm4sN+aNg31jETvxFAth69NS2i3UiQwkEZVH2AZ3m2G7D9fuPcX4xs9I3Qu+erl27yUe4HuoG/vYrHXqSYzPfdeaMF8vYOfFFaznl7BpTiqYSGP9Bxdfbz0d3viKTC0cgPGJNL79IetrS3PeWDaYwVb81uWKYBdnLt3dxs7lZ8Y7OzAXIBN1n6Wl6aXmSNcL2HkBLM6XcLhhDL7jc0+x/sM3GNlOGhMP6QhRxgvA3s4/19sZhsw/yGWR7qbFErkwanPLW9MVnfn7+MQkruSKWLg+6j4G2cLX4nz9HRaSSVwa8cn4egFbH7PYfV7Aj7+WGvLGxCRmv/4OC3cjzm2tpN1KncjAMaR9PNMvuhBk8PjLn3X87/+GLroYpMOwnclFQvkjpDNE/LY1IYQQQggZRKg8EkIIIYSQwFB5JIQQQgghgaHySAghhBBCAkPlkRBCCCGEBIbKIyGEEEIICQyVR0IIIYQQEpihT58+0c8jIYQQQggJxJCu61QeyblzdnaG4eHhiy4G6TBsZ3KRUP4I6Qw8tiaEEEIIIYGh8kgIIYQQQgJD5ZEQQgghhASGyiMhhBBCCAkMlUdCCCGEEBIYKo+EEEIIISQwVB4JIYQQQkhgqDwSQgghhJDAUHkkfUQZmaEhDCUKqHY0nyoKiSEMDWVQduafGMJQwvl7uzmvfIg3bAdCyGDiojxak6PoSSCRKbtMzrZ4oSZw73jVahmZRKKhHIlEBuVWNYSmdBPIeCXabeHrEVEuJATKTLvSPz/KGbN9CwHKVc4Y9ch0ydR9Xq+yu5qsBUxlX/C0pX93mm4vH/HBbRHoFdb9scasaiHhGU4UJ0rZq+VC07w4lEggU3Cbn4G29LlqGYVMAokmvaDQ/X2WtA9diKbnJegAdEiSLtkewPwdkp7XPOIBuqyKU2/OLq9LVrpSXm9MVtVlMz9JlnVZlnVZ8ipD+DytdOv/FxS828Lruq5rmq7KUv3dQdZdX3mU9DvIp0+fxH9QZRc5EAV1ypkpKwHitoYl5x7vm+i67tHOuq7X+7ZjnPEcYwgJjrf8henH7nOi9cimsGp5uelvEMm5LU4otLxtDmxM03t+1vXW+pym5+XGPJrid3zsJd2Cj/Io6lSGwgJAR5PS0ag8BhUkSwlwUx7zebUpHS2EkiHIsaaQNnYUq/zO37stvP2dSbqcz5vx3QbB8Ol3GvdBPWiZVEGdqTx2G8GUx+b3qOUlTkakZdqvPEbp820cL+ybAIJ5UdeNuVFyVQSj9rn63C7JeV0VZ6znZfbXQSGC8qjr7gJYjyc37Qq5YHUGWQ458bt3Av+ostn5BDlZSqm94N0WXjeUR0lWdU3Tdd93ESH9TuM1qFuDmLC8nmGoPHYbUZXHlvo3ISb9pTzWFThZqL3ZsMb1pjyj9Tlrs8JrTCaDRcQLM3FclbxD3FrMQwKg/OJtTVJey6ECCfnFW9GKIl1FPGSU8i8KAAkzN2PNf5y6BRkAjt7X7Ea6LTwATBV17BWnEBNEcRIl/YskdnMGEoDK1mtX29rXWxW41kkYpYpyIYNEotFOJ+NlcySw7UlkvGx5XS7sVAtGGokCqqiibE8zkUGhZihkltFuRyS0X/LJJ1M20sokxHbEono1lKMbMMcYt/4dqQ5iGRDbcAcJ63FBK4q8EeJFeQ25CgBZRXHKZ9ybKkKVAUCBzxRsw6XPVQt4ogCQ8vgpG3C8JX3Pn6JF03BcgbfiFruJGSmHivIEhcUpiGWuDEOvmcHNGHAcpgjV9zgCgLHPEU6cq3hvRMTnwohmB6ocQwMQ67rwYel0+h3Akp3KFl5Xs82yU30NQ3c05MafKgp34sbAK8mQZePXoyMFSi4O5ViFXpxyRCkgEc+hAjPOGAAc4UjJIX50DDlSxY6xlshBgQxZHsMYjqAoCnIpBceqhlu/xJFSJEiyDBnAkaKgkkshLiqfD+VMHClF+AckUgoqACRbvRRFQSWlYCuvYa8bJgirjWVB/45UhzIyiRQUIxJkIxKAIxwdvQcwFTGssPDh5Y0QH6xNgPxiMNmZWsxDUnJQfimjOBUgjkufMzZ4APlhtjvmB9IdiDckvW0e61vnPvF8jkSto0fjz0GPHDVdU82jbinKMYB/PsYWvWUv0m3hPerkdRTRUvrtx/s4yfvo2v1vbnXV9LzQTsdNzt1sRO1xPOI587dfCHP2hdrxUpgjJp98JEmXIDfXt1YOwd9shvTttGCIcmzt2b8j1SHEcV+osO2SN9Ip+ufYOkoaIvkM2+cos0SMz7G1glQigUTtGcLQUBy5igRZ1eC7eJ5aRN44uxa4QihjLVcBpDz8F1J29wJxxFNbGMur0PaKvnsApDdxP7qOcGSNGLLFLJpPemK4OSPBebRTLTyBcUrzk2DHPIbsnhpx51GG6uw0ltkAAFl1yvMUboU+egJQqWBMLTbVt7aDIPgbMIWicc7la2rSfhSkbMfP8VQOFSkv7N+R6hDmuC9MWFfCyRvpJRpl1W6S0FmLhACnfW6Yp0qNBO1zLeRL+hp/m8dKBZXaA0DOQ9P3Ag6sMWQfygAUPHH0LGuCDrYVHsdVWYZsPhIqUHIpxHvBFxyJRuwmZgztEa/tbVw7WnnoYgrhRRXlcgGFTAYZczEUz1WaQmnHfsqpv82vEOEAbKUl4apgdI5HyUi4ILPMF2TccltxWYqscLHXYSQJUu0BUMkh3uSHNFodwhz3hT0a9CaYvJEeo0FWrWfMP9654zNOBepzhIjxUR5lqMaNbOi6BlWWACWHeBgH4OZgXsmt2SYkc9fRaxJoIIZssYii+ezpOjQ1D6miIBV3OHi1HEc7n45/dYS0F2vhUcGWTXusvt4ydp6CCY4Vy7w8EkcqlUNOOcIRgLExGbLsHF39bEQ7RRvzE9oBB9lBiKgUt4wMdW8Pe7VHh66pkKUKlFQcdR/wUeoQpj3b1fZh5I30Fk5ZtZ5ihMWsDd95q9E2PRhe/SVon4uSLxkEQty2jmGquGfc4KrkcCfwHv0UFo2z6/ruY/kX81hwMfKxc2wqi5/ygiOg+CJUVW1+Ht5snFBdO4PLBNJt4cPS6fQ7gbXwqB1dW0fWQRcdBtXCHaSUCiCr0HQdum4MmMViEYtXO1Jy0iqxKRQfXtQxemtQ3khofOetGD43L4a9Dzr1hr1UKuxzEfIlA0FoVz1TRdXcSbwT2MYjln1oUwKqKDxRAMh42OKtzpgh1TiyS3UshqmpKcFj5WXtTLh1BudqrdvCh6XT6XcS0+bPOrquHVnfCrHoqCucanGqaRA1jqhF9NtgGWQHoctkIX4Vjft0rdQhTHu20vZR5Y0MNL7zlmXCUkFuLdhiqmYfHGal3dTnwudLBoMIfh4to/QwwmTuPlZyWCsYCkAru44WVWPLDGOhtswso/XG49Aa1q7oTH3F113hw9Lp9DvL1K360XW0I2svhcjadbVjrbRd3hdQV2J7CqteHpc1TFkI7/6qQ2jHaHzNUergI/+O9IOHdS10SHkjJBjWJgyUlO1Y2YVyxnDVFehCqo2mPufMt69W1KQVxJew/a7nu7nr8Yhnd1fi9dkkh9sLNS9yyWFzLRDJhYDNXYHwM4EeLlO6IrxHfdpS387j56qnjiUX5jfNPV05iWTI/XOHtc9xOeW4JqsCOdVs34YN7ULH67Nf4jZodGcVMB/Xb6EHcXPTXpdNkb8wo7m43YlUB9vvzf6LHJ9UixC2VXkjHaN/XPWY1D496PZ5Qk1X89E+T+ja5wLla8bn5wkHhojKo944iAeMV/ses3DkdFEerTiSpMuyrMuyrEs1P3stTHQ2/3qSla7XwN5t4Rsj+yuBLaXffoIrj43fPvf+PJaLUlWru1SvuymneaFy1jjRS5Jsyp7pX1LOe/uH7Fbl0adenZCFYMqj6Zuy9ni3d6Q62CY/2OII2yVw2PbJG+kMwZRHp/zZnlpDBQjr6ne4zb4SGzZi0FAG2ORWPFRG63NGVLkh34b4td+oPA4K0ZVHXfS9S594Wl6XXBU+twlR1fOy1Cy0ssvqJwSamjd2s2wdzssvcLeFrxNsBzF6+u0njPLouRPYgLtDdM0x8EmmE2excmbFcb4vyXQc7eNcvIuVR7NiumyfaEwlrBOyEFh5dDySJAt2/mxEqYNgLHGNEyhse+WNtJ/AyqPbI1IeXZ9zUh7NNNW83KD0WYqkrGr+pzNR+pxHvpAkXXbbkSR9yZCu6zoIOWfOzs4wPDx80cUgHYbtTC4Syh8hnSHChRlCCCGEEDKoUHkkhBBCCCGBofJICCGEEEICQ+WREEIIIYQEhsojIYQQQggJzP8DFFkXVHPXlV4AAAAASUVORK5CYII=;" vertex="1" parent="1">
          <mxGeometry x="970" y="640" width="485.81" height="290" as="geometry" />
        </mxCell>
        <mxCell id="iAH6zQvwI0jVcYzAp-XG-5" value="" style="shape=image;verticalLabelPosition=bottom;labelBackgroundColor=default;verticalAlign=top;aspect=fixed;imageAspect=0;image=data:image/png,iVBORw0KGgoAAAANSUhEUgAAAdsAAADxCAYAAACDOh3QAAAgAElEQVR4nO29f3BUx53o+1GMq9Y3u4Z1kvXGOAaEBEGmshZa5OxMcokdBEgQL06BzPVio1vBR5adWFNJZHsKey1uTMmEdXbkrJE1JpUR1tuHBRV878LIWJiE55XutVhZeVksgkcIcAyJd19yhZO9dmLMeX+cOfPzzMw5M6dHI/h+qk6VNPPtPt8+3d/+dvf5dk/Z5OSk7vf7+bOv/jeE6cO//ehv6ejomGo1BGHa4ff7xXaEovOxqVZAEARBEC53xNkKgiAIgmLE2QqCIAiCYsTZCoIgCIJiZtgR2nr8HQCeWHwjAL/64EO6x9+Nfd9ccT1//kdXx+TKKOPqj8EfLumxNIIgCIJwpZLT2W49/g5/8acf5//93/8R+6x7/F0eWXQDf3TVx2KO94nFN8Yc6yVd58NLOk+dOK9OcyErf777DB98pHPdH13FxH+5CYBZPzwNQFlZGf+7aW5Mdu4/vs3k7z/ij64q41f3zrXITRCuHMR2BBXkdLatCz/NrKuvSnK2ibPVWVdfZZnuqRPnZVabg61j5+CSnl3oY2U8UTXbUb5mZwHwmw8+YtYPTzP5X+fFvtd1PfaZ2YkAfPCRniYrCKXIrJ4ztmxnctNcR/mK7Qh2yKf95Xxnm8mZmmw/cZ5lf3Zt7P+tx9/h737+K1Z+elaurK94nqiaDR8ryyyQh6MFYp2FleFP/td5WT+XzkKYDkxumpvTdpw6WhDbEeyRT/vLO0Dqg48usfX4O9z6iT/mSwnO9onFN/Lwok9z6JeTvPzLyXyzv2LI6HDzdLQmpuGndgCf2/cOn9v3Tt75CkKpkLHDy9PRxvIV2xFs4LT95eVsf/XBh2w/cZ67bvoEqzLMYJ9YfCOv//p3+WR/xZHmcAt0tGC8YzKvRH627kbQ9ZhMqvxn97xd0H3VMEHXilnMmuVjIOnzAXwrZjFrRernwpVCWodXoKOFy812CmWqbGwA36xZzFrRxURR7+sMJ+0vL2fbPf4uzRXX89lrr4l9Zs50TX71wYf5ZH3FEnO4LjhaE6tlrVk/PM3bv7sY+1/33YLuuyX2/6/e/8iVexeFUrZCoWjEOjwXHG0sz8vdduwiNpYTu+0vZ4DUy7+cjM1Qtx5/h+aK6wGStv6AMZP9iz/9eJLDNWWLznA3B/6vx+Bv/p01tVOjQj645WQh3ln838v/nP9y+FeWMrrvFsoCP037e9pQXkfglUkCU62HMOW45WThMrSdgS58O/zQNkmgzmFasTFb2Gl/OZ3tqk/PSlsqzhRlvHb2n/KlP7uW8d++z19e98f2tFTAb97574yMQc2UaTC1JI7K6z9zTdo7qNTlMUEQDC5H25kY309oGJqmWpErHFuHWjhh1tVXTamjFexTFvhpbBmspEfmglBiiO0ITinqcY2RwKfYWvcpDgxnEBj+FlvrPsXWwKvJn59/lf8VaOAHdUb6rXWf4get3+J/DU9Ypv9+1zEARrbE5dPuaTfPyxxnHcUEA10+VqyYxaxZ5rWCFb6B9Fc7EwN0+VawYlZcdsUKH10DWZ6vVRpftgCJXEEUzvXNKecUJ/lmemapwhPW5fKlCQITXUZ+K7qYYIKBxPyT6iOaZ6KeXVnKr+p5TSNs2Y6K52+3/gd8zJo1iyV+o/MLrY/L+8xoJ1M/34Chg1mnMZty38Yc9QmFlL/EcH1mm41Kz71wcDcjQ6+ypvbLad9HhnYDUONJ+G74W/xgy27eAW6supeaeQAnGDm4m3e27ObNltf52lfLDdkbF1Cz+l44vZuRMUP++uiq0CcTV76d5HmZkxjgkZ0BfCvWExoGamtpaqqKfj7G2Ng4kPAyaMDHivUhDNEmDNExQqEQw+tD7O94g1daUp7vRBcrlvgZBkhIMxbys2TsZB5LYA70Tbh3bVMTxq1DhELrWTLWwRuvtJBXa3CSb4psU1TXUChE1akACYJ03b8EvyFIU1O0VGMhQv4lhE7uZdLyxdxJnlnhJ0QTTU1VVEXz9q8PcXLvG6w+uIT1odrYvcdCIYb961lilZ+q5zXNsG874N7zd1D/8xfS1NRk1M2wYYtVUTNYOD9dwwHfEtaHnDwBxX2CJfm2/6mnqM6W2gdZWbWbQwfDRHxfpjLpy1c5eRCoehKPGdR0vjvqFO/l7p6nqbwhLr3G9yoH6jYw0nUrB26MBkLd0MwaH/zmRycYGTvG9X/zdHqAlNM8L0Nu+uMZsajK1NH5TX9s1SQm6IoaVdPeNwjUZTGKia6oUTWx940AiaKBwAC+WesJ+Zfgq0gM1hjAt8TPMLV0vPEKSTYXmKBrRdS4bONA39i9U/UN8FDXCpb4/dzftdJmR5B/vgPPWJc/EJhgInXAXtXB3udaSC7WQ8ZzCh1kIFBHWnczHCLUlNwRBVb7mLU+RGj9EkI0sXcyEE8XWG3UVVp+qp7X9MC57URx7fljv/7LWwgEYKJrjNDwMFVtgcwBUmM72DGcbrOZUd0nZCGf9l8CFPlXf8pZsGwpsJuTqZ3ncJgR4MZldVwX/SjS9xjvADXbkp2iwZdZs+1eAEaGXk39MiMq8pxu/Gz9Z5JOvUm8frb+M+kJBp4xnF3T3hyOy3Qa0LTXymjrCOxtAiB0ML5rb6JrByGgtuM50vvoclpe2etsZutAX/PeVvqWt7TRBAzvP+R4edRZvhOMjwFUUWFR/vLy5P9bAqkdjfH5yjtrgRAHLTdENrE3tSerWx17rk17AykdVB2rm0jLT9Xzmi44tp0Y7jz//Os/B8PDVFnabAYU9wmZUVT+IlD0n9i77vN/zY2kOzNjCXkpN3/efIoT/Po0wL0szDTDrG0wIo4PhonYuruKPC9/Bg6GgFo6Hso1XjSdRhOrM4maHUzoYGyT/KmTw0Atd67MZLTzM9dXgfoe2j+cRd/ofYdPcsr+7fPIt5yKKoAQ61d0Ye8V1gQDA110+Xz4VqxgxYr4uzlLaheSvnJoPtday2XF+WkPXdXzugJw5fkn4rD+c+rXQU5zSUB1n5Abl8tfBIq7jAxwQx03Vz3GO0lLyeYS8l+zIDbbPM3/NwZULeATGTObxyergDG7N1eR5+VOtllXKqeMFQvLjsXE7JDzyd8OeehLiPWzQm7cPO986wJv0DG2BP+wn/VL/NTWNnFn20O0pA3hJxjw3c/6kPkAa6mthaqqJqqqxgiF8ulw7D57Vc/rSsdJ21dR/0BVhYP37Kr7hOz3VlL+IlB8ZxtdSj40tpuTw09TWUtsCbnmb5pjS8iCUDwSgzusyNZRuJVvOS2vTLJyYoBn7t9BaNgIHPHXNrH3lfgS40RXtKNp2ssbgbqkDnKiawWhvPR0iqrnJeSiNOp/6pjO5Z8CZxtdSu46FotKNpaQU5d2zRnmW/waMjhhOzNV1XleKYwxPkGOdzrJy4jWoplGunbyd4ITfatYHUh9Z1YI+edbXl5H4JU6ArERfIj1vtXRwJr4Mu7elI4GzOV4lah6XoI9prr+U1HdJ6RSauV3RtHf2QJwQzP/eTXGe9Hz0SXk1Q0p0cnlfGIeWAZTmURnxMyrsDkjVpHn5Y4ZeDDM/kO5XibG3z1mDFIYOGiMPmPLVmaaLPlPHGK/bTtyWd+8cCPfcuoCbSnvsrJ1SubSnkpUPS/BHlNd/yaq+4RMlEr582NqnC3RPbfs5mRfdAk5cW+tKdP4pBFMteVbRM6nfvsqB7YYQVUrG5PTXnfjIgDefSe9IeSb55VMLMrUf7/FBvQJuhIOnqh7qINaILTeZxHoM4BvfYjUwAozzbD/fosDHMytJlOhL0wM+OjKw7E4y3eCiWxRUbHOxZwl7Ce1j5vout/h9qj8UPW8BDvkV//lhrdjbNy9GHHVfYI1U9/+C2FKlpGBaNTvbkYO7k7eW5vIDc3c2fLf+X7Xbv5x0+6EQypOMHLQOCWqZluYz6du4blxATcC73R9nR+8vYjrOcEnPWE+X1tAnlc0Rnj+2PoQ/vVL8CcdOjHMcG0HK03R8hae69jPEn+I9UtCCRvp48ELTXtT9tLG0gzjXzKL/Slpaps66BjzOzAmN/SNHiyAsWXBMQ7zPbRjCf71tdQ2VRHtGg1dqaWprSW2CtDS1oR/fQj/khXsj8qOjYUYHm6iowP8qnscVc9LsEGe9T9/YWwwu+KkcaDGwtWv0FLQewDFfYKb5S8Rps7Z8mUWroaRg8l7a1O57qthnvj8qxzY/jQjY7t5J7pUcGPVvfznR6z2ygI3NPO1bW8Zh1ccPMY7LGWlp8A8r3TqArzyxmq6ntnB/pBxIg0Yp8HsfS75xKDylleYXDmAzwz0SZBte856L195yyu8UdHFMzv88TS1tdEN89C1wq9UX+Pe+9P07Wh7KO9OyX6+5ay8s4n9hBgODUdn8bXUNnWw96GUPYV1Ad7YC/evj8vWNhmb/OcfWoHDp6S4XILr5FP/5S28svekcbBEdADXsdodXVT2CZnuOdXtP1/KJicndb/fz5999b9NtS6CA/7tR39LR0fHVKshCNMOv98vtiMUnSmc2QrCdGKCiYFTuQ9rmF/nYkS1IAiXC+JsBcEWp3hm/fqc+/hqO96g7jI9F1gQhPwRZysItqgjMDmJhP4IgpAPU7b1RxAEQRCuFMTZCoIgCIJixNkKgiAIgmLE2QqCIAiCYsTZCoIgCIJixNkKgiAIgmLE2QqCIAiCYspaWlr0qVZCEARBEC5nyp4Y+Hf93370t3R1dU21LoIDJicnGf3lR1OthiBMO6o/fZXYjlB0ZBlZEARBEBSTdlzjN370zlToIdjk+1+9capVEARBEBwiM1tBEARBUIw4W0EQBEFQjDhbQRAEQVCMOFtBEARBUIw4W0EQBEFQjDhbQRAEQVCMOFtBEARBUIw4WyXMoGbR9Txz53XUZJG6Yfa1bF4+m2fujF7Lr2PN7LStz0XkNK8/sYqvL/oEt0Wvr9/9Tfa9nSXJ24d5+u5VMfnbFq3i6ddOu5S/an3Uy5977Tmevjuu/213f5N92fIXpiGn2ZdYx0nXKr7+xGHO5Up393MZZJynO5fWRg27eT2b3dihxGxLuXyM07y+exW3Lfomr9uQzsRU9uyXH9fOoGbRJ1h1wwyuB+DDjKI3LLqeRz87A7jIu+c/5F2u5vobrmFF7TX8xc/fZduJi66odNvLyRb241U3ZZA8zNN338WBUaB6E2sqgcgYB0Z7eHNlD2eDv+ZbX0xJ8vZzfH3lFt4Ebm7cxDzgdF8PB7S/5HTji/zD1uUF5K9aH/Xy53avYmPHMWApNzdWMY8xTvf18KzWw0/8/8I/3DsvQ10IpYB920mgeik3J/z75ugx3uy7i419S3nw0Musy5TF6Bb2vHZ/epu24u1D/GQ005eH2bPyLg6wNNZGifRwYLSHR1eOZdch6z1Ly7aUywO8fZrXf9DCC33HeBOAqjweXJy0s5HlBKn8qLl1NptuALjIz37+Pnz2T/gc79Oz/zeMpElfw+Y7rzO+f/U3jLwX/fjaa9j85euypIufIJV2NrIOF0n+TYkZZWWxv82OI2OH8fZzfH3lS3wp1RhjjXQTT534HrfGvjjM04sMo0424NPsu/sveXY05XOn+avWp2jym3jq0Pe4NfYcDvP0yujnSfoLxSLtbORCbSfWBqzq9DSvP9HCo33HoPFFfpzUqZvpTMW20fuP9zM7h/6vP/EJHu3LlOYw+3bDX927PCmfc699k41aj+17JFOqtqVKPvEZL2WNfy10bCnYZmUZ2UXePf8bnnr1XXadyDyjBWD2NXwOePfn78UdLcB77xP++UXgGqqdWQO3HXqbukO/SLpi3738to1ReQX3WI16b7qfexoBxvhF4kD/tTAHgJv9XSlp5rGuZRNwjGd/cDj//FXrUzT5b8QdLcBNy9ngXwr08M+vIZQAhdtONuZx69ZvswagL5xhGXITaxqJzm5zZPf2c7zQBzRuMvJMYznrUhwtwOwvNhjyo2/heDpVsralSD7KzY0v0nvoZb51b0WGB+MMcbYuMfL6Oba9/j7n38stq4ofr7op6frl/7lov7O4aXmyU0jjGGfPxv97/XAPsJQvfcliKdQ07Mh4/H2Sw/xV66NaXpheFGQ7OZnPnOrsEl/42jZuBg4cTu/0E3n9B1t4k6U8+LWG/FSpXoDT09VLzbaKYbu3bv01/7B1ObPdqP4o4myngt9e5F3g+muvTvvq09ca73F/9dvCbvHL/3ORu/+f80mdRWEdx1LmzDH/Ps0vIgBVfMYyy2jn4mgUnZi/an1UywNzFnAz8OapU2nS75w6hvPyCsXCfds5xdlRsju6m1bypWqg7++yBAAe5p/7gOq1/JVTdd4e5zRAZYXDJeRSs60i2K4ixNlOBe+9xw9/fhFuuI4ti67hBsCMYN50A7z7819zoIAZcmpnkRro4Qhz2SrJwHN1HvP4TCWkLw3bzV+1PqrlgZvux+9fCn138fXdZjSqEdX4aJ/VkpZQCrhqO4DxXvAuDgBrWrK9K82+pAlwbvff2cgn/f7nXovGOVRv4imrQKCslJptFcF2FSHRyFPE+RPv8hTX8+hnr+PRz8Y/f/f8bwqKRH7vw0tpo/L8Oc2+R40IPmcGrip/1fq4y+x7X6aXVWzsuIuNHfHPb258USKRS5DCbaeHR+8eS4hGPsabowBLWRPsyh1p/MVv8GB1D8/2hXl96/KUQJzD7Ok4BtXb2JAzYtkMCDJZyhr/i/gt3uUKxUNmtlNEbOvPby/ys/PvG9dv4fobrmPLrdfkne9fv/qOe442Gil5s/9f7G1JUJq/an3cJ7b1p3opaxo3GVc1vNl3F19/Ivu7OaH4uGI7o8eM7T6jUUfbuI3eEy/zrS/aGVyZs9seXtidvP/T2ax2PnPM9ta4iZs5xoGOu9joxl5bIW9kZjsFxBzt+d/w1Ovvcz7tu+vYsii/vbauONrY9hpzRO7yLMxp/qr1UUDM0Ta+SO/WxBnF99iw25jtfn2+7LUtJQq3ncStIeaWny1sjGB/u80XG1hDDwc6vs/r95p5RWe1bOILtgaZ81i39Xvxf7d+j3OvPUeHtoVHV5K8feW1b3Kb1pOeRV5bhIRsiLMtOjNYMnsG8D49KY4W4PyJ9/jZZ6/jc7P/EzeceC/t+2wU/n4pcTa2jaeeuj97RHA0qCDdIDMHJTjKX7U+yuRP8z9fNjrHp7ZabMO499us6biLAy8f4ty90qGVAm7YTjLzuHXryzzFJ3i0bwsdu1faHFgZW8MOdPTwwu5vcOu985K3keWpzewv3o/f/xIbO3r459e+x62m057zDZ4KWkU2z09ulyVjW0WSV4A426JzNX/+J9m+/5Bf/RY+9ycz+DTYdraHV93E7z/SLb+z+67AdGw3N76I38JJxDEj+IyggnQHaB2UYD9/1fqolo/+n1PfTB2AUEzcsJ1M3Lr1Rdb03cWBjhb2fcne6U3Jg7GV/M+uHmAT9xS4CjJ7XhVwjNOnT4O5OnTTPG69KVu+pWZbquXVIe9sp4yr+fS11p9nd8bWXAX8p6vKLK8/uqosZ3refo6O6LLnP+R0hPP4q1VLgWP85CcWZ4uaI/FVK+P5OMpftT6q5U0yRTjmcsZCMSnYdrKynG8Fs0cZW6XZ4F9qHHKx2ziasZBZrcm502MAzJvnxGmXmm0Vy3bdR5xt0Xmf0fMAM1gR2/ZjMoOaW6/jcwDn37c8rlEV8c3y9rYGzL7XOBXnzY7vpwRdHOZpLX0k7jR/1fqolV/OFxrB7GCTD7o4zetPRCNFGxvkuMYrgS9+gwergb67eNrmqWGzv7TWOOSiw7ADywMZLHh9t3UQ1LnXooNX2+99E3QpKdtSL68KWUaeAkZe/w3Vy6/jczdcx6N3wrvn34/+EEH0Bwx+a7zPLR7mewv4yQ++ydlMYvMb2BDbPmCM2A9oPTy6sifpcO83gTXBxDNEneavWh/18rdufZE1kbs40HcXG/vMw8/HOG0eap7XnkdhejKPdU9t4ycrt3BA+yZfsHO+7k33c0/jFuN83sZv29+TfaqHRzt6jAj4SuPg/NORntgWpAcP5XO2b2nZlnp5NYiznRLeZ9fhd6lZdC2rZl/D9TdcE3WyF/nZufcIn0gPnCoOx3gz9gsXFlQvYMO9CQ7ii9+jN7iAPV1bOBBtuFRv4qmnvpchkMlh/qr1USq/nG/947/whd3f54WXe3gzJr+UNau+nTBIEK4IYs4zIfApB7d+bRs3973El2yu7hhpXuRB/o6f9B3jwOgx48Pqpdzc+G1bcRIZKSnbKoK8AuRXf6YZGX/1RxAEW6T96o8gFAF5ZysIgiAIihFnKwiCIAiKEWcrCIIgCIoRZysIgiAIihFnKwiCIAiKSdv6Y0a7CoIgCILgDjKzFQRBEATFzPi3H/0tYOzbFKYX1Z++aqpVEIRpidiOUGzKJicndb/fz86dO6daF8EBFy5cYObMmVOthiBMO8R2hKlAlpEFQRAEQTHibAVBEARBMeJsBUEQBEEx4mwFQRAEQTHibAVBEARBMeJsBUEQBEEx4mwFQRAEQTHibAVBEARBMeJsBUEQBEEx4myVME5/p5eysmb6s0n1N+P1llFWFr28zXT2jxdNSwuN6G/24i2L6+T1NtOZTaXxfpq93ngZyrw0ZyyDs/zH0/I25LM+Ikf6qJbP43kK05BxOhPtOOny4m3ux7rKE9J5OzPIOE+Xl93Yum0p2ZZqeQW2Ozk5qbe0tOiCC0Qieljz6B7QAR00PZxBNKx5ojIeXdM0XUtIp2VKlMDk5KQtlfj70aQrM2Fd80T19miGTh5Txww6RQIxnT2akSb+f2oCp/mHdS36fMy8Y+nx6IFIofqols/jeQpFwX3bieiBWF17dE/CZda3dZtNSOekTSS0QzwBPTnbPOzG4T2n3rZUy6uxXXG2LhHW4g1aCwSiDT6Dsw1r1oYSCWdPl0Bqh3Hpkq7//qNLSVciOTuMSED3WBljrJGm6hQ36uQ0ZgeS8nke+QcCYT1NPNOzc6qPannH5RWKheu2E2sDVnUaiQ+s03rpZGeb3qatifc11nbgzG7sUGK2NU1tV5ytS4Q1Y4QUieh6vHKtjc+6QcQyMkZbOYagqR1G6ig8sXMw/87ubMN6OMMtDeNO0TebnqZhJ3YuTvPPSIZn61Qf1fKulVdwG9dtJ6uz1fXM/UE8nabZnDWZHb6mGXnadp72B/LpSUvMtqap7co7W5eo79YZ7K6noiKXZISxIcDTyGor2coqPMDQWMSxDrrvlqRr4sIfKAv8FN13S+7EFfXUZ9V9iESV+l8KAh4arQpRvxYN4Phb8fdJDvPPiaeKyoR/neqjWt718gpKKch2clJJlSe7xNq2AB4g+FK2KA/o3+FjCA+BtrX5qZJiN3YoNduarrYrzrbUqFjAYkiu/DyYuPAH5v9wLKmzKKzj8FAVs9Jx3joOsJgFlo0y2rkMjWG/TSbmn4XxtzBuvYD4rZ3qo1reDjbLKxQd923HHGBncXQVq2n0AMEnswTh9GP4jQwD9WxY2o2thCVmW9PXdsXZFh2zcvs4aGVUplE4qvxkUjuLssBP88wJGO/kyTQDz9V5VLDAGDHwVq4Rg2X+loKM93firfQx5NEId9cnfOdUH9Xy2Ypht7zCVOCq7QBG5HADQUB7rDWLo6ug9TENGMK3w3p2O975pI180u+f2W7sUGq2NX1tV5xt0algdaMHGMK3KTVsf5zOTT6GCsj91x98lDYqz5+4Ps4M3K38+2mOhd5XUtnQx+JAmMhgN067jNJA9fMUCqFw2wnS4PXijV1Gu/UNedDCEXL6ufo2AsZassWWwX52+IbAE6AtZ+O/3OymFCjcdsXZTgEVrT2GUQ35qCwrw9vcTHOz1zBMNDQPeb1bAfjkc//qnqP1VmLYt42OQkn+lVRpGlr08jBE0NdApRt7BouO6ucpFIortjM0xFDsArQAEX2Q7uwvAaOYs9sgT6asJTub1V5OdlMKuGO74mynhApaByOENY8RDBUMEgwO4dHCRAbXUsjU1hVHO96JN2FEPtjq8hzMdv4VtHZ30x29BnWdSDiAZyhIQ2X2A0NKCtXPU3CFwm1HI6zr6LqOrhv2TdBHpZMDK6IBO0O+HQntOzqrRWOtrY7egd30N1sfxuHokI3LGBdtd4aLagmOqKC+e5D67pSPxzvzDGRw4/0SjHd6qYwuV4V7WrNH5UXfK6eLZA5KcJS/BRX1rfQE+qj0BXmpv5v6xM7HqT6q5Sm8vEJxcMN2kjHsO0wZDUEfmzpX2+yo62kLeAj6gjzZ2UZ9awX0v0QQ8ATa8l4Gzmg3lW2Ew1aRzZXJ7bzUbGsa2q442xJj/GCf8V7A3hA2xoett/D+xUuW39ldvjAbl0cL09Ndn8XZm0FeRlBBeiO0Dkqwn392KhYsBoY4Hru5U31Uy7tbXkEtbthOJuq7w2jBBoK+TXSuHsSOv61ofQzN10Cw7yDjras5+GQQ0HiswBWRdLsBKiqoz7pfsdRsaxrbrhxqoYJ8N5Dn2hwfx+6Rc/ZvbW6Wt6dxJODJuVE86TuH+du5d9I+dIf6qJZ3s7yCu7huO7ns1urghBzpYm08YLSj9HYXdniohbXdOElXKrY1XW1XnK0S8nG2kdgxbG6ejWwX5yejJJTR8mi05LI7zT8cSM3XIBLOdXykPX1Uy8spUaVL0Z1twrGMybadJV3i+ceW7cja2Tq3GzuUlm1NV9stm5yc1P1+Pzt37nRjoiwARuh9A0E0wrpFuP14J95NfbB4sXGABccJBo2oKE/A3kv4CxcuMHPmTJf0NaPtPHg0UycLqtbS1pqwpNLfTFlDEACPprEYOB4MGsvgYT0has95/v3NZTQEAY8HbXH0KR0PGhGeeAhELJbkbOujWj7P5ykUBXdtB+L1ncHewbD5Sh9DSX1C9nQxG9DC6OmN0ehjPAEig/EI5bzsxg4lY1uq5RXarsxsVZBjZhsJJ0pYsMwAACAASURBVP2KBKB7PJoejtgfSrk7Ok85ED3TZbFkFQkHEn5VxPiVjPSRdR75R8J6IOkXlDB+UUVLP2TduT6q5fN/noJ6ij+zNTBXruJLljnSZToQ38jNehk5T7uxQ2nYlmp5dbYrM9tpivujc0G4MhDbEaYC2WcrCIIgCIoRZysIgiAIihFnKwiCIAiKEWcrCIIgCIoRZysIgiAIihFnKwiCIAiKEWcrCIIgCIqZ4ff7AWPvmTC9kDoThPwQ2xGKzYyOjg78fj///h9lU62L4IBPfVyXOhOEPBDbEaYCWUYWBEEQBMWIsxUEQRAExYizFQRBEATFiLMVBEEQBMWIsxUEQRAExYizFQRBEATFiLMVBEEQBMWIsxUEQRAExYizFQRBEATFiLN1jQmOPlJH4+yZVEavxjtaCZ1JlwvdEZfJdj1+pFTLkMCZAR6/oy5B7zoePzLhSv5n0/I25I+6po9q+TyepzANyWbTdTQ+MsDZXOnu2JlBxnm6vOzGDiVlW2rlVTzDssnJSd3v9/PNx57KP5crngEev2Mde0aAmiY2LAJOjLFnZBiADS9c4Du3m7ITHH2+k8PjmXM72RtilFq2DA7QNNdaxu6Rc5V9yY0p0ljuQhminNlJo9fPKFC9sYmFMd2heuM++rbXFZD/AI/PXsceaqneWMVCgBMhI32mZ+NIH9XyeTxPoSi4bzsThO6oZtsIUFNLdcI3o9H6tm6zCelw0CYS2iE1HRz+Hw8wJ/ZlHnZjh5KyLdXyap6hOFs3OLOTRu9+GlIrIVbBTew618kyO3kdaaXynhDV7aP03ZfJuNM7DF2Hi+hJMleXxb83O46MHYbjMsQbZHLjMzuQlM/zyD/0PNx2X11CRwJnj7Sy/J5Q1k7Glj6q5d1sE4KruG47sTZgVacTHH2kmc29w7BxH5GkTj3Z2aa3aWuOPjKTzb2Z0ji1GzuUmG0VQd79ZyjLyC5RyYNWo525D/DgRoAxTp+xk88EoUAIaOLBLI7WigV7J6jaezrpimnXN5Glo4hJOSvDkQPsAarbu1PSlNPkawKG2dY1kH/+1NGU0tgB5ty+hg0AIydJEneqj2p519qEoJrCbScb5Szb/rDRZnsPcNRSpokNG4ERP7tyvTo6s5Nne4GNTUaeaTi0GzuUmm0pt10FzxBxtu4wt45lc7MJDHMqy6uEGEc62TYC1e2tec14Io3lSdcvfnfRfmfhsAxHD4WAWhrqLPI2G+WJSPx9klvPyKRmIYnZOdVHtbzr5RWUUpDt5GQ+82uySyxv6aAa2HNoIKvc0S6/8YqpZU1+qqTYjR1KzbaU224u8niGIM62SNQyP6fN5j+rteIXv7vI7eG3kzqLwjqOxDJMcPoEQBXz5lrJRjsXRyNAO88IOBPhJMCiyoSRp1N9VMvbwWZ5haLjvu2c4tQI2TvpuatoqAF6v5slgG6Aw71AzZ3cljGjDFjajR1Kzbam0HbzfoYG4mxVYi752DGOAme1iaR2FqmBHo6wLEOuzqOceYvA1lKp7Wc0wdkj0fedNU3sSnr35VQf1fJZcNImhKLjqu0AxnvBdewBNviyvefLtKQZ5+zz37WRT/r9M9uNHUrNtqbCdgt9hgYz8kol2GCC0ENG9Ftu43BvVjv5h0tpo/L8cVIGFfmbgQ0mtWxo38cOi/cp0wPVz1MohMJtJ8TmO8YSopGHGY1GsG54oTt3pPHtrWypCbGt9wBHt9elDLoH2NU+DDUdbM4ZsXy52c1U4P4zlJmtEuJRhtXto7mN7MzLhEeAjWsKntUufemMe47WSRmU5D+f+Rub2BC9qhlmT/s6lruxZ7DoqH6eQqG4Yjsjw4zGLmBjB4fPDfCd2+3ka85uQzz7fPKM2tms9nKym6nC/WcoM1u3iW3tMEezuY0sHvSQ3/JEIq442jzKoCb/cpq2d8b/3d7J2SM7abvHz2Yv02frjOrnKbhC4baTuPXH3PLjZ/kJ7G8VuX0NGwixp72To/eZeUVntTSx3NYgzYHdRLcappHn9pbLB/f7HnG2LnL2+TqWR5d6dj3zQI5oVJMCgh5SKPz9ksMyRIMK0g0yc1BCfs8ozpzbH2BH+36Wt4c4fKSTZYmdj1N9VMtTeHmF4uCG7SRTzrLtA+xiJpt7/bQ9vyrrvvk4dWxur2VPe4hnn29l2X3lCVtX8o/nyGg35a3sesEqsnl+cjsvNdsqgu2mkrXvsYE4W5cwO9XqjfvYsd3Bur5pSF9ZVdAo8ufry/ngI93yO7vvCuyXwYzgM4IK0h2IdVBC3s8ohTnzq4BhTp6agNvL89BHtby75RXU4obtZGLZ9n1s6F3HnvZmQnX2Th6ac9/DbGhfx55/epmz963ixy7Fc6TbDTC3nGVzs+VbarZVHNvNhOUztIm8s3WDMztpazdOiOlz2Klm3QPmgKvK4OMzyiyva2bkPprOWRnKue0rtcAw4QGLGYHVAKKAZ5TK2VNjACyM7Z1xqo9qeVwtr6CWgm0nK3V854UmskUZW6XZ3F5rHHLxvBHP4cYuhXS7sUOp2VYRbDcL+T1DA3G2LpD/O9foErKNJQzVOC3DnPuMU3FG2ztTAgYGePyeEKkjcaf5H33eOhDh7JGoE0t5f+VUH9Xybr6HF6Y5t7eypQboXWf7x0Xm1N1pHHLRbrQju4Nxp3ZjS5cSsy3ltqvgGYIsI7uAueYP4a5WTmUSq1jD5tSwcXOTtAtRyIWRTxmMEfuee0Js9obSDvfe8EJiAEEe+Y+H2NwegppaNiyqAuDkiVBsK8WWwdQABSf6qJYvoE0IlyHlND3TQdjrZ889rSy3E1wz9wEe3Og3zkDe+LD9g+8d240dSsm2iiCv5BmKs3WRYUZ7h41f4rCiZiGb70uZ5UycNH51omK+Yt3s4rAMt3dy+IWF7Ar42RNtuNQ0seuZzgyBQPbzX9ayjy18l3DvcOyXcqippXrjw5nffzrVR7V8Pm1CuDyJOc+EwKccLGvpoLp3Pw0OVkfyshs7lJptKZRX9QzlV3+mKXZ/JkwQhGTEdoSpQN7ZCoIgCIJixNkKgiAIgmLE2QqCIAiCYsTZCoIgCIJixNkKgiAIgmLE2QqCIAiCYsTZCoIgCIJiZvj9fsDYeyZML6TOBCE/xHaEYhM71GLnzp1TrYvggAsXLjBz5sypVkMQph1iO8JUIMvIgiAIgqAYcbaCIAiCoBhxtoIgCIKgGHG2giAIgqAYcbaCIAiCoBhxtoIgCIKgGHG2giAIgqAYcbaCIAiCoBhxtoIgCIKgGHG2rjFOf7MXb1kZZdHL622mczxLiv5Omr1x+TJvM539WRIox3kZGO+n2euNl6HMS3PGMjjNX7U+6uVLr44F9xmnM7GOky4v3uZ+rGs8IZ23M4OM83TjaW3UsJuCm12J2ZZS+f7mDPVZRllZM/2Z75KZyclJvaWlRRcKIaxrHnRAx6Ppmqbpmsdj/A+6Fk5PEQmY33t0j6bpmubRPVF5TyCS846Tk5O2NOPvR5MuN8ugRwJxnTUjTfz/1ARO81etj3r5QutYUIP7thPRA7G26tE9CZfZXsGjp1d5QrpMbdrydvF2iCegJ2cb1rWkNqfF7chSB+f3LAXbUi4f1ozvzL4n6Up95vYQZ+sGkYDusWrIsQrW9OTqNA1C08OJaSIJn+e4ZWqHcemSrv/+o0tJVyI5O4y8y5CaxuxAUj53mr9qfYomn38dC2pw3XZibcCqTiN6WIs63bROPdnZpjtOa8JatjRhPRAIp+UTiToPu/dIuWOJ2pYq+fhA2fYAyAbibN0gEk7uUBMwDCOlMs1Rk8Uw024lp3YYqaPwxM7B/Du7s3WvDOZ3SZ2L0/xV6zOF8ioMWbCP67aT1dnqetLAK0M6TbM5uzUHm5pm5GnbeRYwyJtGtuWKvG7aaAErARbIO1s3qKinviKbwBBjEfVq6L5bkq6JC3+gLPBTdN8tuRM7LEP/S0HAQ+Nqi0T1a9EAjr8Vf5/k9Bkp1ke1vDC9KMh2clJJlSe7xNq2AB4g+FL2t4H9O3wM4SHQtjY/VTxVVDpMUmq2VQzbjYwNpcsWiDjbouChKrGFV1bhAYYsPLBRySnyeTBx4Q/M/+FYUmdRWMeRqNM4bx0HWMwCS4cY7VyGxrA/xnBa5kL0US1PUepYUIP7thPBqPIsjq5iNY0eIPhklgDAfgy/0YiV38jK+FsYTXgBzpKWmm0VwXYVIc5WJeOdPGllHBWt9AQ8EGzA22lGKo7T3+mlIQieQA+tTo0pgdTOoizwU5fLkKvzqGDBYoDjvJVrqpfpGSnVR7U8yutYUIOrtgMYkcMNBAHtsdYsjq6C1sc0YAjfDuvZ7XjnkzbySb//eH8n3kofQx6NcHe9M/VLzraKYLsxhvBVpuyEKCCke0beKYUcjNO5yccQ1sZR0TpIBC+VvgYqffHPPVqYwQJ64V9/8FHaqDx/speh+Pmr1sddVNWxoIbCbSdIg/c48RXjIYaGADxo4R5y+rn6NgKeIL7gS/R315Ms3s8O3xB4ArTl9Jf9NJcZDt7AgxYI09NaX/I2UxqM8xYamhb/5HgwyNBQkKGGIH2BSF72K85WCeN0eisxbCNiaWTjnV4qfUPg8aAtXmx8eDxIMNiAlzCDjkegBp987l/dc7Q5ylDc/FXr4z6q6lhQgyu2MzRE0ts+LUCk2+7A0Jjd+hqCPNnZRn1Ch+5sVltJlaZh+orjwSBBXwPBPo1wT3eOWAgBKmjt7k7+qLub8f5ONjX4GPJtonP1oOOVKVlGdpvxTrxllfiGPGhh6xFQrBPWwkQGB+nu7jauQZ1IwMNQsAFv1pMbMuOKo7VRhqLmr1ofBaisY0ENhduORljX0XUdXY8Q1jwQ9FHp5MCKaMDOkG9HwsEJ0VktGmttjc8MZ2G2uUFdJxIO4BkK0lCZciBDpsMbHB2ycWVQUR99NcQQfQedPx1xti4y3umlrNLHkCdAODJIt+UQcpyDfYbhhLvTl3UqWh8zjK3voOPGXhb4qeXlfhmiZAwqyByU4Ch/1fook1dXx4Ia3LCdZCqo7x4kbHhONtkeWNXTFvAAQZ400/S/RBDwBNrIdy0k7iiCJAU8V7YRDofTr8dWJ7fbkrGtIslnoGJ1Y8bAx1zIMrJLmDMZjxamx6KDjRN9YZ+R5Og4u3O4D1tv4f2Llyy/szuisl8GU0cjqCDd/1kHJdjPX7U+quXV1LGgBjdsJxP13WG0YANBB0uPFa2PofkaCPYdZLx1NQefDAIajxW4olOxYDEwxPHERlxRQX1FtnxLzbZUyytEDrVwgdhGczvbxTOdZpL6ffbN53aPnLONozLED2bItlE86TuH+avWR628O3UsqMF128l1qEWGgxOypYsdfBIw7CC93YUdHmqR/2EqpWVb6uWzkTWvHIizdQHLE41yyhvGl5wkkvRdNtzuMJyWIeNxhBkcSX7PSJ0+quXdqGNBDUV3tgnHMiZXeZZ0iecfW9qBtbMNB1LbZzS7cKZjTu1QWralXD4S0DXLIy8LeYa6XjY5Oan7/X527typehJ9mWJGyXrwaItZnEmsai1tsdD7fpq9DQSjS40eTWMxxzkejEYyejTCg91Z389cuHCBmTNnTmEZMIIrGoIJZYiGyANaWE+IGHaav2p9iiFfeB0LanDXdiDevjXCeoY6HY/udSVRJnu6/uYyGoKAFkZPb4zG9h5PgMhgPEI5liYhAv748WBsC1Ig4jyKNppxCdmWYvlYXcX7n8RnqIUH89sNITPbQkk5TDzTlbbcE9HDAU33JB1E7rEcUVnh7ug83zIYoz0tqQxWI2un+avWp1jyhdWxoIbiz2wNzBWN+BJkjnSZfozDyM16GTkS1gMJvy5ltjlP2gqLc0rLtlTKGz8ekfQMiT7DAh6izGynKe6PzgXhykBsR5gKZOuPIAiCIChGnK0gCIIgKEacrSAIgiAoRpytIAiCIChGnK0gCIIgKEacrSAIgiAoRpytIAiCIChmht/vB4y9Z8L0QupMEPJDbEcoNjM6Ojrw+/38+3+UTbUuggM+9XFd6kwQ8kBsR5gKZBlZEARBEBQjzlYQBEEQFCPOVhAEQRAUI85WEARBEBQjzlYQBEEQFCPOVhAEQRAUI85WEARBEBQjzlYQBEEQFCPOVhAEQRAUI87WNSY4+kgdjbNnUhm9Gu9oJXTGWvrsmQEev6MuJmvKH80gXxyclQGAtHLU8fiRCffyT0z7fB2Vs1s5mk3MkT5FkI+mCaWUu3LK61pwjwlCd8xMsuXE9tH4yABnc6W7Y2cGGefplPUtpWZbSuSz1WXy9fiRzLeyYoYzccGaAR6/Yx17RoCaJjYsAk6MsWckxKg3xKkXLvCd25Pld3nXsYdaqjc2sRDgRIg9IyE2e8fYMjhA01x3NKvsS25MkcZyl8oAnNlJo9fPKMTKcbI3xJ57qjm5cR992+sKyx/gzARHu5p5tneYUQCqMhfWkT5FkAc40krjPSEjjVlu4OSJMU4DyzKXRphi7NtOAjW1VCf8OzoyzGjvOpb31ma36xE/u448YG0DqZx5mfBIpi8V9S2lZlsK5ed9JW6nVpzsDTFKLfNtNIdEyiYnJ3W/3883H3vKWUohzpmdNHr305DakGMV3MSuc50JHesAoefhtvvqmJMgfvZIK8vvCUFNB4f/xwNJ36WSer6rrsNF9CSZq8vi35sdR8YOI48yPD7bMOpkA54gdEc120ZSPnecPxx9ZCabewFq2dB+J7T72WMhl5c+yuVTyjbYybLE74Qpw3XbibUBq7Y5wdFHmtncOwwb9xFJcgJmuui/NuweEu3CKk3hfUs6pWZbRbDdTBxppfKeENXto/Td58zbyjKyK1TyoFVlzX2ABzcCjHH6TOIXdTSlGAPAnNvXsAFg5CRncMaCvRNU7T2ddMW065uwMSp3WIYjB9gDVLd3p6Qpp8nXBAyzrWsg//yjVG/cx+HBAb5zX2V29Z3qo1oeONrlZ5RatoijLWkKt51slLNs+8OGXfceyPAKpIkNG4nObnNkd2Ynz/YCG5uMPNNwv28pOdsqgu1aM0EoEAKaeNChowVxtu4wty5HZzrMqRyv9ZKoWUjW7DIQaSxPun7xu4v2OwuHZTh6KATU0lBnkbdp2Cci8fdJeTyjZdsv0Le9jjlZ0+Wnj2r5eKf4sGuvBAR1FGQ7OZnP/JrsEstbOqgG9hzK3unHBnAta/JTJY++pdRsS7ntZuJIJ9tGoLq9Na/XP+Jsi4LN9f0zEU4CLKp0uMyTzi9+d5Hbw28ndRaFdRyJZZjg9AmAKubNtZKNdi6ORtHO34HEcaqPank4O7CfUWDDSov3uEJJ477tnOLUCNkd3dxVNNQAvd/NEjA4wOFeoOZObsuYUQby7ltKzbbU2641hc1qQZytWszZTU7jmODskej7vZomdlkF2jggtbNIDfRwhGUZcnUe5cxbBJmWhnPn7xSn+qiWhzPjw5gDiLPPtyZHYD+yUyKRSxRXbQcw3guuYw+wwZftXWnuJc2zz3/XRj7p9y+sbyk121Jvu5YUOKsFiUZWyAShh4zoN2vjMF/am9SyoX0fOyzetzhh8g+X0kbl+ZOrDKWe/1QRH02f6prJtl4jAtJYrgqxp9fP5t79rkadC4VTuO2E2HzHWEI08jCjIwC1bHihO3ek8e2tbKkJsa33AEe316V06gPsah+Gmg4254xYVtO3XLkUPqsFcbaKiEcZVrePZjCy+cxPCHI42RtiT/s69vxTE7ueyT+gZulLZ9xztDnLUMr5lwIh9vSmRiJ3svn5Opa3GzOYpgJXMQT3cMV2RswtalE2dnB4u92BpDG73XZPiGefb2VZQsfubFarpm+5YjG3Wm1cU9BWPVlGdpszO2mcbYSTb3ghW3h4OU3bO/lO9Oo7d4HDL3RQPRJiszfHwQ1ZcMXR2i5DieZfQmx4Ib1zm3NfruhUYSoo3Haa2HXuApFzF4icG2XXxlro9bPcyYEV0YCd0fbOhLYRndXSxHJbg1IHfcuRVutDGxwdsnF5Ew9KK2xgLDNbFzkbnbFQ08GuZx5wPIKcc/sD7Gjfz/L2EIePdLLM4Wyv8PdLDssQDSpIH2lnDkoo9Bllxak+yuSj74FGMgV91bF8I+zpNd4TyUxj6nHDdpIpZ9n2AXYxk829ftqeX2VzUFnH5vZa9rQnzG5jW1fyf1+YsW8pb2XXC1aRzfOT23nJ2FaR5GMUEJSWgjhblzCdSPXGfezYnv+7kTnzq4BhTp6agNvtj7R/vr6cDz7SLb+zu3xhvwxmBF8mZ2EdlODWMypcH9XyMLeitrAiCUXDDdvJxLLt+9jQu4497c2E6uy9o59z38NsaF/Hnn96mbP3reLHLrwvhAx9y9xyls3Nlm+p2ZZ6203CHOh8ZVXB/ZUsI7vBmZ20tRsnxPQV6ETOnhoDYKHDfTBXlcHHZ5RZXtfMKMudgaMylHPbV2qBYcIDFjMCqwbq4jMqXB/V8vGOzVLeHC1nHE0LxaRg28lKHd95oQn7BycYaTa31xqHXDxvvC8sZFZrkl/fUmq2pd52E8m6R9ch4mxdwOma/tHnrQ8FP3sk6pBsv5txD6dlMN87jrZ3ppRlgMfvCZE6EnfrvYdb+qiWNyJLYbS9OW3fpBns4kYHKkwDom2B3nW2D6+fU3encchFu2E3djt7FX1LqdmWcttN+N7NQbEsIxeMueYP4a5WTmUSq1jDZjP0fjzE5vYQ1NSyYZFxsP7JE6HYNoEtg1Zn/6okjzJER+x77gmx2RtKOtx7lGhgUEH5O8WJPsWQL6fpmQ7CXj/bvDMJ1zSxcFFCPdd0sOMyDgwTEom3hT33tLLc8mzvFOY+wIMb/cYZyE5OIVPSt5SabamWj2IeBFJgFLKJOFvXGGa0NyXsP5GahWy+z5jVLWvZxxa+S7h3mD0jw9Hva6ne+LDL7zKdYr8MANzeyeEXFrIr4GdPtOFSk217gcP8neJUH9Xycx+gb7CSxx/6rvHrRuaey/aHCxhUCNOSmPNM39aTiWUtHVT37qfBwWqQsr6l1GxLtTzAxEnjV4Iq5md8LE6QX/2ZpqT+cokgCPYQ2xGmAnlnKwiCIAiKEWcrCIIgCIoRZysIgiAIihFnKwiCIAiKEWcrCIIgCIoRZysIgiAIihFnKwiCIAiKmeH3+wFj75kwvZA6E4T8ENsRik3sUIudO3dOtS6CAy5cuMDMmTOnWg1BmHaI7QhTgSwjC4IgCIJixNkKgiAIgmLE2QqCIAiCYsTZCoIgCIJixNkKgiAIgmLE2QqCIAiCYsTZCoIgCIJixNkKgiAIgmLE2QqCIAiCYsTZusY4/c1evGVllEUvr7eZzvEsKfo7afbG5cu8zXT2Z0mgHOdlYLyfZq83XoYyL80Zy+A0f9X6qJcvvToW3GeczsQ6Trq8eJv7sa7xhHTezgwyztONp7VRw24KbnYlZluO5eMJ6e/0UlbWTH9WsXzzz8Dk5KTe0tKiC4UQ1jUPOqDj0XRN03TN4zH+B10Lp6eIBMzvPbpH03RN8+ieqLwnEMl5x8nJSVua8fejSZebZdAjgbjOmpEm/n9qAqf5q9ZHvXyhdSyowX3bieiBWFv16J6Ey2yv4NHTqzwhXaY2bXm7eDvEE9CTsw3rWlKb0+J2ZKmD83uWgm05ltd1XY9E9HCCDYKmZ3zk+eSfA3G2bhAJ6B6rhhyrsNRKNQ1C08OJaSIJn+e4ZWqHcemSrv/+o0tJVyI5O4y8y5CaxuxAUj53mr9qfYomn38dC2pw3XZibcCqTo0OHtBJ66STnW2647QmrGVLE9YDgXBaPpGw5ugeKXcsUduyK5/4zDy6FgjksEHn+dtBnK0bRMLJHWoCRiWnVE604VvNbszZUK7BU2qHkToKT+wczL+zO1v3ymB+l9S5OM1ftT5TKG+3jgU1uG47WZ2tricNvDKk0zSbs1tzsKlpRp62nWcBg7xpZFuW8rrRZ3i0sB6J6HrOZ5FH/naQd7ZuUFFPfUU2gSHGIurV0H23JF0TF/5AWeCn6L5bcid2WIb+l4KAh8bVFonq16IBHH8r/j7J6TNSrI9qeWF6UZDt5KSSKk92ibVtATxA8KWsbxHp3+FjCA+BtrX5qeKpotJhklKzrXxssb5bZ7C7noqsfUr++dtBnG1R8FCV2MIrq/AAQxYeODI2lC6fBxMX/sD8H44ldRaFdRyJOo3z1nGAxSywbLzRzmVoDPtjDKdlLkQf1fIUpY4FNbhvOxGMKs/i6CpW0+gBgk9mCQDsx/ADjVj5gayMv4XRhBfgLGmp2ZaKvicRdfmLs1XJeCdPWhlHRSs9AQ8EG/B2mpGKRoRcQxA8gR5anRpTAqmdRVngpy6XIVfnUcGCxQDHeSvX8C/TM1Kqj2p5lNexoAZXbQcwIocbCALaY61ZHF0FrY9pwBC+Hdaz2/HOJ23kk37/8f5OvJU+hjwa4e56Z+qXnG252PdYoi7/GfmoI9hhnM5NPoawNo6K1kEieKn0NVDpi3/u0cIMFtAL//qDj9JG5fmTvQzFz1+1Pu6iqo4FNRRuO0EavMeJrxgPMTQE4EEL95DTz9W3EfAE8QVfor+7nmTxfnb4hsAToC2nv+ynucxw8AYetECYntb6kreZyxlxtkoYp9NbiWEbEUsjG+/0UukbAo8HbfFi48PjQYLBBryEGXQ8AjX45HP/6p6jzVGG4uavWh/3UVXHghpcsZ2hIYYS/9cCRLrtDgyN2a2vIciTnW3UJwzInM1qK6nSNOPdInA8GCToayDYpxHu6c4RCyGoQpaR3Wa8E29ZJb4hD1o4YjmDiXXCWpjI4CDd3d3GNagTCXgYCjbgzXpyQ2ZccbQ2ylDU/FXrowCVdSyooXDb0QjrOrquo+sRwpoHgj4qnRxYEQ3AGfLtSDhwITqrRWOtrfFZBa1me+vuZlDXiYQDeIaCNFSmHOTQ32x9GIejQzYEJ+rmlQAAAtxJREFUO8jM1kXiM5kA4Z7WDCPIcQ72GYYT7k5f1qlofQzN10Cw7yDjrc6WSgt/v2S3DFGiQQIWw4mMQQaO8letjzJ5dXUsqMEN20mmgvruQcKU0RD0salztc1BYj1tAQ9BX8Lstv8lgoAn0Ea+ayEV9a30BPqo9AV5qb+bejOjyjbCYavI5srkdlkytpWnvFMU5C/O1iVMp+DRwvRYdLBxoi/gM5Ic7Wa3Pj9svYX3L16y/M7u8oX9Mpg6GkEC6Q7QOsjAfv6q9VEtr6aOBTW4YTuZqO8OowUbCPo20bl60FZQXPJgbDUHnwwCGo8VuKJTsWAxMMTxxEZcUUF91v0wpWZb+fU99lGYvxxq4QKxjeZ2NjpnOp0k9fvsm8/tHjlnG0dliB/MkG3jd9J3DvNXrY9aeXfqWFCD67aT61CLjAchZE4XO/gkYNhBersLOzzUIv/DVErLtvLoe9KFstpf4flbI87WBSxPNMopbxhfcpJI0nfZcLvDcFqGjMcRZmjI+T0jdfqolnejjgU1FN3ZJhzLmFzlWdIlnn9saQfWzjYcSG2f0ezCmY45tUNp2ZZz+SzlcaW89iibnJzU/X4/O3fudDopFoB4lKwHj7aYxZnEqtbSFgu976fZ20AwutTo0TQWc5zjwWgko0cjPNid9f3MhQsXmDlz5hSWASO4oiGYUAYj8nEI0MJ6QsSw0/xV61MM+cLrWFCDu7YD8fatEdYz1Ol4dK8riTLZ0/U3l9EQBLQwenpjNLb3eAJEBuPv/WNpEiLgjx8PxrYgBSL2lrLTKCnbykM+OXF0a1SW+ioo/wzIzLZQUg4Tz3SlLfdE9HBA0z1JB5F7dM3iEHEr3B2d51sGY8SsJZXBamTtNH/V+hRLvrA6FtRQ/JmtgbmiEV+CzJEu049xGLlZLyNHwnog6ZdtjDbnSVthcU5p2ZZz+Tj2Zqj552+NzGynKe6PzgXhykBsR5gK/n8qZFaaqBmOjAAAAABJRU5ErkJggg==;" vertex="1" parent="1">
          <mxGeometry x="220" y="240" width="365" height="185.19" as="geometry" />
        </mxCell>
        <mxCell id="iAH6zQvwI0jVcYzAp-XG-6" value="&lt;h1&gt;UPDATE SQL&lt;/h1&gt;&lt;div style=&quot;background-color:#ffffff;padding:0px 0px 0px 2px;&quot;&gt;&lt;div style=&quot;font-family: Consolas; font-size: 12pt;&quot;&gt;&lt;p style=&quot;color: rgb(0, 0, 0); margin: 0px;&quot;&gt;UPDATE universita.sostenimento&lt;/p&gt;&lt;p style=&quot;color: rgb(0, 0, 0); margin: 0px;&quot;&gt;&lt;span style=&quot;color:#000080;font-weight:bold;&quot;&gt;SET&lt;/span&gt; voto=&lt;span style=&quot;color:#0000ff;&quot;&gt;0&lt;/span&gt;&lt;/p&gt;&lt;p style=&quot;color: rgb(0, 0, 0); margin: 0px;&quot;&gt;&lt;span style=&quot;color:#800000;font-weight:bold;&quot;&gt;WHERE&lt;/span&gt; matricola=&lt;span style=&quot;color:#008000;&quot;&gt;&#39;&#39;&lt;/span&gt; &lt;span style=&quot;color:#800000;font-weight:bold;&quot;&gt;AND&lt;/span&gt; codice_esame=&lt;span style=&quot;color:#008000;&quot;&gt;&#39;&#39;&lt;/span&gt;&lt;span style=&quot;color:#ff0000;&quot;&gt;;&lt;/span&gt;&lt;/p&gt;&lt;p style=&quot;color: rgb(0, 0, 0); margin: 0px;&quot;&gt;&lt;span style=&quot;color:#ff0000;&quot;&gt;&lt;br&gt;&lt;/span&gt;&lt;/p&gt;&lt;p style=&quot;color: rgb(0, 0, 0); margin: 0px;&quot;&gt;&lt;span style=&quot;font-size: 12pt;&quot;&gt;La precedente query è puntuale: ossia aggiorna un solo record in base alla condizione where dove è verificata la coppia di valori chiave primaria.&lt;/span&gt;&lt;br&gt;&lt;/p&gt;&lt;p style=&quot;color: rgb(0, 0, 0); margin: 0px;&quot;&gt;&lt;br&gt;risulta altresì pericolosa una query di update del tipo:&amp;nbsp;&lt;br&gt;&lt;br&gt;&lt;/p&gt;&lt;p style=&quot;color: rgb(0, 0, 0); border-color: var(--border-color); margin: 0px;&quot;&gt;UPDATE universita.sostenimento&lt;/p&gt;&lt;p style=&quot;color: rgb(0, 0, 0); border-color: var(--border-color); margin: 0px;&quot;&gt;&lt;span style=&quot;border-color: var(--border-color); color: rgb(0, 0, 128); font-weight: bold;&quot;&gt;SET&lt;/span&gt;&amp;nbsp;voto=&lt;span style=&quot;border-color: var(--border-color); color: rgb(0, 0, 255);&quot;&gt;0&lt;/span&gt;&lt;/p&gt;&lt;div style=&quot;color: rgb(0, 0, 0);&quot;&gt;&lt;span style=&quot;border-color: var(--border-color); color: rgb(0, 0, 255);&quot;&gt;&lt;br&gt;&lt;/span&gt;&lt;/div&gt;&lt;div style=&quot;color: rgb(0, 0, 0);&quot;&gt;&lt;span style=&quot;border-color: var(--border-color); color: rgb(0, 0, 255);&quot;&gt;vengono aggiornati tutti i record della tabella sostenimento , ponendo il voto a valore 0&lt;/span&gt;&lt;/div&gt;&lt;div style=&quot;color: rgb(0, 0, 0);&quot;&gt;&lt;span style=&quot;border-color: var(--border-color); color: rgb(0, 0, 255);&quot;&gt;&lt;br&gt;&lt;/span&gt;&lt;/div&gt;&lt;div style=&quot;color: rgb(0, 0, 0);&quot;&gt;&lt;span style=&quot;border-color: var(--border-color); color: rgb(0, 0, 255);&quot;&gt;UPDATE necessita di essere utilizzato con la condizione WHERE e che la stessa condizione coinvolga un numero limitato di record aggiornati.&lt;/span&gt;&lt;/div&gt;&lt;div style=&quot;color: rgb(0, 0, 0);&quot;&gt;&lt;span style=&quot;border-color: var(--border-color); color: rgb(0, 0, 255);&quot;&gt;E&#39; anche opportuno aggiornare un limitato numero di campi per i record coinvolti (SET).&lt;/span&gt;&lt;/div&gt;&lt;div style=&quot;color: rgb(0, 0, 0);&quot;&gt;&lt;span style=&quot;background-color: rgb(251, 251, 251); font-family: Helvetica; font-size: 12pt; color: rgb(255, 255, 255);&quot;&gt;&lt;br&gt;UPDATE SQL&lt;/span&gt;&lt;br&gt;&lt;/div&gt;&lt;div style=&quot;&quot;&gt;&lt;div style=&quot;border-color: var(--border-color); font-family: Helvetica; font-size: 12px; padding: 0px 0px 0px 2px;&quot;&gt;&lt;div style=&quot;border-color: var(--border-color); font-family: Consolas; font-size: 12pt;&quot;&gt;&lt;p style=&quot;border-color: var(--border-color); color: rgb(0, 0, 0); margin: 0px;&quot;&gt;Il seguente comando è pericoloso per le ragioni dell&#39;UPDATE senza clausola WHERE, ma (&#39;per fortuna&#39;) non viene eseguito per violazione del vincolo chiave primaria.&lt;/p&gt;&lt;p style=&quot;border-color: var(--border-color); color: rgb(0, 0, 0); margin: 0px;&quot;&gt;&lt;br&gt;&lt;/p&gt;&lt;p style=&quot;border-color: var(--border-color); color: rgb(0, 0, 0); margin: 0px;&quot;&gt;UPDATE universita.sostenimento&lt;/p&gt;&lt;p style=&quot;border-color: var(--border-color); margin: 0px;&quot;&gt;&lt;span style=&quot;color: rgb(0, 0, 0);&quot;&gt;SET&amp;nbsp;matricola=&lt;/span&gt;&lt;font color=&quot;#0000ff&quot;&gt;&#39;RM3-000001&#39;&lt;/font&gt;&lt;/p&gt;&lt;p style=&quot;border-color: var(--border-color); color: rgb(0, 0, 0); margin: 0px;&quot;&gt;&lt;br&gt;&lt;/p&gt;&lt;p style=&quot;border-color: var(--border-color); color: rgb(0, 0, 0); margin: 0px;&quot;&gt;Cosa succede se:&lt;/p&gt;&lt;p style=&quot;border-color: var(--border-color); color: rgb(0, 0, 0); margin: 0px;&quot;&gt;&lt;br&gt;&lt;/p&gt;&lt;p style=&quot;border-color: var(--border-color); color: rgb(0, 0, 0); margin: 0px;&quot;&gt;UPDATE universita.sostenimento&lt;/p&gt;&lt;p style=&quot;border-color: var(--border-color); color: rgb(0, 0, 0); margin: 0px;&quot;&gt;&amp;nbsp; &amp;nbsp;SET matricola=&#39;RM-000001&#39;&lt;/p&gt;&lt;p style=&quot;border-color: var(--border-color); color: rgb(0, 0, 0); margin: 0px;&quot;&gt;&amp;nbsp;WHERE matricola=&#39;RM-000003&#39;&amp;nbsp;&lt;/p&gt;&lt;p style=&quot;border-color: var(--border-color); color: rgb(0, 0, 0); margin: 0px;&quot;&gt;&lt;br&gt;&lt;/p&gt;&lt;p style=&quot;border-color: var(--border-color); color: rgb(0, 0, 0); margin: 0px;&quot;&gt;vegnono agiornati tutti gli esami sostenuti dalla matricola RM-000003 attribuendoli alla&amp;nbsp;&lt;span style=&quot;font-size: 12pt;&quot;&gt;matricola &#39;RM-00001&#39;. purchè vengano rispettato il vincolo di foreign-key tra tabella sostenimento e tabella studente&lt;/span&gt;&lt;/p&gt;&lt;/div&gt;&lt;/div&gt;&lt;/div&gt;&lt;p style=&quot;color: rgb(0, 0, 0); margin: 0px;&quot;&gt;&lt;span style=&quot;color:#ff0000;&quot;&gt;&lt;br&gt;&lt;/span&gt;&lt;/p&gt;&lt;/div&gt;&lt;/div&gt;" style="text;html=1;strokeColor=#A50040;fillColor=#d80073;spacing=5;spacingTop=-20;whiteSpace=wrap;overflow=hidden;rounded=0;fontColor=#ffffff;" vertex="1" parent="1">
          <mxGeometry x="150" y="530" width="480" height="910" as="geometry" />
        </mxCell>
        <mxCell id="iAH6zQvwI0jVcYzAp-XG-7" value="&lt;h1&gt;DELETE SQL&lt;/h1&gt;&lt;div style=&quot;background-color:#ffffff;padding:0px 0px 0px 2px;&quot;&gt;&lt;div style=&quot;font-family: Consolas; font-size: 12pt;&quot;&gt;&lt;p style=&quot;color: rgb(0, 0, 0); margin: 0px;&quot;&gt;DELETE FROM sostenimento&amp;nbsp; &amp;nbsp; &amp;nbsp; &amp;nbsp; &amp;nbsp; &amp;nbsp; &amp;nbsp; &amp;nbsp; &amp;nbsp; &amp;nbsp; &amp;nbsp; &amp;nbsp; &amp;nbsp; &amp;nbsp;&lt;/p&gt;&lt;p style=&quot;color: rgb(0, 0, 0); margin: 0px;&quot;&gt;&lt;br&gt;&lt;/p&gt;&lt;p style=&quot;color: rgb(0, 0, 0); margin: 0px;&quot;&gt;Il comando precedente elimina tutti i recrd della tabella sostenimetno. Agisce su tutti i record e non sui singoli campi.&lt;br&gt;&lt;br&gt;Anche in questo caso, come per l&#39;UPDATE, è necessario impostare la clausola WHERE.&lt;/p&gt;&lt;p style=&quot;color: rgb(0, 0, 0); margin: 0px;&quot;&gt;&lt;br&gt;&lt;/p&gt;&lt;p style=&quot;color: rgb(0, 0, 0); margin: 0px;&quot;&gt;DELETE FROM sostenimento WHERE codice_esame=&#39;&#39; AND matricola=&#39;&#39;&lt;/p&gt;&lt;p style=&quot;color: rgb(0, 0, 0); margin: 0px;&quot;&gt;&lt;br&gt;&lt;/p&gt;&lt;p style=&quot;color: rgb(0, 0, 0); margin: 0px;&quot;&gt;Ulteriormente:&lt;/p&gt;&lt;p style=&quot;color: rgb(0, 0, 0); margin: 0px;&quot;&gt;&lt;br&gt;&lt;/p&gt;&lt;p style=&quot;color: rgb(0, 0, 0); margin: 0px;&quot;&gt;DELETE FROM sostenimento WHERE voto &amp;gt; 18&lt;/p&gt;&lt;p style=&quot;color: rgb(0, 0, 0); margin: 0px;&quot;&gt;&lt;br&gt;&lt;/p&gt;&lt;p style=&quot;color: rgb(0, 0, 0); margin: 0px;&quot;&gt;la query elimina tutti i sostenimenti con voto superiore a 18.&lt;/p&gt;&lt;p style=&quot;color: rgb(0, 0, 0); margin: 0px;&quot;&gt;&lt;br&gt;&lt;/p&gt;&lt;p style=&quot;color: rgb(0, 0, 0); margin: 0px;&quot;&gt;&lt;br&gt;&lt;/p&gt;&lt;p style=&quot;color: rgb(0, 0, 0); margin: 0px;&quot;&gt;&lt;br&gt;&lt;/p&gt;&lt;p style=&quot;color: rgb(0, 0, 0); margin: 0px;&quot;&gt;&lt;br&gt;&lt;/p&gt;&lt;p style=&quot;color: rgb(0, 0, 0); margin: 0px;&quot;&gt;&lt;br&gt;&lt;/p&gt;&lt;p style=&quot;color: rgb(0, 0, 0); margin: 0px;&quot;&gt;&lt;br&gt;&lt;/p&gt;&lt;/div&gt;&lt;/div&gt;" style="text;html=1;strokeColor=#A50040;fillColor=#d80073;spacing=5;spacingTop=-20;whiteSpace=wrap;overflow=hidden;rounded=0;fontColor=#ffffff;" vertex="1" parent="1">
          <mxGeometry x="-180" y="-130" width="470" height="380" as="geometry" />
        </mxCell>
        <mxCell id="iAH6zQvwI0jVcYzAp-XG-8" value="&lt;h1&gt;DELETE SQL&lt;/h1&gt;&lt;div style=&quot;background-color:#ffffff;padding:0px 0px 0px 2px;&quot;&gt;&lt;div style=&quot;font-family: Consolas; font-size: 12pt;&quot;&gt;&lt;p style=&quot;color: rgb(0, 0, 0); margin: 0px;&quot;&gt;DELETE FROM studente WHERE matricola=&#39;RM3-000001&#39;&lt;/p&gt;&lt;p style=&quot;color: rgb(0, 0, 0); margin: 0px;&quot;&gt;&lt;br&gt;&lt;/p&gt;&lt;p style=&quot;color: rgb(0, 0, 0); margin: 0px;&quot;&gt;Il comando precedente elimina un solo sudente, quello con matricola &#39;RM3-000001&#39;.&lt;br&gt;&lt;/p&gt;&lt;p style=&quot;color: rgb(0, 0, 0); margin: 0px;&quot;&gt;&lt;br&gt;&lt;/p&gt;&lt;p style=&quot;color: rgb(0, 0, 0); margin: 0px;&quot;&gt;Il comando fallisce per violazione del vincolo di foreign-key (chiave correlata).&lt;/p&gt;&lt;/div&gt;&lt;/div&gt;" style="text;html=1;strokeColor=#A50040;fillColor=#d80073;spacing=5;spacingTop=-20;whiteSpace=wrap;overflow=hidden;rounded=0;fontColor=#ffffff;" vertex="1" parent="1">
          <mxGeometry x="1241" y="930" width="470" height="200" as="geometry" />
        </mxCell>
        <mxCell id="iAH6zQvwI0jVcYzAp-XG-9" value="&lt;div style=&quot;padding: 0px 0px 0px 2px;&quot;&gt;&lt;div style=&quot;&quot;&gt;&lt;p style=&quot;margin: 0px;&quot;&gt;&lt;b style=&quot;border-color: var(--border-color); font-size: 24px;&quot;&gt;&lt;br&gt;&lt;/b&gt;&lt;/p&gt;&lt;p style=&quot;margin: 0px;&quot;&gt;&lt;b style=&quot;border-color: var(--border-color); font-size: 24px;&quot;&gt;DELETE SQL GLOBALE su tutte le tabelle...cancelliamo tutti record nel database&lt;/b&gt;&lt;/p&gt;&lt;p style=&quot;margin: 0px;&quot;&gt;&lt;b style=&quot;border-color: var(--border-color); font-size: 24px;&quot;&gt;&lt;br&gt;&lt;/b&gt;&lt;/p&gt;&lt;p style=&quot;margin: 0px;&quot;&gt;&lt;br&gt;&lt;font style=&quot;font-size: 20px;&quot;&gt;1) DELETE FROM studente (fallisce per FK)&lt;/font&gt;&lt;/p&gt;&lt;p style=&quot;margin: 0px;&quot;&gt;&lt;font style=&quot;font-size: 20px;&quot;&gt;2) DELETE FROM sostenimento (viene eseguito)&lt;/font&gt;&lt;/p&gt;&lt;p style=&quot;margin: 0px;&quot;&gt;&lt;font style=&quot;font-size: 20px;&quot;&gt;3) DELETE FROM esame (viene eseguito, nessuna violazione del vincolo FK)&lt;/font&gt;&lt;/p&gt;&lt;p style=&quot;margin: 0px;&quot;&gt;&lt;font style=&quot;font-size: 20px;&quot;&gt;&lt;br&gt;&lt;/font&gt;&lt;/p&gt;&lt;p style=&quot;margin: 0px;&quot;&gt;&lt;font style=&quot;font-size: 20px;&quot;&gt;Invertendo l&#39;ordine di esecuzione dei comandi:&lt;/font&gt;&lt;/p&gt;&lt;p style=&quot;border-color: var(--border-color); margin: 0px;&quot;&gt;&lt;font style=&quot;border-color: var(--border-color); font-size: 20px;&quot;&gt;1) DELETE FROM sostenimento (viene eseguito)&lt;/font&gt;&lt;/p&gt;&lt;p style=&quot;border-color: var(--border-color); margin: 0px;&quot;&gt;&lt;font style=&quot;border-color: var(--border-color); font-size: 20px;&quot;&gt;2) DELETE FROM studente (viene eseguito)&lt;/font&gt;&lt;/p&gt;&lt;p style=&quot;margin: 0px;&quot;&gt;&lt;font style=&quot;font-size: 20px;&quot;&gt;&lt;/font&gt;&lt;/p&gt;&lt;p style=&quot;border-color: var(--border-color); margin: 0px;&quot;&gt;&lt;font style=&quot;border-color: var(--border-color); font-size: 20px;&quot;&gt;3) DELETE FROM esame (viene eseguito)&amp;nbsp;&lt;/font&gt;&lt;/p&gt;&lt;p style=&quot;margin: 0px;&quot;&gt;&lt;font style=&quot;font-size: 20px;&quot;&gt;&lt;br&gt;&lt;/font&gt;&lt;/p&gt;&lt;p style=&quot;margin: 0px;&quot;&gt;&lt;font style=&quot;font-size: 20px;&quot;&gt;&lt;br&gt;&lt;/font&gt;&lt;/p&gt;&lt;/div&gt;&lt;/div&gt;" style="text;html=1;strokeColor=#A50040;fillColor=#d80073;spacing=5;spacingTop=-20;whiteSpace=wrap;overflow=hidden;rounded=0;fontColor=#ffffff;" vertex="1" parent="1">
          <mxGeometry x="680" y="-810" width="470" height="380" as="geometry" />
        </mxCell>
        <mxCell id="iAH6zQvwI0jVcYzAp-XG-11" value="" style="shape=flexArrow;endArrow=classic;html=1;rounded=0;" edge="1" parent="1" target="iAH6zQvwI0jVcYzAp-XG-2">
          <mxGeometry width="50" height="50" relative="1" as="geometry">
            <mxPoint x="790" y="-420" as="sourcePoint" />
            <mxPoint x="930" y="-130" as="targetPoint" />
          </mxGeometry>
        </mxCell>
      </root>
    </mxGraphModel>
  </diagram>
</mxfile>
